{"glyphs":{"0":{"ha":825,"x_min":63,"x_max":763,"o":"m 413 -18 q 154 110 246 -18 q 63 475 63 239 q 153 842 63 713 q 413 972 244 972 q 672 842 581 972 q 763 475 763 713 q 671 110 763 239 q 413 -18 579 -18 m 413 89 q 638 474 638 89 q 413 865 638 865 q 188 474 188 865 q 413 89 188 89 z "},"1":{"ha":825,"x_min":128,"x_max":525,"o":"m 404 0 l 404 822 l 185 686 l 128 776 l 415 954 l 525 954 l 525 0 l 404 0 z "},"2":{"ha":825,"x_min":82,"x_max":724,"o":"m 82 0 l 82 36 q 114 202 82 133 q 208 328 146 271 q 361 449 269 386 q 477 534 429 496 q 551 613 525 572 q 576 711 576 654 q 527 824 576 783 q 386 865 478 865 q 260 844 317 865 q 146 778 203 822 l 92 864 q 238 946 164 919 q 393 972 311 972 q 619 905 536 972 q 701 714 701 838 q 669 583 701 639 q 581 481 638 528 q 450 385 525 435 q 285 254 351 318 q 207 106 218 190 l 724 106 l 724 0 l 82 0 z "},"3":{"ha":825,"x_min":76,"x_max":726,"o":"m 378 -18 q 222 -1 296 -18 q 76 65 149 15 l 122 160 q 238 105 176 121 q 382 89 299 89 q 543 138 483 89 q 603 267 603 186 q 378 446 603 446 l 238 446 l 238 547 l 364 547 q 525 591 468 547 q 582 715 582 635 q 533 827 582 789 q 392 865 485 865 q 149 796 251 865 l 101 885 q 247 952 171 932 q 404 972 322 972 q 625 906 544 972 q 706 725 706 839 q 547 503 706 567 q 726 264 726 446 q 684 115 726 178 q 563 17 642 51 q 378 -18 485 -18 z "},"4":{"ha":825,"x_min":46,"x_max":774,"o":"m 539 0 l 539 214 l 46 214 l 46 311 l 531 954 l 656 954 l 656 317 l 774 317 l 774 214 l 656 214 l 656 0 l 539 0 m 539 317 l 539 801 l 178 317 l 539 317 z "},"5":{"ha":825,"x_min":79,"x_max":731,"o":"m 379 -18 q 224 -1 297 -18 q 79 65 151 15 l 125 160 q 240 104 179 121 q 383 88 300 88 q 547 141 488 88 q 607 286 607 194 q 552 435 607 388 q 383 482 497 482 q 288 470 331 482 q 208 440 244 458 l 131 478 l 168 954 l 689 954 l 689 849 l 267 849 l 243 547 q 326 576 282 568 q 410 585 371 585 q 647 508 564 585 q 731 289 731 432 q 637 65 731 147 q 379 -18 543 -18 z "},"6":{"ha":825,"x_min":76,"x_max":754,"o":"m 431 -18 q 168 103 260 -18 q 76 443 76 224 q 121 717 76 597 q 260 904 165 836 q 504 972 354 972 q 616 960 563 972 q 714 928 669 949 l 679 828 q 601 856 644 846 q 510 867 557 867 q 330 818 397 867 q 231 685 263 769 q 194 493 199 600 q 457 606 292 606 q 676 526 597 606 q 754 306 754 446 q 667 69 754 156 q 431 -18 581 -18 m 436 85 q 583 143 531 85 q 635 299 635 201 q 583 451 635 397 q 436 504 532 504 q 197 390 294 504 q 264 165 206 244 q 436 85 322 85 z "},"7":{"ha":825,"x_min":78,"x_max":725,"o":"m 240 0 l 610 849 l 78 849 l 78 954 l 725 954 l 725 860 l 369 0 l 240 0 z "},"8":{"ha":825,"x_min":68,"x_max":757,"o":"m 413 -18 q 161 55 254 -18 q 68 250 68 128 q 113 394 68 332 q 242 488 158 456 q 133 575 171 518 q 94 710 94 632 q 180 901 94 831 q 413 972 265 972 q 645 901 560 972 q 731 710 731 831 q 692 576 731 633 q 583 489 654 518 q 712 395 667 457 q 757 250 757 333 q 664 55 757 128 q 413 -18 571 -18 m 413 536 q 559 579 507 536 q 611 701 611 622 q 559 826 611 783 q 413 869 507 869 q 266 826 318 869 q 214 701 214 783 q 266 579 214 622 q 413 536 318 536 m 413 86 q 578 131 519 86 q 636 260 636 176 q 578 389 636 343 q 413 435 519 435 q 247 389 306 435 q 189 260 189 343 q 247 131 189 176 q 413 86 306 86 z "},"9":{"ha":825,"x_min":71,"x_max":749,"o":"m 321 -18 q 209 -6 263 -18 q 111 26 156 6 l 146 126 q 224 98 181 108 q 315 88 268 88 q 497 135 429 88 q 595 267 564 183 q 631 461 626 351 q 368 349 535 349 q 149 428 228 349 q 71 649 71 508 q 158 885 71 799 q 394 972 244 972 q 657 851 565 972 q 749 511 749 731 q 705 236 749 356 q 567 49 661 117 q 321 -18 472 -18 m 389 450 q 628 564 531 450 q 561 790 619 710 q 389 869 503 869 q 244 812 297 869 q 190 656 190 754 q 242 504 190 558 q 389 450 294 450 z "},"\u0000":{"ha":297,"x_min":0,"x_max":0,"o":""},"\u0001":{"ha":297,"x_min":0,"x_max":0,"o":""},"\u0002":{"ha":297,"x_min":0,"x_max":0,"o":""},"\u0003":{"ha":297,"x_min":0,"x_max":0,"o":""},"\u0004":{"ha":297,"x_min":0,"x_max":0,"o":""},"\u0005":{"ha":297,"x_min":0,"x_max":0,"o":""},"\u0006":{"ha":297,"x_min":0,"x_max":0,"o":""},"\u0007":{"ha":297,"x_min":0,"x_max":0,"o":""},"\b":{"ha":297,"x_min":0,"x_max":0,"o":""},"\t":{"ha":297,"x_min":0,"x_max":0,"o":""},"\n":{"ha":297,"x_min":0,"x_max":0,"o":""},"\u000b":{"ha":297,"x_min":0,"x_max":0,"o":""},"\f":{"ha":297,"x_min":0,"x_max":0,"o":""},"\r":{"ha":297,"x_min":0,"x_max":0,"o":""},"\u000e":{"ha":297,"x_min":0,"x_max":0,"o":""},"\u000f":{"ha":297,"x_min":0,"x_max":0,"o":""},"\u0010":{"ha":297,"x_min":0,"x_max":0,"o":""},"\u0011":{"ha":297,"x_min":0,"x_max":0,"o":""},"\u0012":{"ha":297,"x_min":0,"x_max":0,"o":""},"\u0013":{"ha":297,"x_min":0,"x_max":0,"o":""},"\u0014":{"ha":297,"x_min":0,"x_max":0,"o":""},"\u0015":{"ha":297,"x_min":0,"x_max":0,"o":""},"\u0016":{"ha":297,"x_min":0,"x_max":0,"o":""},"\u0017":{"ha":297,"x_min":0,"x_max":0,"o":""},"\u0018":{"ha":297,"x_min":0,"x_max":0,"o":""},"\u0019":{"ha":297,"x_min":0,"x_max":0,"o":""},"\u001a":{"ha":297,"x_min":0,"x_max":0,"o":""},"\u001b":{"ha":297,"x_min":0,"x_max":0,"o":""},"\u001c":{"ha":297,"x_min":0,"x_max":0,"o":""},"\u001d":{"ha":297,"x_min":0,"x_max":0,"o":""},"\u001e":{"ha":297,"x_min":0,"x_max":0,"o":""},"\u001f":{"ha":297,"x_min":0,"x_max":0,"o":""}," ":{"ha":297,"x_min":0,"x_max":0,"o":""},"!":{"ha":328,"x_min":83,"x_max":246,"o":"m 101 1040 l 226 1040 l 214 231 l 114 231 l 101 1040 m 164 -64 q 106 -42 128 -64 q 83 17 83 -19 q 106 74 83 53 q 164 96 128 96 q 224 74 201 96 q 246 17 246 53 q 224 -42 246 -19 q 164 -64 201 -64 z "},"\"":{"ha":471,"x_min":68,"x_max":403,"o":"m 68 1085 l 183 1085 l 175 674 l 78 674 l 68 1085 m 288 1085 l 403 1085 l 394 674 l 297 674 l 288 1085 z "},"#":{"ha":825,"x_min":44,"x_max":781,"o":"m 132 0 l 172 256 l 44 256 l 44 344 l 186 344 l 229 615 l 86 615 l 86 704 l 243 704 l 283 954 l 382 954 l 342 704 l 554 704 l 594 954 l 693 954 l 653 704 l 781 704 l 781 615 l 639 615 l 596 344 l 739 344 l 739 256 l 582 256 l 542 0 l 443 0 l 483 256 l 271 256 l 231 0 l 132 0 m 285 344 l 497 344 l 540 615 l 328 615 l 285 344 z "},"$":{"ha":825,"x_min":78,"x_max":750,"o":"m 374 -156 l 374 -17 q 219 7 289 -14 q 78 72 150 28 l 119 167 q 242 106 183 125 q 374 83 301 88 l 374 436 l 364 439 q 210 497 267 464 q 128 581 153 531 q 103 703 103 631 q 174 885 103 817 q 374 968 244 954 l 374 1097 l 469 1097 l 469 972 q 603 950 543 969 q 729 890 664 931 l 689 797 q 583 849 633 832 q 469 869 532 867 l 469 529 l 479 526 q 638 467 579 500 q 724 383 697 433 q 750 258 750 333 q 676 69 750 140 q 469 -15 603 -3 l 469 -156 l 374 -156 m 217 710 q 249 615 217 647 q 374 556 282 582 l 374 867 q 217 710 217 844 m 633 251 q 599 349 633 315 q 469 411 565 383 l 469 88 q 633 251 633 111 z "},"%":{"ha":1311,"x_min":51,"x_max":1260,"o":"m 364 0 l 842 954 l 947 954 l 469 0 l 364 0 m 1031 -14 q 861 60 921 -14 q 801 268 801 133 q 861 478 801 403 q 1031 553 921 553 q 1200 478 1140 553 q 1260 268 1260 403 q 1200 60 1260 133 q 1031 -14 1140 -14 m 1031 71 q 1161 268 1161 71 q 1031 468 1161 468 q 900 268 900 468 q 1031 71 900 71 m 281 401 q 111 475 171 401 q 51 683 51 549 q 111 893 51 818 q 281 968 171 968 q 450 893 390 968 q 510 683 510 818 q 450 475 510 549 q 281 401 390 401 m 281 486 q 411 683 411 486 q 281 883 411 883 q 150 683 150 883 q 281 486 150 486 z "},"&":{"ha":951,"x_min":64,"x_max":904,"o":"m 368 -18 q 146 51 228 -18 q 64 236 64 119 q 113 390 64 321 q 269 519 161 460 q 183 635 215 578 q 151 757 151 692 q 222 923 151 860 q 407 986 292 986 q 584 928 517 986 q 651 774 651 869 q 605 633 651 700 q 435 499 558 567 l 671 249 q 728 370 707 304 q 757 501 750 436 l 865 478 q 824 315 854 394 q 744 169 794 235 l 904 0 l 746 0 l 665 88 q 533 10 607 39 q 368 -18 458 -18 m 263 753 q 292 663 263 706 q 371 567 322 619 q 501 661 461 614 q 540 764 540 708 q 503 857 540 822 q 404 892 465 892 q 301 854 339 892 q 263 753 263 817 m 183 246 q 236 127 183 171 q 379 83 289 83 q 499 105 444 83 q 596 163 553 126 l 333 449 q 215 352 247 403 q 183 246 183 301 z "},"'":{"ha":251,"x_min":68,"x_max":183,"o":"m 68 1085 l 183 1085 l 175 674 l 78 674 l 68 1085 z "},"(":{"ha":410,"x_min":74,"x_max":379,"o":"m 258 -190 q 122 112 169 -50 q 74 447 74 274 q 122 783 74 621 q 258 1085 169 944 l 379 1085 q 247 791 294 953 q 199 447 199 629 q 247 106 199 268 q 379 -190 294 -57 l 258 -190 z "},")":{"ha":410,"x_min":29,"x_max":336,"o":"m 29 -190 q 163 106 114 -57 q 211 447 211 268 q 163 791 211 629 q 29 1085 114 953 l 151 1085 q 288 783 240 944 q 336 447 336 621 q 288 112 336 274 q 151 -190 240 -50 l 29 -190 z "},"*":{"ha":550,"x_min":44,"x_max":506,"o":"m 167 510 l 85 569 l 208 718 l 44 763 l 75 858 l 233 793 l 221 972 l 329 972 l 317 793 l 475 858 l 506 763 l 343 718 l 467 569 l 383 510 l 275 676 l 167 510 z "},"+":{"ha":825,"x_min":100,"x_max":725,"o":"m 358 157 l 358 426 l 100 426 l 100 529 l 358 529 l 358 799 l 467 799 l 467 529 l 725 529 l 725 426 l 467 426 l 467 157 l 358 157 z "},",":{"ha":318,"x_min":31,"x_max":231,"o":"m 31 -217 q 90 -56 69 -143 q 113 132 111 32 l 231 132 q 197 -81 229 18 q 106 -258 165 -179 l 31 -217 z "},"-":{"ha":535,"x_min":64,"x_max":471,"o":"m 64 550 l 471 550 l 471 447 l 64 447 l 64 550 z "},".":{"ha":318,"x_min":78,"x_max":240,"o":"m 160 -64 q 100 -42 122 -64 q 78 17 78 -19 q 100 74 78 53 q 160 96 122 96 q 218 74 196 96 q 240 17 240 53 q 218 -42 240 -19 q 160 -64 196 -64 z "},"/":{"ha":642,"x_min":21,"x_max":621,"o":"m 21 -190 l 500 1085 l 621 1085 l 142 -190 l 21 -190 z "},":":{"ha":318,"x_min":78,"x_max":240,"o":"m 160 144 q 100 167 122 144 q 78 225 78 189 q 100 283 78 261 q 160 304 122 304 q 218 283 196 304 q 240 225 240 261 q 218 167 240 189 q 160 144 196 144 m 160 668 q 100 690 122 668 q 78 749 78 713 q 100 806 78 785 q 160 828 122 828 q 218 806 196 828 q 240 749 240 785 q 218 690 240 713 q 160 668 196 668 z "},";":{"ha":318,"x_min":25,"x_max":240,"o":"m 25 -47 q 85 114 64 26 q 107 301 106 201 l 225 301 q 192 89 224 188 q 100 -89 160 -10 l 25 -47 m 160 668 q 100 690 122 668 q 78 749 78 713 q 100 806 78 785 q 160 828 122 828 q 218 806 196 828 q 240 749 240 785 q 218 690 240 713 q 160 668 196 668 z "},"<":{"ha":825,"x_min":100,"x_max":725,"o":"m 725 147 l 100 431 l 100 525 l 725 808 l 725 694 l 233 478 l 725 263 l 725 147 z "},"=":{"ha":825,"x_min":100,"x_max":725,"o":"m 100 261 l 100 364 l 725 364 l 725 261 l 100 261 m 100 592 l 100 694 l 725 694 l 725 592 l 100 592 z "},">":{"ha":825,"x_min":100,"x_max":725,"o":"m 100 147 l 100 263 l 592 478 l 100 694 l 100 808 l 725 525 l 725 431 l 100 147 z "},"?":{"ha":694,"x_min":61,"x_max":629,"o":"m 260 314 q 267 394 260 357 q 290 463 274 431 q 331 526 306 494 q 393 590 356 557 q 478 687 450 640 q 507 796 507 733 q 462 906 507 865 q 335 946 417 946 q 114 861 217 946 l 61 947 q 199 1024 131 1000 q 347 1049 267 1049 q 554 983 479 1049 q 629 807 629 917 q 619 726 629 763 q 591 656 610 689 q 544 594 572 624 q 481 535 517 565 q 390 431 415 481 q 365 315 365 382 l 365 229 l 260 229 l 260 314 m 313 -64 q 253 -42 275 -64 q 231 17 231 -19 q 253 74 231 53 q 313 96 275 96 q 371 74 349 96 q 393 17 393 53 q 371 -42 393 -19 q 313 -64 349 -64 z "},"@":{"ha":1315,"x_min":67,"x_max":1249,"o":"m 633 -294 q 326 -232 453 -294 q 133 -51 200 -169 q 67 236 67 68 q 117 527 67 394 q 259 756 167 660 q 477 906 351 853 q 754 958 603 958 q 1014 900 903 958 q 1187 738 1125 842 q 1249 494 1249 633 q 1206 250 1249 356 q 1088 85 1164 144 q 911 26 1013 26 q 769 129 788 26 q 564 26 679 26 q 435 81 483 26 q 388 232 388 135 q 428 439 388 347 q 538 583 468 531 q 697 636 608 636 q 847 563 793 636 l 868 622 l 951 622 l 871 254 q 863 189 863 214 q 878 133 863 150 q 929 117 894 117 q 1044 164 994 117 q 1122 296 1094 211 q 1150 493 1150 381 q 1100 691 1150 607 q 958 821 1050 775 q 743 867 867 867 q 512 821 617 867 q 330 690 407 775 q 210 490 253 606 q 168 236 168 375 q 290 -89 168 25 q 633 -203 411 -203 q 816 -184 731 -203 q 982 -126 901 -165 l 1014 -210 q 839 -272 931 -250 q 633 -294 747 -294 m 594 118 q 761 211 686 118 l 822 490 q 703 544 775 544 q 597 504 644 544 q 520 397 549 464 q 492 247 492 329 q 594 118 492 118 z "},"A":{"ha":960,"x_min":19,"x_max":940,"o":"m 19 0 l 415 972 l 544 972 l 940 0 l 801 0 l 700 263 l 256 263 l 153 0 l 19 0 m 297 369 l 658 369 l 478 835 l 297 369 z "},"B":{"ha":896,"x_min":121,"x_max":822,"o":"m 121 0 l 121 972 l 447 972 q 790 728 790 972 q 756 598 790 651 q 647 514 722 544 q 781 426 739 485 q 822 278 822 368 q 475 0 822 0 l 121 0 m 242 556 l 435 556 q 613 593 560 556 q 667 714 667 631 q 613 831 667 794 q 435 868 560 868 l 242 868 l 242 556 m 242 104 l 464 104 q 642 145 589 104 q 696 279 696 186 q 644 411 696 371 q 464 451 592 451 l 242 451 l 242 104 z "},"C":{"ha":921,"x_min":74,"x_max":857,"o":"m 538 -21 q 194 112 314 -21 q 74 488 74 244 q 130 758 74 644 q 292 933 186 872 q 544 993 397 993 q 843 899 726 993 l 796 801 q 676 864 731 846 q 549 882 622 882 q 204 488 204 882 q 543 90 204 90 q 679 109 619 90 q 808 175 739 128 l 857 76 q 713 3 792 28 q 538 -21 633 -21 z "},"D":{"ha":988,"x_min":121,"x_max":914,"o":"m 121 0 l 121 972 l 453 972 q 794 847 675 972 q 914 489 914 721 q 792 129 914 258 q 451 0 671 0 l 121 0 m 246 108 l 443 108 q 696 206 608 108 q 783 489 783 303 q 698 769 783 674 q 444 864 613 864 l 246 864 l 246 108 z "},"E":{"ha":811,"x_min":121,"x_max":758,"o":"m 121 0 l 121 972 l 733 972 l 733 861 l 246 861 l 246 546 l 706 546 l 706 435 l 246 435 l 246 111 l 758 111 l 758 0 l 121 0 z "},"F":{"ha":757,"x_min":121,"x_max":713,"o":"m 121 0 l 121 972 l 713 972 l 713 861 l 246 861 l 246 524 l 685 524 l 685 413 l 246 413 l 246 0 l 121 0 z "},"G":{"ha":990,"x_min":74,"x_max":894,"o":"m 553 -21 q 198 112 322 -21 q 74 488 74 244 q 130 754 74 640 q 294 931 186 868 q 560 993 403 993 q 871 897 746 993 l 824 800 q 697 864 754 846 q 563 882 639 882 q 204 488 204 882 q 560 89 204 89 q 681 99 626 89 q 776 131 736 108 l 776 408 l 550 408 l 550 514 l 894 514 l 894 69 q 553 -21 753 -21 z "},"H":{"ha":1008,"x_min":121,"x_max":888,"o":"m 121 0 l 121 972 l 246 972 l 246 546 l 763 546 l 763 972 l 888 972 l 888 0 l 763 0 l 763 435 l 246 435 l 246 0 l 121 0 z "},"I":{"ha":367,"x_min":121,"x_max":246,"o":"m 121 0 l 121 972 l 246 972 l 246 0 l 121 0 z "},"J":{"ha":676,"x_min":26,"x_max":560,"o":"m 251 -21 q 129 -8 183 -21 q 26 32 75 6 l 63 135 q 147 100 107 110 q 240 90 188 90 q 435 314 435 90 l 435 972 l 560 972 l 560 315 q 480 67 560 154 q 251 -21 400 -21 z "},"K":{"ha":918,"x_min":121,"x_max":904,"o":"m 121 0 l 121 972 l 246 972 l 246 519 l 696 972 l 858 972 l 386 507 l 904 0 l 728 0 l 246 479 l 246 0 l 121 0 z "},"L":{"ha":756,"x_min":121,"x_max":731,"o":"m 121 0 l 121 972 l 246 972 l 246 111 l 731 111 l 731 0 l 121 0 z "},"M":{"ha":1199,"x_min":121,"x_max":1078,"o":"m 121 0 l 121 972 l 267 972 l 601 301 l 935 972 l 1078 972 l 1078 0 l 960 0 l 960 782 l 656 186 l 543 186 l 239 778 l 239 0 l 121 0 z "},"N":{"ha":1006,"x_min":121,"x_max":885,"o":"m 121 0 l 121 972 l 254 972 l 765 181 l 765 972 l 885 972 l 885 0 l 753 0 l 240 789 l 240 0 l 121 0 z "},"O":{"ha":1058,"x_min":74,"x_max":985,"o":"m 529 -21 q 287 41 389 -21 q 129 217 185 103 q 74 485 74 331 q 129 756 74 642 q 287 931 185 869 q 529 993 389 993 q 772 931 669 993 q 929 756 874 869 q 985 485 985 642 q 929 217 985 331 q 772 41 874 103 q 529 -21 669 -21 m 529 90 q 770 192 686 90 q 854 485 854 294 q 770 779 854 676 q 529 882 686 882 q 288 779 372 882 q 204 485 204 676 q 288 192 204 294 q 529 90 372 90 z "},"P":{"ha":856,"x_min":121,"x_max":793,"o":"m 121 0 l 121 972 l 431 972 q 701 893 608 972 q 793 667 793 814 q 699 440 793 519 q 429 361 606 361 l 244 361 l 244 0 l 121 0 m 244 465 l 419 465 q 607 515 547 465 q 667 667 667 564 q 607 819 667 769 q 421 868 547 868 l 244 868 l 244 465 z "},"Q":{"ha":1058,"x_min":74,"x_max":985,"o":"m 529 -21 q 287 41 389 -21 q 129 217 185 103 q 74 485 74 331 q 129 756 74 642 q 287 931 185 869 q 529 993 389 993 q 772 931 669 993 q 929 756 874 869 q 985 485 985 642 q 951 269 985 365 q 854 108 917 174 l 972 -28 l 890 -99 l 769 40 q 529 -21 667 -21 m 529 90 q 693 128 624 90 l 556 286 l 638 357 l 775 199 q 854 485 854 300 q 770 779 854 676 q 529 882 686 882 q 288 779 372 882 q 204 485 204 676 q 288 192 204 294 q 529 90 372 90 z "},"R":{"ha":886,"x_min":121,"x_max":839,"o":"m 121 0 l 121 972 l 446 972 q 703 896 614 972 q 793 676 793 819 q 741 499 793 569 q 589 400 689 429 l 839 0 l 693 0 l 463 382 l 244 382 l 244 0 l 121 0 m 244 486 l 435 486 q 611 533 556 486 q 667 676 667 579 q 610 822 667 775 q 436 868 554 868 l 244 868 l 244 486 z "},"S":{"ha":800,"x_min":46,"x_max":731,"o":"m 386 -21 q 206 0 285 -21 q 46 74 128 21 l 90 172 q 227 106 163 125 q 378 86 292 86 q 547 131 489 86 q 604 256 604 175 q 586 334 604 303 q 522 388 568 365 q 392 432 475 411 l 336 446 q 181 505 239 471 q 98 590 124 539 q 72 717 72 642 q 117 872 72 811 q 239 963 161 933 q 417 993 317 993 q 569 974 503 993 q 710 907 636 954 l 667 811 q 544 869 603 851 q 410 886 486 886 q 251 844 306 886 q 196 724 196 801 q 213 645 196 675 q 275 594 231 615 q 400 551 319 572 l 456 538 q 616 478 556 513 q 703 391 676 443 q 731 264 731 339 q 686 104 731 167 q 564 10 642 42 q 386 -21 486 -21 z "},"T":{"ha":825,"x_min":25,"x_max":800,"o":"m 350 0 l 350 861 l 25 861 l 25 972 l 800 972 l 800 861 l 475 861 l 475 0 l 350 0 z "},"U":{"ha":997,"x_min":117,"x_max":881,"o":"m 500 -21 q 218 82 319 -21 q 117 367 117 185 l 117 972 l 242 972 l 242 354 q 308 159 242 228 q 500 90 375 90 q 689 159 622 90 q 756 354 756 228 l 756 972 l 881 972 l 881 367 q 780 81 881 183 q 500 -21 679 -21 z "},"V":{"ha":943,"x_min":19,"x_max":924,"o":"m 407 0 l 19 972 l 158 972 l 474 140 l 790 972 l 924 972 l 536 0 l 407 0 z "},"W":{"ha":1314,"x_min":26,"x_max":1288,"o":"m 303 0 l 26 972 l 163 972 l 371 163 l 596 950 l 722 950 l 947 164 l 1156 972 l 1288 972 l 1011 0 l 882 0 l 657 786 l 432 0 l 303 0 z "},"X":{"ha":879,"x_min":18,"x_max":861,"o":"m 18 0 l 367 500 l 40 972 l 188 972 l 440 593 l 699 972 l 840 972 l 511 503 l 861 0 l 711 0 l 436 408 l 163 0 l 18 0 z "},"Y":{"ha":897,"x_min":22,"x_max":875,"o":"m 386 0 l 386 365 l 22 972 l 167 972 l 451 478 l 736 972 l 875 972 l 511 365 l 511 0 l 386 0 z "},"Z":{"ha":838,"x_min":58,"x_max":779,"o":"m 58 0 l 58 97 l 613 863 l 72 863 l 72 972 l 765 972 l 765 875 l 214 110 l 779 110 l 779 0 l 58 0 z "},"[":{"ha":458,"x_min":122,"x_max":429,"o":"m 122 1085 l 429 1085 l 429 983 l 240 983 l 240 -89 l 429 -89 l 429 -190 l 122 -190 l 122 1085 z "},"\\":{"ha":621,"x_min":21,"x_max":600,"o":"m 481 -208 l 21 1032 l 140 1032 l 600 -208 l 481 -208 z "},"]":{"ha":458,"x_min":29,"x_max":336,"o":"m 29 -89 l 218 -89 l 218 983 l 29 983 l 29 1085 l 336 1085 l 336 -190 l 29 -190 l 29 -89 z "},"^":{"ha":825,"x_min":90,"x_max":735,"o":"m 90 429 l 361 950 l 464 950 l 735 429 l 614 429 l 411 838 l 208 429 l 90 429 z "},"_":{"ha":694,"x_min":0,"x_max":694,"o":"m 0 -201 l 0 -100 l 694 -100 l 694 -201 l 0 -201 z "},"`":{"ha":694,"x_min":147,"x_max":447,"o":"m 338 840 l 147 1053 l 288 1053 l 447 840 l 338 840 z "},"a":{"ha":753,"x_min":64,"x_max":651,"o":"m 303 -18 q 128 38 192 -18 q 64 189 64 94 q 138 364 64 306 q 375 428 211 422 l 536 433 l 536 471 q 494 594 536 556 q 363 633 453 633 q 254 619 306 633 q 150 569 203 604 l 101 656 q 244 719 176 703 q 374 736 313 736 q 651 478 651 736 l 651 0 l 550 0 l 546 72 q 435 5 492 28 q 303 -18 379 -18 m 182 196 q 219 112 182 142 q 324 82 256 82 q 438 103 388 82 q 536 167 488 125 l 536 340 l 383 335 q 229 299 276 331 q 182 196 182 267 z "},"b":{"ha":815,"x_min":107,"x_max":749,"o":"m 107 0 l 107 1014 l 225 1014 l 225 651 q 328 716 275 696 q 450 736 382 736 q 669 635 589 736 q 749 360 749 533 q 710 161 749 246 q 599 29 671 76 q 433 -18 528 -18 q 318 1 369 -18 q 215 65 267 19 l 211 0 l 107 0 m 425 632 q 315 612 361 632 q 225 554 268 592 l 225 161 q 315 103 271 121 q 414 86 358 86 q 570 158 514 86 q 626 360 626 231 q 574 562 626 492 q 425 632 522 632 z "},"c":{"ha":700,"x_min":67,"x_max":647,"o":"m 415 -18 q 157 81 247 -18 q 67 361 67 179 q 160 636 67 536 q 419 736 254 736 q 636 676 551 736 l 596 585 q 513 622 551 611 q 426 632 475 632 q 189 361 189 632 q 424 86 189 86 q 519 97 476 86 q 608 136 561 108 l 647 46 q 415 -18 551 -18 z "},"d":{"ha":815,"x_min":67,"x_max":708,"o":"m 365 -18 q 146 83 225 -18 q 67 360 67 185 q 106 558 67 474 q 215 690 144 643 q 382 736 286 736 q 492 719 443 736 q 590 664 542 703 l 590 1014 l 708 1014 l 708 0 l 604 0 l 600 74 q 491 4 546 26 q 365 -18 436 -18 m 189 360 q 242 157 189 228 q 392 86 294 86 q 499 106 453 86 q 590 164 546 125 l 590 557 q 501 615 544 597 q 401 632 457 632 q 246 560 303 632 q 189 360 189 488 z "},"e":{"ha":765,"x_min":67,"x_max":701,"o":"m 417 -18 q 159 82 251 -18 q 67 361 67 182 q 107 558 67 474 q 222 689 147 642 q 401 736 297 736 q 574 689 508 736 q 671 560 640 642 q 701 376 701 479 q 697 322 701 344 l 186 322 q 256 146 194 207 q 425 85 317 85 q 537 99 488 85 q 636 144 586 114 l 675 53 q 553 -1 614 15 q 417 -18 493 -18 m 397 636 q 188 417 210 636 l 585 417 q 535 580 579 524 q 397 636 492 636 z "},"f":{"ha":525,"x_min":26,"x_max":561,"o":"m 153 0 l 153 619 l 26 619 l 26 718 l 153 718 l 153 763 q 399 1032 153 1032 q 561 993 493 1032 l 525 901 q 410 928 474 928 q 303 890 336 928 q 271 769 271 853 l 271 718 l 508 718 l 508 619 l 271 619 l 271 0 l 153 0 z "},"g":{"ha":815,"x_min":67,"x_max":708,"o":"m 365 0 q 146 99 225 0 q 67 369 67 199 q 106 563 67 481 q 215 690 144 644 q 382 736 286 736 q 497 717 447 736 q 600 654 547 699 l 604 718 l 708 718 l 708 1 q 375 -311 708 -311 q 232 -294 297 -311 q 110 -242 167 -278 l 149 -146 q 368 -207 238 -207 q 590 -6 590 -207 l 590 83 q 487 20 540 40 q 365 0 433 0 m 189 369 q 242 173 189 242 q 392 104 294 104 q 499 124 453 104 q 590 182 546 143 l 590 557 q 501 615 544 597 q 401 632 457 632 q 245 562 301 632 q 189 369 189 492 z "},"h":{"ha":801,"x_min":107,"x_max":700,"o":"m 107 0 l 107 1014 l 225 1014 l 225 649 q 332 715 278 693 q 450 736 386 736 q 700 472 700 736 l 700 0 l 582 0 l 582 458 q 432 631 582 631 q 319 610 367 631 q 225 550 272 590 l 225 0 l 107 0 z "},"i":{"ha":332,"x_min":89,"x_max":243,"o":"m 167 850 q 110 871 131 850 q 89 928 89 892 q 110 985 89 964 q 167 1006 131 1006 q 223 985 203 1006 q 243 928 243 964 q 223 871 243 892 q 167 850 203 850 m 107 0 l 107 718 l 225 718 l 225 0 l 107 0 z "},"j":{"ha":332,"x_min":-118,"x_max":243,"o":"m 167 850 q 110 871 131 850 q 89 928 89 892 q 110 985 89 964 q 167 1006 131 1006 q 223 985 203 1006 q 243 928 243 964 q 223 871 243 892 q 167 850 203 850 m 10 -311 q -118 -282 -58 -311 l -96 -186 q -1 -207 -50 -207 q 81 -177 56 -207 q 107 -79 107 -147 l 107 718 l 225 718 l 225 -90 q 10 -311 225 -311 z "},"k":{"ha":761,"x_min":107,"x_max":746,"o":"m 107 0 l 107 1014 l 225 1014 l 225 410 l 561 718 l 715 718 l 358 396 l 746 0 l 590 0 l 225 378 l 225 0 l 107 0 z "},"l":{"ha":332,"x_min":107,"x_max":225,"o":"m 107 0 l 107 1014 l 225 1014 l 225 0 l 107 0 z "},"m":{"ha":1218,"x_min":107,"x_max":1117,"o":"m 107 0 l 107 718 l 211 718 l 215 643 q 433 736 317 736 q 640 628 585 736 q 879 736 749 736 q 1117 472 1117 736 l 1117 0 l 999 0 l 999 458 q 861 631 999 631 q 754 609 799 631 q 665 547 710 588 q 671 472 671 513 l 671 0 l 553 0 l 553 458 q 415 631 553 631 q 311 610 354 631 q 225 553 268 590 l 225 0 l 107 0 z "},"n":{"ha":801,"x_min":107,"x_max":700,"o":"m 107 0 l 107 718 l 211 718 l 215 643 q 327 713 269 689 q 450 736 385 736 q 700 472 700 736 l 700 0 l 582 0 l 582 458 q 432 631 582 631 q 319 610 367 631 q 225 550 272 590 l 225 0 l 107 0 z "},"o":{"ha":811,"x_min":67,"x_max":744,"o":"m 406 -18 q 226 28 301 -18 q 108 159 150 74 q 67 360 67 244 q 108 560 67 475 q 226 690 150 644 q 406 736 301 736 q 585 690 510 736 q 703 560 661 644 q 744 360 744 475 q 703 159 744 244 q 585 28 661 74 q 406 -18 510 -18 m 406 86 q 566 156 510 86 q 622 360 622 226 q 566 562 622 492 q 406 632 510 632 q 246 562 303 632 q 189 360 189 492 q 246 156 189 226 q 406 86 303 86 z "},"p":{"ha":815,"x_min":107,"x_max":749,"o":"m 107 -293 l 107 718 l 211 718 l 215 643 q 324 714 269 692 q 450 736 379 736 q 669 635 589 736 q 749 360 749 533 q 710 161 749 246 q 600 29 671 76 q 433 -18 529 -18 q 323 -1 372 -18 q 225 56 274 15 l 225 -293 l 107 -293 m 425 632 q 315 610 361 632 q 225 549 268 588 l 225 161 q 315 103 271 121 q 414 86 358 86 q 570 158 514 86 q 626 360 626 231 q 574 562 626 492 q 425 632 522 632 z "},"q":{"ha":815,"x_min":67,"x_max":708,"o":"m 365 -18 q 146 83 225 -18 q 67 360 67 185 q 106 557 67 472 q 215 689 144 642 q 382 736 286 736 q 497 717 447 736 q 600 654 547 699 l 604 718 l 708 718 l 708 -293 l 590 -293 l 590 65 q 487 2 540 22 q 365 -18 433 -18 m 189 360 q 242 157 189 228 q 392 86 294 86 q 499 106 453 86 q 590 164 546 125 l 590 557 q 501 615 544 597 q 401 632 457 632 q 246 560 303 632 q 189 360 189 488 z "},"r":{"ha":524,"x_min":107,"x_max":506,"o":"m 107 0 l 107 718 l 211 718 l 217 624 q 446 731 322 731 q 474 729 457 731 q 506 725 490 728 l 494 608 q 459 614 478 613 q 421 615 440 615 q 315 594 361 615 q 225 529 269 572 l 225 0 l 107 0 z "},"s":{"ha":658,"x_min":61,"x_max":601,"o":"m 333 -18 q 187 -1 251 -18 q 61 51 122 15 l 97 144 q 204 97 150 113 q 328 82 258 82 q 483 194 483 82 q 472 242 483 222 q 428 278 461 263 q 331 310 394 293 l 292 319 q 128 395 175 349 q 82 524 82 442 q 154 680 82 624 q 349 736 226 736 q 476 722 421 736 q 585 674 531 707 l 549 582 q 454 623 501 610 q 343 636 407 636 q 235 608 275 636 q 196 531 196 579 q 207 484 196 503 q 249 451 218 465 q 342 421 281 436 l 381 411 q 552 333 503 381 q 601 201 601 285 q 528 41 601 100 q 333 -18 456 -18 z "},"t":{"ha":553,"x_min":21,"x_max":521,"o":"m 385 -12 q 214 44 269 -12 q 158 219 158 101 l 158 619 l 21 619 l 21 718 l 158 718 l 158 918 l 276 918 l 276 718 l 503 718 l 503 619 l 276 619 l 276 232 q 305 125 276 158 q 397 92 333 92 q 497 115 446 92 l 521 18 q 454 -5 489 3 q 385 -12 419 -12 z "},"u":{"ha":793,"x_min":101,"x_max":686,"o":"m 349 -18 q 101 240 101 -18 l 101 718 l 219 718 l 219 256 q 365 88 219 88 q 476 108 429 88 q 568 168 522 128 l 568 718 l 686 718 l 686 0 l 582 0 l 578 74 q 349 -18 472 -18 z "},"v":{"ha":724,"x_min":14,"x_max":710,"o":"m 301 0 l 14 718 l 143 718 l 364 133 l 586 718 l 710 718 l 422 0 l 301 0 z "},"w":{"ha":1049,"x_min":17,"x_max":1032,"o":"m 232 0 l 17 718 l 144 718 l 297 143 l 467 696 l 588 696 l 756 142 l 910 718 l 1032 718 l 817 0 l 696 0 l 525 564 l 353 0 l 232 0 z "},"x":{"ha":708,"x_min":14,"x_max":694,"o":"m 14 0 l 289 375 l 39 718 l 176 718 l 357 457 l 538 718 l 669 718 l 422 378 l 694 0 l 554 0 l 354 292 l 149 0 l 14 0 z "},"y":{"ha":724,"x_min":14,"x_max":710,"o":"m 139 -311 q 69 -304 99 -311 q 15 -282 39 -297 l 42 -187 q 81 -202 58 -197 q 133 -207 103 -207 q 220 -161 188 -207 q 286 -33 253 -115 l 303 8 l 14 718 l 143 718 l 367 140 l 586 718 l 710 718 l 404 -36 q 335 -183 369 -121 q 254 -278 300 -244 q 139 -311 208 -311 z "},"z":{"ha":657,"x_min":50,"x_max":607,"o":"m 50 0 l 50 89 l 454 619 l 67 619 l 67 718 l 597 718 l 597 631 l 194 99 l 607 99 l 607 0 l 50 0 z "},"{":{"ha":447,"x_min":53,"x_max":418,"o":"m 347 -190 q 258 -174 297 -190 q 191 -127 218 -157 q 150 -56 164 -97 q 136 33 136 -15 q 149 162 136 101 q 163 271 163 222 q 137 368 163 338 q 53 399 111 399 l 53 496 q 137 526 111 496 q 163 624 163 557 q 149 734 163 675 q 136 863 136 793 q 192 1023 136 961 q 347 1085 247 1085 l 418 1085 l 418 983 l 381 983 q 285 944 315 983 q 254 835 254 906 q 258 769 254 797 q 267 713 263 740 q 275 658 271 686 q 279 597 279 631 q 252 503 279 544 q 172 447 225 463 q 252 392 225 432 q 279 299 279 351 q 275 237 279 265 q 267 181 271 208 q 258 124 263 153 q 254 60 254 94 q 285 -50 254 -11 q 381 -89 315 -89 l 418 -89 l 418 -190 l 347 -190 z "},"|":{"ha":376,"x_min":129,"x_max":247,"o":"m 247 -293 l 129 -293 l 129 1032 l 247 1032 l 247 -293 z "},"}":{"ha":447,"x_min":29,"x_max":394,"o":"m 29 -89 l 68 -89 q 163 -50 132 -89 q 193 60 193 -11 q 189 124 193 94 q 181 181 185 153 q 172 237 176 208 q 168 299 168 265 q 195 392 168 351 q 275 447 222 432 q 196 503 224 463 q 168 597 168 544 q 172 658 168 631 q 181 713 176 686 q 189 769 185 740 q 193 835 193 797 q 163 944 193 906 q 68 983 132 983 l 29 983 l 29 1085 l 100 1085 q 256 1023 201 1085 q 311 863 311 961 q 298 734 311 793 q 285 624 285 675 q 310 526 285 557 q 394 496 336 496 l 394 399 q 310 368 336 399 q 285 271 285 338 q 298 162 285 222 q 311 33 311 101 q 297 -56 311 -15 q 255 -127 282 -97 q 189 -174 228 -157 q 100 -190 150 -190 l 29 -190 l 29 -89 z "},"~":{"ha":825,"x_min":83,"x_max":742,"o":"m 574 349 q 492 365 531 349 q 392 432 453 381 q 326 483 349 467 q 288 502 303 499 q 253 506 272 506 q 197 469 214 506 q 179 351 181 432 l 83 351 q 251 607 83 607 q 333 591 294 607 q 433 524 372 575 q 499 473 476 489 q 538 453 522 457 q 572 450 553 450 q 628 487 611 450 q 646 604 644 524 l 742 604 q 574 349 742 349 z "},"₩":{"ha":1321,"x_min":47,"x_max":1274,"o":"m 47 544 l 194 544 l 90 958 l 214 958 l 308 544 l 494 544 l 596 936 l 717 936 l 818 544 l 1004 544 l 1099 958 l 1218 958 l 1113 544 l 1274 544 l 1274 449 l 1088 449 l 974 0 l 856 0 l 739 449 l 568 449 l 453 0 l 333 0 l 219 449 l 47 449 l 47 544 m 396 161 l 469 449 l 331 449 l 396 161 m 917 164 l 982 449 l 843 449 l 917 164 m 593 544 l 714 544 l 654 776 l 593 544 z "},"‐":{"ha":1278,"x_min":436,"x_max":843,"o":"m 436 550 l 843 550 l 843 447 l 436 447 l 436 550 z "},"©":{"ha":1186,"x_min":74,"x_max":1113,"o":"m 593 -21 q 322 43 439 -21 q 139 222 204 107 q 74 486 74 336 q 139 750 74 636 q 321 928 204 864 q 593 993 438 993 q 865 928 749 993 q 1047 750 982 864 q 1113 486 1113 636 q 1047 222 1113 336 q 864 43 981 107 q 593 -21 747 -21 m 593 64 q 820 115 725 64 q 967 261 915 167 q 1019 486 1019 356 q 967 711 1019 617 q 820 857 915 806 q 593 908 725 908 q 366 857 461 908 q 219 711 271 806 q 167 486 167 617 q 219 261 167 356 q 366 115 271 167 q 593 64 461 64 m 615 192 q 405 269 479 192 q 331 486 331 346 q 406 699 331 618 q 619 779 481 779 q 801 725 728 779 l 763 644 q 697 675 728 667 q 626 683 667 683 q 440 486 440 683 q 625 288 440 288 q 700 297 667 288 q 771 329 733 306 l 810 249 q 615 192 729 192 z "},"　":{"ha":297,"x_min":0,"x_max":0,"o":""},"ㅤ":{"ha":297,"x_min":0,"x_max":0,"o":""},"、":{"ha":539,"x_min":63,"x_max":464,"o":"m 138 264 q 220 191 175 232 q 309 106 265 150 q 394 17 353 61 q 464 -62 435 -26 l 376 -144 q 309 -62 347 -107 q 228 27 271 -18 q 143 114 186 72 q 63 189 100 156 l 138 264 z "},"。":{"ha":539,"x_min":74,"x_max":465,"o":"m 268 -126 q 128 -75 182 -126 q 74 64 74 -24 q 88 140 74 106 q 128 200 103 175 q 190 239 154 225 q 268 253 225 253 q 348 239 311 253 q 410 200 385 225 q 451 140 436 175 q 465 64 465 106 q 410 -75 465 -24 q 268 -126 356 -126 m 268 -53 q 355 -22 324 -53 q 386 64 386 10 q 355 147 386 115 q 268 179 324 179 q 185 147 215 179 q 154 64 154 115 q 185 -22 154 10 q 268 -53 215 -53 z "},"·":{"ha":318,"x_min":78,"x_max":240,"o":"m 160 419 q 100 442 122 419 q 78 500 78 464 q 100 558 78 536 q 160 579 122 579 q 218 558 196 579 q 240 500 240 536 q 218 442 240 464 q 160 419 196 419 z "},"・":{"ha":318,"x_min":78,"x_max":240,"o":"m 160 419 q 100 442 122 419 q 78 500 78 464 q 100 558 78 536 q 160 579 122 579 q 218 558 196 579 q 240 500 240 536 q 218 442 240 464 q 160 419 196 419 z "},"‥":{"ha":1278,"x_min":326,"x_max":953,"o":"m 407 -64 q 349 -42 371 -64 q 326 17 326 -19 q 349 74 326 53 q 407 96 371 96 q 466 74 443 96 q 489 17 489 53 q 466 -42 489 -19 q 407 -64 443 -64 m 871 -64 q 813 -42 835 -64 q 790 17 790 -19 q 813 74 790 53 q 871 96 835 96 q 930 74 907 96 q 953 17 953 53 q 930 -42 953 -19 q 871 -64 907 -64 z "},"…":{"ha":1278,"x_min":143,"x_max":1135,"o":"m 224 419 q 165 442 188 419 q 143 500 143 464 q 165 558 143 536 q 224 579 188 579 q 283 558 261 579 q 306 500 306 536 q 283 442 306 464 q 224 419 261 419 m 639 419 q 581 442 603 419 q 558 500 558 464 q 581 558 558 536 q 639 579 603 579 q 698 558 675 579 q 721 500 721 536 q 698 442 721 464 q 639 419 675 419 m 1054 419 q 994 442 1017 419 q 972 500 972 464 q 994 558 972 536 q 1054 579 1017 579 q 1113 558 1090 579 q 1135 500 1135 536 q 1113 442 1135 464 q 1054 419 1090 419 z "},"⋯":{"ha":1278,"x_min":143,"x_max":1135,"o":"m 224 419 q 165 442 188 419 q 143 500 143 464 q 165 558 143 536 q 224 579 188 579 q 283 558 261 579 q 306 500 306 536 q 283 442 306 464 q 224 419 261 419 m 639 419 q 581 442 603 419 q 558 500 558 464 q 581 558 558 536 q 639 579 603 579 q 698 558 675 579 q 721 500 721 536 q 698 442 721 464 q 639 419 675 419 m 1054 419 q 994 442 1017 419 q 972 500 972 464 q 994 558 972 536 q 1054 579 1017 579 q 1113 558 1090 579 q 1135 500 1135 536 q 1113 442 1135 464 q 1054 419 1090 419 z "},"¨":{"ha":694,"x_min":117,"x_max":578,"o":"m 506 874 q 433 946 433 874 q 506 1017 433 1017 q 578 946 578 1017 q 506 874 578 874 m 189 874 q 117 946 117 874 q 189 1017 117 1017 q 261 946 261 1017 q 189 874 261 874 z "},"〃":{"ha":1278,"x_min":426,"x_max":838,"o":"m 478 694 l 597 694 l 524 238 l 426 238 l 478 694 m 719 694 l 838 694 l 761 238 l 665 238 l 719 694 z "},"­":{"ha":694,"x_min":0,"x_max":694,"o":"m 0 550 l 694 550 l 694 447 l 0 447 l 0 550 z "},"–":{"ha":694,"x_min":0,"x_max":694,"o":"m 0 550 l 694 550 l 694 447 l 0 447 l 0 550 z "},"—":{"ha":1389,"x_min":0,"x_max":1389,"o":"m 0 550 l 1389 550 l 1389 447 l 0 447 l 0 550 z "},"―":{"ha":1389,"x_min":0,"x_max":1389,"o":"m 0 550 l 1389 550 l 1389 447 l 0 447 l 0 550 z "},"‖":{"ha":611,"x_min":129,"x_max":482,"o":"m 129 -293 l 129 1032 l 247 1032 l 247 -293 l 129 -293 m 364 -293 l 364 1032 l 482 1032 l 482 -293 l 364 -293 z "},"＼":{"ha":1240,"x_min":321,"x_max":919,"o":"m 321 1078 l 440 1078 l 919 -197 l 800 -197 l 321 1078 z "},"∼":{"ha":1240,"x_min":286,"x_max":953,"o":"m 786 347 q 744 351 764 347 q 704 364 725 354 q 658 390 683 374 q 603 433 633 407 q 550 475 571 460 q 514 498 529 490 q 486 508 499 506 q 458 510 474 510 q 396 471 415 510 q 376 349 376 432 l 286 349 q 453 608 286 608 q 494 604 475 608 q 535 590 514 600 q 580 564 556 581 q 636 521 604 547 q 688 481 667 496 q 724 458 708 465 q 752 448 739 450 q 781 446 765 446 q 842 484 822 446 q 863 606 861 522 l 953 606 q 786 347 953 347 z "},"〜":{"ha":1240,"x_min":286,"x_max":953,"o":"m 786 347 q 744 351 764 347 q 704 364 725 354 q 658 390 683 374 q 603 433 633 407 q 550 475 571 460 q 514 498 529 490 q 486 508 499 506 q 458 510 474 510 q 396 471 415 510 q 376 349 376 432 l 286 349 q 453 608 286 608 q 494 604 475 608 q 535 590 514 600 q 580 564 556 581 q 636 521 604 547 q 688 481 667 496 q 724 458 708 465 q 752 448 739 450 q 781 446 765 446 q 842 484 822 446 q 863 606 861 522 l 953 606 q 786 347 953 347 z "},"～":{"ha":1240,"x_min":286,"x_max":953,"o":"m 786 347 q 744 351 764 347 q 704 364 725 354 q 658 390 683 374 q 603 433 633 407 q 550 475 571 460 q 514 498 529 490 q 486 508 499 506 q 458 510 474 510 q 396 471 415 510 q 376 349 376 432 l 286 349 q 453 608 286 608 q 494 604 475 608 q 535 590 514 600 q 580 564 556 581 q 636 521 604 547 q 688 481 667 496 q 724 458 708 465 q 752 448 739 450 q 781 446 765 446 q 842 484 822 446 q 863 606 861 522 l 953 606 q 786 347 953 347 z "},"‘":{"ha":318,"x_min":63,"x_max":264,"o":"m 63 675 q 97 918 63 808 q 190 1103 132 1028 l 264 1061 q 204 892 226 990 q 181 675 182 793 l 63 675 z "},"’":{"ha":318,"x_min":54,"x_max":256,"o":"m 256 1085 q 221 844 256 957 q 128 657 186 732 l 54 699 q 115 871 93 769 q 138 1085 136 972 l 256 1085 z "},"“":{"ha":553,"x_min":63,"x_max":499,"o":"m 63 675 q 97 918 63 808 q 190 1103 132 1028 l 264 1061 q 204 892 226 990 q 181 675 182 793 l 63 675 m 297 675 q 332 918 297 808 q 425 1103 367 1028 l 499 1061 q 439 892 461 990 q 415 675 417 793 l 297 675 z "},"”":{"ha":553,"x_min":54,"x_max":490,"o":"m 256 1085 q 221 844 256 957 q 128 657 186 732 l 54 699 q 115 871 93 769 q 138 1085 136 972 l 256 1085 m 490 1085 q 456 844 490 957 q 363 657 421 732 l 289 699 q 349 871 328 769 q 372 1085 371 972 l 490 1085 z "},"〔":{"ha":458,"x_min":122,"x_max":429,"o":"m 122 1085 l 429 1136 l 429 1032 l 240 1000 l 240 -106 l 429 -137 l 429 -242 l 122 -190 l 122 1085 z "},"〕":{"ha":458,"x_min":29,"x_max":336,"o":"m 29 -242 l 29 -137 l 218 -106 l 218 1000 l 29 1032 l 29 1136 l 336 1085 l 336 -190 l 29 -242 z "},"〈":{"ha":425,"x_min":60,"x_max":376,"o":"m 263 1085 l 376 1085 l 176 449 l 376 -190 l 263 -190 l 60 449 l 263 1085 z "},"〉":{"ha":425,"x_min":49,"x_max":365,"o":"m 163 -190 l 49 -190 l 249 449 l 49 1085 l 163 1085 l 365 449 l 163 -190 z "},"《":{"ha":629,"x_min":60,"x_max":588,"o":"m 263 1085 l 374 1085 l 175 447 l 374 -190 l 263 -190 l 60 447 l 263 1085 m 475 1085 l 588 1085 l 389 447 l 588 -190 l 475 -190 l 274 447 l 475 1085 z "},"》":{"ha":622,"x_min":42,"x_max":569,"o":"m 367 -190 l 256 -190 l 454 447 l 256 1085 l 367 1085 l 569 447 l 367 -190 m 154 -190 l 42 -190 l 242 447 l 42 1085 l 154 1085 l 356 447 l 154 -190 z "},"「":{"ha":458,"x_min":122,"x_max":443,"o":"m 122 1085 l 443 1085 l 443 983 l 240 983 l 240 321 l 122 321 l 122 1085 z "},"」":{"ha":458,"x_min":15,"x_max":336,"o":"m 336 -190 l 15 -190 l 15 -89 l 218 -89 l 218 553 l 336 553 l 336 -190 z "},"『":{"ha":508,"x_min":100,"x_max":493,"o":"m 100 1113 l 493 1113 l 493 940 l 290 940 l 290 279 l 100 279 l 100 1113 m 233 331 l 233 993 l 438 993 l 438 1060 l 157 1060 l 157 331 l 233 331 z "},"』":{"ha":508,"x_min":15,"x_max":408,"o":"m 408 -237 l 15 -237 l 15 -65 l 217 -65 l 217 600 l 408 600 l 408 -237 m 275 549 l 275 -118 l 71 -118 l 71 -185 l 351 -185 l 351 549 l 275 549 z "},"【":{"ha":479,"x_min":136,"x_max":450,"o":"m 450 1085 q 319 787 365 954 q 272 447 272 619 q 284 278 272 364 q 319 110 296 193 q 375 -49 342 28 q 450 -190 408 -125 l 136 -190 l 136 1085 l 450 1085 z "},"】":{"ha":479,"x_min":29,"x_max":343,"o":"m 343 -190 l 29 -190 q 104 -49 71 -125 q 160 110 138 28 q 195 278 183 193 q 207 447 207 364 q 160 787 207 619 q 29 1085 114 954 l 343 1085 l 343 -190 z "},"±":{"ha":825,"x_min":99,"x_max":726,"o":"m 361 519 l 99 519 l 99 617 l 361 617 l 361 807 l 464 807 l 464 617 l 726 617 l 726 519 l 464 519 l 464 329 l 361 329 l 361 519 m 99 249 l 726 249 l 726 151 l 99 151 l 99 249 z "},"×":{"ha":825,"x_min":103,"x_max":721,"o":"m 176 168 l 103 242 l 339 478 l 103 714 l 175 788 l 411 551 l 647 788 l 721 714 l 485 478 l 721 242 l 649 168 l 413 404 l 176 168 z "},"÷":{"ha":825,"x_min":100,"x_max":725,"o":"m 413 650 q 353 672 376 650 q 331 731 331 694 q 353 789 331 767 q 413 811 376 811 q 472 789 450 811 q 494 731 494 767 q 472 672 494 694 q 413 650 450 650 m 100 426 l 100 529 l 725 529 l 725 426 l 100 426 m 413 144 q 353 167 376 144 q 331 225 331 189 q 353 283 331 261 q 413 306 376 306 q 472 283 450 306 q 494 225 494 261 q 472 167 494 189 q 413 144 450 144 z "},"≠":{"ha":825,"x_min":97,"x_max":725,"o":"m 97 690 l 436 690 l 497 844 l 615 844 l 554 690 l 725 690 l 725 593 l 515 593 l 426 365 l 725 365 l 725 268 l 388 268 l 325 108 l 207 108 l 269 268 l 97 268 l 97 365 l 308 365 l 397 593 l 97 593 l 97 690 z "},"≤":{"ha":825,"x_min":99,"x_max":726,"o":"m 99 531 l 99 619 l 726 818 l 726 719 l 235 575 l 726 432 l 726 332 l 99 531 m 99 151 l 99 242 l 726 242 l 726 151 l 99 151 z "},"≥":{"ha":825,"x_min":99,"x_max":726,"o":"m 99 432 l 590 575 l 99 719 l 99 818 l 726 619 l 726 531 l 99 332 l 99 432 m 99 242 l 726 242 l 726 151 l 99 151 l 99 242 z "},"∞":{"ha":1379,"x_min":67,"x_max":1314,"o":"m 67 358 q 90 515 67 446 q 154 634 113 585 q 255 709 196 683 q 388 735 314 735 q 490 716 444 735 q 571 664 535 697 q 637 586 607 631 q 693 490 667 542 q 744 583 715 539 q 808 661 772 628 q 890 715 844 694 q 993 735 936 735 q 1122 710 1063 735 q 1223 638 1181 686 q 1290 520 1265 590 q 1314 357 1314 450 q 1291 200 1314 269 q 1226 82 1268 131 q 1125 8 1185 33 q 993 -18 1065 -18 q 893 0 938 -18 q 812 50 849 18 q 744 127 775 82 q 688 226 714 172 q 637 133 665 178 q 572 56 608 89 q 489 2 535 22 q 388 -18 443 -18 q 259 6 318 -18 q 158 78 200 31 q 91 195 115 125 q 67 358 67 265 m 186 358 q 241 157 186 229 q 388 85 296 85 q 473 108 435 85 q 541 167 511 131 q 592 249 571 203 q 629 340 614 294 q 578 460 604 407 q 525 551 553 514 q 463 610 497 589 q 388 631 429 631 q 237 558 288 631 q 186 358 186 485 m 751 376 q 801 258 776 311 q 854 165 826 204 q 916 106 882 126 q 992 85 950 85 q 1142 158 1092 85 q 1193 358 1193 232 q 1139 558 1193 486 q 993 631 1085 631 q 908 608 946 631 q 839 549 869 586 q 787 467 808 513 q 751 376 765 422 z "},"∴":{"ha":972,"x_min":154,"x_max":817,"o":"m 486 664 q 544 642 522 664 q 567 583 567 619 q 544 526 567 547 q 486 504 522 504 q 426 526 449 504 q 404 583 404 547 q 426 642 404 619 q 486 664 449 664 m 236 206 q 294 183 272 206 q 317 125 317 161 q 294 67 317 89 q 236 46 272 46 q 176 67 199 46 q 154 125 154 89 q 176 183 154 161 q 236 206 199 206 m 736 206 q 794 183 772 206 q 817 125 817 161 q 794 67 817 89 q 736 46 772 46 q 676 67 699 46 q 654 125 654 89 q 676 183 654 161 q 736 206 699 206 z "},"°":{"ha":606,"x_min":63,"x_max":543,"o":"m 303 499 q 178 529 232 499 q 93 614 124 560 q 63 739 63 668 q 129 908 63 843 q 303 972 196 972 q 476 908 410 972 q 543 739 543 843 q 513 614 543 668 q 428 529 482 560 q 303 499 374 499 m 303 582 q 405 624 367 582 q 443 739 443 667 q 405 849 443 808 q 303 889 367 889 q 201 849 239 889 q 163 739 163 808 q 201 624 163 667 q 303 582 239 582 z "},"′":{"ha":285,"x_min":76,"x_max":235,"o":"m 119 972 l 235 972 l 174 629 l 76 629 l 119 972 z "},"″":{"ha":524,"x_min":76,"x_max":474,"o":"m 119 972 l 235 972 l 174 629 l 76 629 l 119 972 m 358 972 l 474 972 l 413 629 l 317 629 l 358 972 z "},"℃":{"ha":1421,"x_min":63,"x_max":1374,"o":"m 1076 -8 q 760 118 872 -8 q 647 482 647 244 q 678 690 647 599 q 765 844 708 782 q 903 940 822 907 q 1086 972 985 972 q 1235 951 1165 972 q 1363 888 1306 931 l 1321 792 q 1089 863 1215 863 q 856 766 938 863 q 774 482 774 669 q 854 197 774 292 q 1082 101 935 101 q 1217 121 1157 101 q 1333 175 1278 140 l 1374 78 q 1242 15 1317 39 q 1076 -8 1167 -8 m 301 497 q 128 563 193 497 q 63 736 63 628 q 127 908 63 844 q 301 972 192 972 q 477 908 413 972 q 542 736 542 844 q 524 638 542 682 q 475 563 507 594 q 399 515 443 532 q 301 497 356 497 m 301 575 q 410 618 371 575 q 450 736 450 661 q 410 852 450 810 q 301 894 371 894 q 194 852 233 894 q 154 736 154 810 q 194 618 154 661 q 301 575 233 575 z "},"Å":{"ha":965,"x_min":19,"x_max":947,"o":"m 419 972 l 547 972 l 947 0 l 810 0 l 710 257 l 250 257 l 151 0 l 19 0 l 419 972 m 290 361 l 669 361 l 481 850 l 290 361 m 483 1054 q 370 1094 413 1054 q 328 1200 328 1133 q 370 1306 328 1265 q 483 1346 413 1346 q 597 1306 554 1346 q 640 1200 640 1265 q 597 1094 640 1133 q 483 1054 554 1054 m 483 1111 q 550 1135 526 1111 q 574 1200 574 1158 q 549 1264 574 1240 q 483 1288 525 1288 q 418 1264 443 1288 q 393 1200 393 1240 q 417 1135 393 1160 q 483 1111 442 1111 z "},"¢":{"ha":825,"x_min":108,"x_max":715,"o":"m 264 -50 l 307 140 q 108 488 108 219 q 150 684 108 600 q 274 815 192 768 q 474 861 356 861 l 511 1022 l 608 1022 l 569 853 q 704 799 646 839 l 665 708 q 549 753 603 743 l 425 218 q 478 215 450 215 q 580 227 535 215 q 678 267 625 239 l 715 178 q 471 113 614 113 q 399 117 433 113 l 361 -50 l 264 -50 m 229 488 q 335 249 229 311 l 453 757 q 229 488 229 743 z "},"£":{"ha":825,"x_min":78,"x_max":756,"o":"m 106 0 l 106 88 q 199 188 169 128 q 229 332 229 247 q 226 383 229 357 q 215 433 222 408 l 78 433 l 78 525 l 192 525 q 172 606 181 565 q 164 688 164 646 q 252 896 164 819 q 494 972 340 972 q 637 952 572 972 q 751 896 701 932 l 707 806 q 608 851 654 838 q 500 865 563 865 q 341 817 396 865 q 286 678 286 768 q 294 601 286 639 q 311 525 301 563 l 599 525 l 599 433 l 335 433 q 344 388 340 410 q 347 343 347 365 q 238 104 347 182 l 756 104 l 756 0 l 106 0 z "},"¥":{"ha":825,"x_min":-8,"x_max":832,"o":"m 99 160 l 99 251 l 351 251 l 351 382 l 99 382 l 99 474 l 297 474 l -8 954 l 132 954 l 414 493 l 696 954 l 832 954 l 526 474 l 726 474 l 726 382 l 472 382 l 472 251 l 726 251 l 726 160 l 472 160 l 472 0 l 351 0 l 351 160 l 99 160 z "},"♂":{"ha":1147,"x_min":64,"x_max":1047,"o":"m 960 740 l 774 553 q 830 446 810 504 q 850 321 850 388 q 820 169 850 239 q 738 49 790 100 q 613 -32 685 -3 q 457 -61 540 -61 q 301 -32 374 -61 q 176 49 229 -3 q 94 169 124 100 q 64 321 64 239 q 94 473 64 403 q 176 594 124 543 q 301 675 229 646 q 457 704 374 704 q 591 683 528 704 q 704 622 654 661 l 890 808 l 656 808 l 656 894 l 1047 894 l 1047 506 l 960 506 l 960 740 m 457 40 q 571 62 518 40 q 662 122 624 83 q 722 211 700 160 q 744 321 744 263 q 722 431 744 381 q 662 519 700 482 q 571 578 624 557 q 457 600 518 600 q 342 578 394 600 q 251 519 290 557 q 191 431 213 482 q 169 321 169 381 q 191 211 169 263 q 251 122 213 160 q 342 62 290 83 q 457 40 394 40 z "},"♀":{"ha":972,"x_min":79,"x_max":865,"o":"m 422 49 l 222 49 l 222 140 l 422 140 l 422 268 q 285 308 347 276 q 176 391 222 340 q 105 507 131 442 q 79 647 79 572 q 109 799 79 729 q 192 921 139 869 q 317 1001 244 972 q 474 1031 389 1031 q 628 1001 557 1031 q 753 921 700 972 q 835 799 806 869 q 865 647 865 729 q 840 506 865 572 q 768 390 814 440 q 659 308 722 340 q 522 268 596 276 l 522 140 l 724 140 l 724 49 l 522 49 l 522 -162 l 422 -162 l 422 49 m 474 367 q 587 388 535 367 q 677 448 639 410 q 737 538 715 486 q 758 647 758 589 q 737 758 758 707 q 677 846 715 808 q 587 905 639 883 q 474 926 535 926 q 359 905 411 926 q 268 846 307 883 q 208 758 229 808 q 186 647 186 707 q 208 538 186 589 q 268 448 229 486 q 359 388 307 410 q 474 367 411 367 z "},"∠":{"ha":949,"x_min":118,"x_max":831,"o":"m 118 107 l 118 186 l 676 797 l 756 719 l 283 208 l 831 208 l 831 107 l 118 107 z "},"⊥":{"ha":822,"x_min":25,"x_max":796,"o":"m 472 954 l 472 110 l 796 110 l 796 0 l 25 0 l 25 110 l 349 110 l 349 954 l 472 954 z "},"⌒":{"ha":1240,"x_min":264,"x_max":975,"o":"m 872 717 q 772 815 836 775 q 624 856 708 856 q 469 816 533 856 q 371 717 404 776 l 264 717 q 326 804 290 764 q 405 874 361 844 q 502 919 449 903 q 621 935 556 935 q 738 919 685 935 q 835 874 792 903 q 913 804 879 844 q 975 717 947 764 l 872 717 z "},"∂":{"ha":832,"x_min":71,"x_max":754,"o":"m 367 -18 q 247 4 301 -18 q 153 67 192 26 q 92 164 114 107 q 71 290 71 221 q 94 425 71 364 q 161 530 118 486 q 264 597 204 574 q 394 621 324 621 q 533 596 471 621 q 638 524 596 571 q 569 778 633 688 q 372 869 504 869 q 284 860 329 869 q 200 835 239 850 l 165 931 q 266 961 211 950 q 381 972 321 972 q 535 942 465 972 q 653 851 604 911 q 728 701 701 790 q 754 494 754 611 q 728 291 754 385 q 653 128 703 197 q 531 21 603 60 q 367 -18 458 -18 m 375 85 q 468 106 424 85 q 547 170 513 128 q 605 277 582 213 q 635 428 628 342 q 418 524 551 524 q 252 460 314 524 q 190 283 190 396 q 241 138 190 192 q 375 85 292 85 z "},"∇":{"ha":938,"x_min":19,"x_max":919,"o":"m 919 954 l 533 0 l 406 0 l 19 954 l 919 954 m 471 131 l 750 850 l 193 850 l 471 131 z "},"≡":{"ha":825,"x_min":96,"x_max":725,"o":"m 96 293 l 725 293 l 725 206 l 96 206 l 96 293 m 96 753 l 725 753 l 725 665 l 96 665 l 96 753 m 96 524 l 725 524 l 725 436 l 96 436 l 96 524 z "},"≒":{"ha":825,"x_min":96,"x_max":725,"o":"m 96 642 l 725 642 l 725 551 l 96 551 l 96 642 m 611 89 q 562 106 579 89 q 544 154 544 124 q 562 201 544 183 q 611 219 579 219 q 661 201 643 219 q 679 154 679 183 q 661 106 679 124 q 611 89 643 89 m 96 407 l 725 407 l 725 317 l 96 317 l 96 407 m 217 736 q 167 753 185 736 q 149 801 149 771 q 167 849 149 831 q 217 867 185 867 q 265 849 247 867 q 283 801 283 831 q 265 753 283 771 q 217 736 247 736 z "},"§":{"ha":747,"x_min":82,"x_max":689,"o":"m 374 -237 q 223 -221 289 -237 q 93 -168 157 -204 l 129 -76 q 240 -123 186 -108 q 368 -137 294 -137 q 539 -24 539 -137 q 528 33 539 11 q 490 74 518 56 q 407 113 461 92 l 269 167 q 123 256 164 208 q 82 382 82 303 q 238 588 82 517 q 149 664 175 621 q 124 771 124 707 q 200 933 124 874 q 404 993 276 993 q 528 978 474 993 q 636 931 583 964 l 601 840 q 508 881 554 868 q 399 893 461 893 q 280 863 324 893 q 236 778 236 832 q 247 724 236 744 q 285 687 257 704 q 369 649 314 669 l 503 597 q 649 509 608 557 q 689 383 689 461 q 536 175 689 246 q 628 95 601 140 q 654 -17 654 50 q 578 -178 654 -119 q 374 -237 503 -237 m 324 264 l 454 213 q 542 276 511 236 q 574 365 574 315 q 564 422 574 400 q 527 463 554 444 q 449 500 500 481 l 317 551 q 228 489 260 528 q 197 400 197 450 q 207 343 197 365 q 244 303 217 321 q 324 264 272 285 z "},"※":{"ha":1240,"x_min":79,"x_max":1161,"o":"m 79 -33 l 554 442 l 79 915 l 146 982 l 621 507 l 1094 982 l 1161 915 l 686 442 l 1161 -33 l 1094 -99 l 621 375 l 146 -99 l 79 -33 m 622 -99 q 565 -78 586 -99 q 543 -22 543 -58 q 565 35 543 14 q 622 56 586 56 q 678 35 657 56 q 700 -22 700 14 q 678 -78 700 -58 q 622 -99 657 -99 m 161 363 q 104 383 125 363 q 83 440 83 404 q 104 495 83 474 q 161 517 125 517 q 219 495 197 517 q 240 440 240 474 q 219 383 240 404 q 161 363 197 363 m 1079 363 q 1022 383 1043 363 q 1000 440 1000 404 q 1022 495 1000 474 q 1079 517 1043 517 q 1137 495 1115 517 q 1158 440 1158 474 q 1137 383 1158 404 q 1079 363 1115 363 m 622 824 q 565 844 586 824 q 543 900 543 864 q 565 957 543 936 q 622 978 586 978 q 678 957 657 978 q 700 900 700 936 q 678 844 700 864 q 622 824 657 824 z "},"☆":{"ha":1240,"x_min":17,"x_max":1224,"o":"m 364 314 l 17 597 l 463 621 l 624 1026 l 786 621 l 1224 597 l 879 314 l 994 -114 l 624 126 l 244 -114 l 364 314 m 622 213 l 878 46 l 799 342 l 1038 538 l 733 554 l 622 835 l 513 554 l 203 538 l 443 342 l 360 46 l 622 213 z "},"★":{"ha":1240,"x_min":17,"x_max":1224,"o":"m 1224 597 l 856 319 l 994 -114 l 624 150 l 244 -114 l 388 319 l 17 597 l 478 597 l 624 1026 l 769 597 l 1224 597 z "},"○":{"ha":1240,"x_min":113,"x_max":1128,"o":"m 621 -50 q 423 -10 515 -50 q 262 98 331 29 q 153 259 193 167 q 113 457 113 351 q 153 655 113 563 q 262 816 193 747 q 423 924 331 885 q 621 964 515 964 q 819 924 726 964 q 980 816 911 885 q 1088 655 1049 747 q 1128 457 1128 563 q 1088 259 1128 351 q 980 98 1049 167 q 819 -10 911 29 q 621 -50 726 -50 m 621 58 q 776 90 704 58 q 902 174 849 121 q 987 301 956 228 q 1018 457 1018 374 q 987 613 1018 540 q 902 739 956 685 q 776 824 849 793 q 621 854 704 854 q 465 824 538 854 q 338 739 392 793 q 253 613 285 685 q 222 457 222 540 q 253 301 222 374 q 338 174 285 228 q 465 90 392 121 q 621 58 538 58 z "},"●":{"ha":1240,"x_min":113,"x_max":1128,"o":"m 621 -50 q 423 -10 515 -50 q 262 98 331 29 q 153 259 193 167 q 113 457 113 351 q 153 655 113 563 q 262 816 193 747 q 423 924 331 885 q 621 964 515 964 q 819 924 726 964 q 980 816 911 885 q 1088 655 1049 747 q 1128 457 1128 563 q 1088 259 1128 351 q 980 98 1049 167 q 819 -10 911 29 q 621 -50 726 -50 z "},"◎":{"ha":1240,"x_min":113,"x_max":1128,"o":"m 621 -50 q 423 -10 515 -50 q 262 98 331 29 q 153 259 193 167 q 113 457 113 351 q 153 655 113 563 q 262 816 193 747 q 423 924 331 885 q 621 964 515 964 q 819 924 726 964 q 980 816 911 885 q 1088 655 1049 747 q 1128 457 1128 563 q 1088 259 1128 351 q 980 98 1049 167 q 819 -10 911 29 q 621 -50 726 -50 m 621 58 q 776 90 704 58 q 902 174 849 121 q 987 301 956 228 q 1018 457 1018 374 q 987 613 1018 540 q 902 739 956 685 q 776 824 849 793 q 621 854 704 854 q 465 824 538 854 q 338 739 392 793 q 253 613 285 685 q 222 457 222 540 q 253 301 222 374 q 338 174 285 228 q 465 90 392 121 q 621 58 538 58 m 621 256 q 541 271 578 256 q 477 313 504 286 q 435 377 450 340 q 419 457 419 414 q 435 537 419 500 q 477 601 450 574 q 541 643 504 628 q 621 658 578 658 q 699 643 663 658 q 763 601 736 628 q 806 537 790 574 q 822 457 822 500 q 806 377 822 414 q 763 313 790 340 q 699 271 736 286 q 621 256 663 256 m 621 349 q 698 380 667 349 q 729 457 729 411 q 698 534 729 503 q 621 565 667 565 q 542 534 574 565 q 511 457 511 503 q 542 380 511 411 q 621 349 574 349 z "},"◇":{"ha":1240,"x_min":17,"x_max":1224,"o":"m 17 458 l 621 1060 l 1224 457 l 621 -144 l 17 458 m 1072 457 l 621 908 l 168 458 l 621 6 l 1072 457 z "},"◆":{"ha":1240,"x_min":17,"x_max":1224,"o":"m 621 1060 l 1224 457 l 621 -144 l 17 458 l 621 1060 z "},"□":{"ha":1240,"x_min":142,"x_max":1099,"o":"m 142 935 l 1099 935 l 1099 -22 l 142 -22 l 142 935 m 993 85 l 993 829 l 249 829 l 249 85 l 993 85 z "},"■":{"ha":1240,"x_min":142,"x_max":1099,"o":"m 1099 935 l 1099 -22 l 142 -22 l 142 935 l 1099 935 z "},"△":{"ha":1240,"x_min":72,"x_max":1169,"o":"m 621 979 l 1169 -3 l 72 -3 l 621 979 m 990 96 l 621 758 l 251 96 l 990 96 z "},"▲":{"ha":1240,"x_min":72,"x_max":1169,"o":"m 621 981 l 1169 -1 l 72 -1 l 621 981 z "},"▽":{"ha":1240,"x_min":72,"x_max":1169,"o":"m 72 914 l 1169 914 l 621 -69 l 72 914 m 990 814 l 251 814 l 621 151 l 990 814 z "},"▼":{"ha":1240,"x_min":72,"x_max":1165,"o":"m 72 914 l 1165 914 l 619 -69 l 72 914 z "},"→":{"ha":1240,"x_min":100,"x_max":1174,"o":"m 731 194 l 972 436 l 100 436 l 100 542 l 972 542 l 731 783 l 806 858 l 1174 489 l 806 121 l 731 194 z "},"←":{"ha":1240,"x_min":67,"x_max":1140,"o":"m 67 489 l 435 858 l 511 783 l 268 542 l 1140 542 l 1140 436 l 268 436 l 511 194 l 435 121 l 67 489 z "},"↑":{"ha":1240,"x_min":251,"x_max":990,"o":"m 567 763 l 326 519 l 251 596 l 621 964 l 990 596 l 914 519 l 672 763 l 672 -110 l 567 -110 l 567 763 z "},"↓":{"ha":1240,"x_min":251,"x_max":990,"o":"m 251 257 l 326 335 l 567 90 l 567 964 l 672 964 l 672 90 l 914 335 l 990 257 l 621 -110 l 251 257 z "},"↔":{"ha":1240,"x_min":53,"x_max":1188,"o":"m 53 489 l 400 838 l 476 763 l 254 542 l 986 542 l 764 763 l 840 838 l 1188 489 l 840 139 l 764 214 l 986 435 l 254 435 l 476 214 l 400 139 l 53 489 z "},"〓":{"ha":1240,"x_min":178,"x_max":1061,"o":"m 178 276 l 178 393 l 1061 393 l 1061 276 l 178 276 m 178 557 l 178 674 l 1061 674 l 1061 557 l 178 557 z "},"«":{"ha":740,"x_min":64,"x_max":671,"o":"m 256 79 l 64 371 l 256 663 l 382 663 l 197 371 l 382 79 l 256 79 m 544 79 l 353 371 l 544 663 l 671 663 l 486 371 l 671 79 l 544 79 z "},"≪":{"ha":740,"x_min":64,"x_max":671,"o":"m 256 79 l 64 371 l 256 663 l 382 663 l 197 371 l 382 79 l 256 79 m 544 79 l 353 371 l 544 663 l 671 663 l 486 371 l 671 79 l 544 79 z "},"»":{"ha":740,"x_min":69,"x_max":676,"o":"m 196 79 l 69 79 l 254 371 l 69 663 l 196 663 l 388 371 l 196 79 m 485 79 l 358 79 l 543 371 l 358 663 l 485 663 l 676 371 l 485 79 z "},"≫":{"ha":740,"x_min":69,"x_max":676,"o":"m 196 79 l 69 79 l 254 371 l 69 663 l 196 663 l 388 371 l 196 79 m 485 79 l 358 79 l 543 371 l 358 663 l 485 663 l 676 371 l 485 79 z "},"√":{"ha":792,"x_min":7,"x_max":776,"o":"m 251 565 l 401 161 l 667 972 l 776 972 l 461 0 l 346 0 l 175 442 l 38 388 l 7 467 l 251 565 z "},"∽":{"ha":825,"x_min":79,"x_max":746,"o":"m 246 347 q 79 606 79 347 l 169 606 q 190 484 171 522 q 251 446 210 446 q 280 448 267 446 q 308 458 293 450 q 344 481 324 465 q 396 521 364 496 q 452 564 428 547 q 497 590 476 581 q 538 604 518 600 q 579 608 557 608 q 746 349 746 608 l 656 349 q 636 471 656 432 q 574 510 617 510 q 546 508 558 510 q 518 498 533 506 q 482 475 503 490 q 429 433 461 460 q 373 390 397 407 q 328 364 349 374 q 288 351 307 354 q 246 347 268 347 z "},"∝":{"ha":1263,"x_min":67,"x_max":1229,"o":"m 388 -18 q 259 6 318 -18 q 158 78 200 31 q 91 195 115 125 q 67 358 67 265 q 90 515 67 446 q 154 634 113 585 q 255 709 196 683 q 388 735 314 735 q 490 716 444 735 q 571 664 535 697 q 637 586 607 631 q 693 490 667 542 q 744 583 715 539 q 808 661 772 628 q 890 715 844 694 q 993 735 936 735 q 1126 708 1065 735 q 1229 638 1186 682 l 1163 554 q 1086 610 1131 589 q 993 631 1042 631 q 908 608 946 631 q 839 549 869 586 q 787 467 808 513 q 751 376 765 422 q 801 258 776 311 q 854 165 826 204 q 916 106 882 126 q 992 85 950 85 q 1088 107 1044 85 q 1164 163 1132 129 l 1228 79 q 1127 8 1186 35 q 993 -18 1068 -18 q 893 0 938 -18 q 812 50 849 18 q 744 127 775 82 q 688 226 714 172 q 637 133 665 178 q 572 56 608 89 q 489 2 535 22 q 388 -18 443 -18 m 388 85 q 473 108 435 85 q 541 167 511 131 q 592 249 571 203 q 629 340 614 294 q 578 460 604 407 q 525 551 553 514 q 463 610 497 589 q 388 631 429 631 q 237 558 288 631 q 186 358 186 485 q 241 157 186 229 q 388 85 296 85 z "},"∵":{"ha":972,"x_min":154,"x_max":817,"o":"m 486 71 q 426 93 449 71 q 404 151 404 115 q 426 209 404 188 q 486 231 449 231 q 544 209 522 231 q 567 151 567 188 q 544 93 567 115 q 486 71 522 71 m 236 529 q 176 551 199 529 q 154 610 154 574 q 176 667 154 646 q 236 689 199 689 q 294 667 272 689 q 317 610 317 646 q 294 551 317 574 q 236 529 272 529 m 736 529 q 676 551 699 529 q 654 610 654 574 q 676 667 654 646 q 736 689 699 689 q 794 667 772 689 q 817 610 817 646 q 794 551 817 574 q 736 529 772 529 z "},"∫":{"ha":679,"x_min":-40,"x_max":719,"o":"m 3 -179 q 56 -202 31 -196 q 108 -208 81 -208 q 204 -171 171 -208 q 246 -46 238 -133 l 315 761 q 563 1033 340 1033 q 645 1024 607 1033 q 719 992 683 1015 l 678 901 q 624 923 650 917 q 571 929 599 929 q 475 892 508 929 q 435 767 442 854 l 364 -40 q 290 -244 353 -178 q 117 -311 226 -311 q 34 -302 72 -311 q -40 -271 -4 -293 l 3 -179 z "},"∬":{"ha":1085,"x_min":-40,"x_max":1126,"o":"m 3 -179 q 56 -202 31 -196 q 108 -208 81 -208 q 204 -171 171 -208 q 246 -46 238 -133 l 315 761 q 563 1033 340 1033 q 645 1024 607 1033 q 719 992 683 1015 l 678 901 q 624 923 650 917 q 571 929 599 929 q 475 892 508 929 q 435 767 442 854 l 364 -40 q 290 -244 353 -178 q 117 -311 226 -311 q 34 -302 72 -311 q -40 -271 -4 -293 l 3 -179 m 408 -179 q 461 -202 436 -196 q 515 -208 486 -208 q 611 -171 578 -208 q 651 -46 644 -133 l 721 761 q 797 966 733 899 q 968 1033 860 1033 q 1051 1024 1013 1033 q 1126 992 1090 1015 l 1083 901 q 1030 923 1056 917 q 976 929 1004 929 q 881 892 914 929 q 840 767 847 854 l 769 -40 q 695 -244 758 -178 q 524 -311 632 -311 q 440 -302 479 -311 q 365 -271 401 -293 l 408 -179 z "},"∈":{"ha":825,"x_min":69,"x_max":735,"o":"m 176 432 q 240 306 188 349 q 382 264 292 264 l 735 264 l 735 169 l 388 169 q 153 249 236 169 q 69 476 69 329 q 153 704 69 624 q 388 785 238 785 l 735 785 l 735 690 l 382 690 q 240 648 293 690 q 176 522 188 606 l 735 522 l 735 432 l 176 432 z "},"∋":{"ha":825,"x_min":90,"x_max":756,"o":"m 90 522 l 649 522 q 585 648 638 606 q 443 690 532 690 l 90 690 l 90 785 l 438 785 q 672 704 588 785 q 756 476 756 624 q 672 249 756 329 q 438 169 589 169 l 90 169 l 90 264 l 443 264 q 585 306 532 264 q 649 432 638 349 l 90 432 l 90 522 z "},"⊆":{"ha":825,"x_min":86,"x_max":726,"o":"m 340 354 q 152 415 218 354 q 86 579 86 476 q 152 745 86 683 q 340 807 218 807 l 726 807 l 726 718 l 343 718 q 228 681 268 718 q 189 579 189 643 q 228 480 189 517 q 343 443 267 443 l 726 443 l 726 354 l 340 354 m 99 242 l 726 242 l 726 151 l 99 151 l 99 242 z "},"⊇":{"ha":825,"x_min":99,"x_max":739,"o":"m 99 354 l 99 443 l 482 443 q 598 480 560 443 q 636 579 636 517 q 597 681 636 643 q 482 718 558 718 l 99 718 l 99 807 l 485 807 q 673 745 607 807 q 739 579 739 683 q 673 415 739 476 q 485 354 607 354 l 99 354 m 99 151 l 99 242 l 726 242 l 726 151 l 99 151 z "},"⊂":{"ha":825,"x_min":74,"x_max":742,"o":"m 392 169 q 157 249 240 169 q 74 476 74 329 q 157 704 74 624 q 392 785 240 785 l 742 785 l 742 686 l 399 686 q 242 632 299 686 q 186 476 186 578 q 242 322 186 376 q 399 268 299 268 l 742 268 l 742 169 l 392 169 z "},"⊃":{"ha":825,"x_min":83,"x_max":751,"o":"m 83 268 l 426 268 q 583 322 526 268 q 639 476 639 376 q 583 632 639 578 q 426 686 526 686 l 83 686 l 83 785 l 433 785 q 668 704 585 785 q 751 476 751 624 q 668 249 751 329 q 433 169 585 169 l 83 169 l 83 268 z "},"∪":{"ha":975,"x_min":126,"x_max":849,"o":"m 489 -18 q 221 78 315 -18 q 126 350 126 175 l 126 954 l 244 954 l 244 339 q 308 151 244 217 q 489 86 371 86 q 669 151 607 86 q 731 339 731 215 l 731 954 l 849 954 l 849 350 q 755 78 849 175 q 489 -18 661 -18 z "},"∩":{"ha":975,"x_min":126,"x_max":849,"o":"m 126 604 q 221 876 126 779 q 489 972 315 972 q 755 876 661 972 q 849 604 849 779 l 849 0 l 731 0 l 731 615 q 669 803 731 739 q 489 868 607 868 q 308 803 371 868 q 244 615 244 738 l 244 0 l 126 0 l 126 604 z "},"∧":{"ha":871,"x_min":19,"x_max":851,"o":"m 382 964 l 488 964 l 851 0 l 729 0 l 435 811 l 140 0 l 19 0 l 382 964 z "},"∨":{"ha":871,"x_min":19,"x_max":851,"o":"m 19 964 l 140 964 l 435 153 l 729 964 l 851 964 l 488 0 l 382 0 l 19 964 z "},"⇒":{"ha":1240,"x_min":100,"x_max":1174,"o":"m 733 188 l 874 329 l 100 329 l 100 419 l 965 419 l 1036 489 l 965 560 l 100 560 l 100 650 l 874 650 l 733 790 l 804 860 l 1174 489 l 804 119 l 733 188 z "},"⇔":{"ha":1240,"x_min":40,"x_max":1200,"o":"m 40 489 l 408 860 l 481 790 l 339 650 l 901 650 l 760 790 l 832 860 l 1200 489 l 832 119 l 760 188 l 901 329 l 339 329 l 481 188 l 408 119 l 40 489 m 993 419 l 1063 489 l 993 560 l 247 560 l 178 489 l 247 419 l 993 419 z "},"∀":{"ha":938,"x_min":19,"x_max":919,"o":"m 533 0 l 406 0 l 19 954 l 156 954 l 253 697 l 689 697 l 788 954 l 919 954 l 533 0 m 471 124 l 650 593 l 293 593 l 471 124 z "},"∃":{"ha":972,"x_min":181,"x_max":793,"o":"m 793 0 l 181 0 l 181 107 l 669 107 l 669 426 l 208 426 l 208 533 l 669 533 l 669 847 l 197 847 l 197 954 l 793 954 l 793 0 z "},"´":{"ha":694,"x_min":247,"x_max":547,"o":"m 247 840 l 407 1053 l 547 1053 l 357 840 l 247 840 z "},"˜":{"ha":694,"x_min":94,"x_max":600,"o":"m 451 849 q 390 862 417 849 q 325 910 363 875 q 276 950 292 942 q 246 958 261 958 q 182 854 183 958 l 94 854 q 243 1044 97 1044 q 305 1031 278 1044 q 371 983 332 1018 q 419 944 404 953 q 449 935 433 935 q 497 960 482 935 q 513 1039 511 985 l 600 1039 q 451 849 597 849 z "},"ˇ":{"ha":694,"x_min":122,"x_max":572,"o":"m 572 1053 l 401 840 l 293 840 l 122 1053 l 232 1053 l 349 922 l 465 1053 l 572 1053 z "},"˘":{"ha":694,"x_min":138,"x_max":557,"o":"m 347 849 q 195 903 253 849 q 138 1044 138 958 l 228 1044 q 263 958 232 988 q 347 928 294 928 q 431 958 400 928 q 467 1044 463 988 l 557 1044 q 499 903 557 958 q 347 849 442 849 z "},"˝":{"ha":694,"x_min":79,"x_max":628,"o":"m 79 840 l 244 1053 l 379 1053 l 186 840 l 79 840 m 328 840 l 493 1053 l 628 1053 l 435 840 l 328 840 z "},"˚":{"ha":694,"x_min":197,"x_max":497,"o":"m 347 822 q 239 863 281 822 q 197 969 197 904 q 239 1074 197 1033 q 347 1115 281 1115 q 456 1074 414 1115 q 497 969 497 1033 q 456 863 497 904 q 347 822 414 822 m 347 883 q 406 906 383 883 q 428 969 428 929 q 406 1031 428 1008 q 347 1054 383 1054 q 289 1031 311 1054 q 267 969 267 1008 q 289 906 267 929 q 347 883 311 883 z "},"˙":{"ha":694,"x_min":276,"x_max":418,"o":"m 347 900 q 295 919 314 900 q 276 969 276 938 q 295 1020 276 1001 q 347 1039 314 1039 q 399 1020 379 1039 q 418 969 418 1001 q 399 919 418 938 q 347 900 379 900 z "},"¸":{"ha":694,"x_min":211,"x_max":508,"o":"m 344 -311 q 272 -305 304 -311 q 211 -286 240 -299 l 232 -219 q 279 -235 256 -231 q 335 -240 303 -240 q 397 -228 374 -240 q 419 -193 419 -217 q 335 -146 419 -146 q 269 -153 301 -146 l 315 21 l 390 21 l 361 -85 q 371 -85 365 -85 q 472 -113 436 -85 q 508 -194 508 -142 q 465 -281 508 -250 q 344 -311 422 -311 z "},"˛":{"ha":694,"x_min":196,"x_max":504,"o":"m 372 -311 q 244 -273 293 -311 q 196 -172 196 -235 q 206 -120 196 -146 q 231 -72 215 -94 q 269 -31 247 -50 q 314 0 290 -12 l 408 0 q 332 -67 364 -28 q 300 -146 300 -107 q 324 -205 300 -185 q 389 -225 349 -225 q 486 -206 439 -225 l 504 -286 q 443 -306 475 -300 q 372 -311 411 -311 z "},"¡":{"ha":336,"x_min":85,"x_max":251,"o":"m 168 561 q 108 585 131 561 q 85 646 85 608 q 108 708 85 685 q 168 731 131 731 q 228 708 206 731 q 251 646 251 685 q 228 585 251 608 q 168 561 206 561 m 103 -254 l 118 438 l 218 438 l 233 -254 l 103 -254 z "},"¿":{"ha":699,"x_min":67,"x_max":638,"o":"m 386 561 q 326 585 349 561 q 303 646 303 608 q 326 708 303 685 q 386 731 349 731 q 447 708 424 731 q 469 646 469 685 q 447 585 469 608 q 386 561 424 561 m 346 -275 q 141 -212 215 -275 q 67 -43 67 -150 q 82 59 67 17 q 131 137 97 101 q 215 213 164 172 q 287 274 261 249 q 322 326 313 299 q 332 397 332 354 l 332 438 l 440 438 l 440 399 q 428 298 440 339 q 383 222 415 257 q 289 139 350 186 q 212 60 235 97 q 189 -35 189 22 q 233 -135 189 -100 q 356 -171 276 -171 q 583 -86 476 -171 l 638 -171 q 497 -250 567 -225 q 346 -275 428 -275 z "},"ː":{"ha":472,"x_min":154,"x_max":317,"o":"m 236 71 q 176 93 199 71 q 154 151 154 115 q 176 209 154 188 q 236 231 199 231 q 294 209 272 231 q 317 151 317 188 q 294 93 317 115 q 236 71 272 71 m 236 529 q 176 551 199 529 q 154 610 154 574 q 176 667 154 646 q 236 689 199 689 q 294 667 272 689 q 317 610 317 646 q 294 551 317 574 q 236 529 272 529 z "},"∶":{"ha":472,"x_min":154,"x_max":317,"o":"m 236 71 q 176 93 199 71 q 154 151 154 115 q 176 209 154 188 q 236 231 199 231 q 294 209 272 231 q 317 151 317 188 q 294 93 317 115 q 236 71 272 71 m 236 529 q 176 551 199 529 q 154 610 154 574 q 176 667 154 646 q 236 689 199 689 q 294 667 272 689 q 317 610 317 646 q 294 551 317 574 q 236 529 272 529 z "},"∮":{"ha":917,"x_min":78,"x_max":839,"o":"m 121 -179 q 174 -202 149 -196 q 228 -208 199 -208 q 324 -171 290 -208 q 364 -46 357 -133 l 374 82 q 280 116 321 92 q 213 176 239 140 q 175 258 186 213 q 168 356 164 303 q 244 534 178 460 q 422 626 311 608 l 435 761 q 509 966 446 899 q 681 1033 572 1033 q 764 1024 725 1033 q 839 992 803 1015 l 796 901 q 743 923 768 917 q 689 929 718 929 q 593 892 626 929 q 553 767 560 854 l 542 626 q 703 534 649 608 q 749 356 758 460 q 671 175 739 250 q 493 82 603 100 l 482 -40 q 408 -244 471 -178 q 236 -311 344 -311 q 153 -302 192 -311 q 78 -271 114 -293 l 121 -179 m 646 356 q 622 478 653 426 q 528 544 592 529 l 493 164 q 600 232 561 181 q 646 356 639 283 m 269 356 q 293 232 263 283 q 388 164 324 181 l 421 544 q 315 478 354 529 q 269 356 276 426 z "},"∑":{"ha":844,"x_min":47,"x_max":775,"o":"m 47 -293 l 47 -187 l 478 372 l 82 853 l 82 954 l 768 954 l 768 849 l 235 849 l 597 411 l 597 335 l 194 -186 l 775 -186 l 775 -293 l 47 -293 z "},"∏":{"ha":938,"x_min":108,"x_max":828,"o":"m 108 954 l 828 954 l 828 -293 l 703 -293 l 703 843 l 233 843 l 233 -293 l 108 -293 l 108 954 z "},"¤":{"ha":825,"x_min":28,"x_max":797,"o":"m 100 60 l 28 124 l 158 267 q 90 478 90 351 q 158 689 90 604 l 28 832 l 100 896 l 231 753 q 413 800 308 800 q 594 753 517 800 l 725 896 l 797 832 l 667 689 q 735 478 735 604 q 667 267 735 351 l 797 124 l 725 60 l 594 203 q 413 156 517 156 q 231 203 308 156 l 100 60 m 413 257 q 565 316 508 257 q 621 478 621 375 q 565 640 621 581 q 413 699 508 699 q 260 640 317 699 q 204 478 204 581 q 260 316 204 375 q 413 257 317 257 z "},"℉":{"ha":1325,"x_min":63,"x_max":1283,"o":"m 706 954 l 1283 954 l 1283 847 l 828 847 l 828 517 l 1257 517 l 1257 410 l 828 410 l 828 0 l 706 0 l 706 954 m 301 497 q 128 563 193 497 q 63 736 63 628 q 127 908 63 844 q 301 972 192 972 q 477 908 413 972 q 542 736 542 844 q 524 638 542 682 q 475 563 507 594 q 399 515 443 532 q 301 497 356 497 m 301 575 q 410 618 371 575 q 450 736 450 661 q 410 852 450 810 q 301 894 371 894 q 194 852 233 894 q 154 736 154 810 q 194 618 154 661 q 301 575 233 575 z "},"‰":{"ha":1872,"x_min":51,"x_max":1821,"o":"m 364 0 l 842 954 l 947 954 l 469 0 l 364 0 m 1031 -14 q 861 60 921 -14 q 801 268 801 133 q 861 478 801 403 q 1031 553 921 553 q 1200 478 1140 553 q 1260 268 1260 403 q 1200 60 1260 133 q 1031 -14 1140 -14 m 1031 71 q 1161 268 1161 71 q 1031 468 1161 468 q 900 268 900 468 q 1031 71 900 71 m 1592 -14 q 1422 60 1482 -14 q 1363 268 1363 133 q 1422 478 1363 403 q 1592 553 1482 553 q 1761 478 1701 553 q 1821 268 1821 403 q 1761 60 1821 133 q 1592 -14 1701 -14 m 1592 71 q 1722 268 1722 71 q 1592 468 1722 468 q 1461 268 1461 468 q 1592 71 1461 71 m 281 401 q 111 475 171 401 q 51 683 51 549 q 111 893 51 818 q 281 968 171 968 q 450 893 390 968 q 510 683 510 818 q 450 475 510 549 q 281 401 390 401 m 281 486 q 411 683 411 486 q 281 883 411 883 q 150 683 150 883 q 281 486 150 486 z "},"◁":{"ha":1240,"x_min":75,"x_max":1057,"o":"m 75 457 l 1057 1006 l 1057 -93 l 75 457 m 947 826 l 285 457 l 947 86 l 947 826 z "},"◀":{"ha":1240,"x_min":75,"x_max":1057,"o":"m 75 457 l 1057 1006 l 1057 -93 l 75 457 z "},"▷":{"ha":1240,"x_min":183,"x_max":1165,"o":"m 183 1006 l 1165 457 l 183 -93 l 183 1006 m 956 457 l 293 826 l 293 86 l 956 457 z "},"▶":{"ha":1240,"x_min":183,"x_max":1165,"o":"m 183 1006 l 1165 457 l 183 -93 l 183 1006 z "},"♤":{"ha":1240,"x_min":143,"x_max":1097,"o":"m 469 -65 q 488 50 472 -10 q 536 171 503 110 l 528 178 q 435 129 482 146 q 346 113 388 113 q 263 128 300 113 q 199 171 226 143 q 158 237 172 199 q 143 319 143 275 q 176 447 143 378 q 270 599 208 517 q 421 777 332 681 q 621 986 510 874 q 820 777 732 874 q 970 599 908 681 q 1065 447 1032 517 q 1097 319 1097 378 q 1083 237 1097 275 q 1041 171 1068 199 q 977 128 1014 143 q 894 113 940 113 q 806 129 853 113 q 714 178 758 146 l 704 171 q 753 50 738 110 q 771 -65 768 -10 l 469 -65 m 700 -4 q 682 69 693 33 q 656 142 671 106 q 651 188 646 165 q 671 222 656 210 q 706 238 685 235 q 749 225 728 240 q 822 188 785 201 q 894 174 858 174 q 997 213 958 174 q 1036 319 1036 253 q 1014 412 1036 360 q 942 533 992 464 q 814 692 893 603 q 621 897 735 782 q 428 692 507 782 q 299 533 349 603 q 226 412 249 464 q 204 319 204 360 q 243 213 204 253 q 346 174 282 174 q 492 225 419 174 q 534 237 513 240 q 569 222 556 233 q 590 188 585 210 q 585 142 594 165 q 558 69 569 106 q 540 -4 547 33 l 700 -4 z "},"♠":{"ha":1240,"x_min":143,"x_max":1097,"o":"m 469 -65 q 488 50 472 -10 q 536 171 503 110 l 528 178 q 435 129 482 146 q 346 113 388 113 q 263 128 300 113 q 199 171 226 143 q 158 237 172 199 q 143 319 143 275 q 176 447 143 378 q 270 599 208 517 q 421 777 332 681 q 621 986 510 874 q 820 777 732 874 q 970 599 908 681 q 1065 447 1032 517 q 1097 319 1097 378 q 1083 237 1097 275 q 1041 171 1068 199 q 977 128 1014 143 q 894 113 940 113 q 806 129 853 113 q 714 178 758 146 l 704 171 q 753 50 738 110 q 771 -65 768 -10 l 469 -65 l 469 -65 z "},"♡":{"ha":1240,"x_min":100,"x_max":1140,"o":"m 621 -71 q 342 183 461 57 q 163 418 224 310 q 117 524 133 469 q 100 644 100 578 q 122 757 100 706 q 180 845 143 808 q 266 902 217 882 q 372 922 315 922 q 490 891 438 922 q 576 814 543 860 q 599 777 588 797 q 621 738 610 757 q 642 777 631 757 q 665 814 653 797 q 750 891 697 860 q 868 922 803 922 q 974 902 925 922 q 1060 845 1024 882 q 1119 757 1097 808 q 1140 644 1140 706 q 1124 524 1140 578 q 1078 418 1107 469 q 899 183 1017 310 q 621 -71 781 57 m 621 14 q 867 244 764 132 q 1022 450 969 356 q 1063 547 1050 501 q 1076 644 1076 592 q 1060 730 1076 690 q 1017 797 1044 769 q 951 841 989 825 q 868 857 913 857 q 781 835 819 857 q 710 771 743 814 q 672 715 688 743 q 640 657 656 688 l 600 657 q 569 715 585 688 q 531 771 553 743 q 459 835 497 814 q 372 857 421 857 q 290 841 328 857 q 224 797 251 825 q 181 730 196 769 q 165 644 165 690 q 178 546 165 592 q 218 450 190 500 q 376 242 272 354 q 621 14 479 131 z "},"♥":{"ha":1240,"x_min":100,"x_max":1140,"o":"m 621 -71 q 342 183 461 57 q 163 418 224 310 q 117 524 133 469 q 100 644 100 578 q 122 757 100 706 q 180 845 143 808 q 266 902 217 882 q 372 922 315 922 q 490 892 438 922 q 575 814 542 861 l 621 747 l 667 814 q 751 892 700 861 q 868 922 803 922 q 974 902 925 922 q 1060 845 1024 882 q 1119 757 1097 808 q 1140 644 1140 706 q 1124 524 1140 578 q 1078 418 1107 469 q 899 183 1018 310 q 621 -71 781 57 z "},"♧":{"ha":1240,"x_min":99,"x_max":1142,"o":"m 463 -65 q 483 48 467 -12 q 524 157 500 108 l 511 164 q 432 109 479 132 q 335 86 385 86 q 239 106 282 86 q 165 160 196 126 q 116 240 133 194 q 99 338 99 286 q 116 431 99 386 q 164 509 133 475 q 236 563 194 543 q 328 583 278 583 q 411 569 372 583 q 482 529 450 554 l 489 542 q 436 593 458 568 q 399 644 414 618 q 378 699 385 669 q 371 765 371 729 q 390 856 371 814 q 444 927 410 897 q 524 974 478 957 q 621 992 569 992 q 717 974 672 992 q 797 927 763 957 q 850 856 831 897 q 869 765 869 814 q 863 699 869 729 q 841 644 856 669 q 804 593 826 618 q 751 542 782 568 l 760 529 q 830 569 792 554 q 913 583 868 583 q 1004 563 963 583 q 1076 509 1046 543 q 1124 431 1107 475 q 1142 338 1142 386 q 1124 240 1142 286 q 1076 160 1107 194 q 1001 106 1044 126 q 907 86 958 86 q 808 109 856 86 q 729 164 761 132 l 718 157 q 757 48 740 108 q 778 -65 774 -12 l 463 -65 m 708 -7 q 690 62 701 26 q 663 132 678 97 q 689 207 643 175 q 732 223 710 222 q 772 206 754 224 q 838 161 801 176 q 907 146 875 146 q 976 160 944 146 q 1032 201 1008 175 q 1069 261 1056 226 q 1082 338 1082 296 q 1069 410 1082 376 q 1033 468 1056 443 q 978 508 1010 493 q 913 522 947 522 q 796 482 850 522 q 751 474 775 468 q 710 503 728 479 q 711 586 672 549 q 759 633 740 613 q 789 674 778 654 q 805 716 800 694 q 810 765 810 738 q 795 831 810 800 q 756 884 781 861 q 696 919 731 907 q 621 932 661 932 q 546 919 581 932 q 485 884 511 907 q 445 831 460 861 q 431 765 431 800 q 435 716 431 738 q 451 674 440 694 q 482 633 463 654 q 529 586 501 613 q 531 503 568 549 q 489 474 513 479 q 444 482 465 468 q 328 522 390 522 q 262 508 293 522 q 208 468 231 493 q 172 410 185 443 q 158 338 158 376 q 172 261 158 296 q 209 201 185 226 q 265 160 233 175 q 335 146 297 146 q 405 162 368 146 q 468 206 442 178 q 508 223 486 224 q 551 207 531 222 q 578 132 597 175 q 551 63 563 99 q 532 -7 539 26 l 708 -7 z "},"♣":{"ha":1240,"x_min":99,"x_max":1142,"o":"m 463 -65 q 483 48 467 -12 q 524 157 500 108 l 511 164 q 432 109 479 132 q 335 86 385 86 q 239 106 282 86 q 165 160 196 126 q 116 240 133 194 q 99 338 99 286 q 116 431 99 386 q 164 509 133 475 q 236 563 194 543 q 328 583 278 583 q 411 569 372 583 q 482 529 450 554 l 489 542 q 436 593 458 568 q 399 644 414 618 q 378 699 385 669 q 371 765 371 729 q 390 856 371 814 q 444 927 410 897 q 524 974 478 957 q 621 992 569 992 q 717 974 672 992 q 797 927 763 957 q 850 856 831 897 q 869 765 869 814 q 863 699 869 729 q 841 644 856 669 q 804 593 826 618 q 751 542 782 568 l 760 529 q 830 569 792 554 q 913 583 868 583 q 1004 563 963 583 q 1076 509 1046 543 q 1124 431 1107 475 q 1142 338 1142 386 q 1124 240 1142 286 q 1076 160 1107 194 q 1001 106 1044 126 q 907 86 958 86 q 808 109 856 86 q 729 164 761 132 l 718 157 q 757 48 740 108 q 778 -65 774 -12 l 463 -65 l 463 -65 z "},"⊙":{"ha":1240,"x_min":113,"x_max":1128,"o":"m 621 -50 q 423 -10 515 -50 q 262 98 331 29 q 153 259 193 167 q 113 457 113 351 q 153 655 113 563 q 262 816 193 747 q 423 924 331 885 q 621 964 515 964 q 819 924 726 964 q 980 816 911 885 q 1088 655 1049 747 q 1128 457 1128 563 q 1088 259 1128 351 q 980 98 1049 167 q 819 -10 911 29 q 621 -50 726 -50 m 621 58 q 776 90 704 58 q 902 174 849 121 q 987 301 956 228 q 1018 457 1018 374 q 987 613 1018 540 q 902 739 956 685 q 776 824 849 793 q 621 854 704 854 q 465 824 538 854 q 338 739 392 793 q 253 613 285 685 q 222 457 222 540 q 253 301 222 374 q 338 174 285 228 q 465 90 392 121 q 621 58 538 58 m 621 256 q 541 271 578 256 q 477 313 504 286 q 435 377 450 340 q 419 457 419 414 q 435 537 419 500 q 477 601 450 574 q 541 643 504 628 q 621 658 578 658 q 699 643 663 658 q 763 601 736 628 q 806 537 790 574 q 822 457 822 500 q 806 377 822 414 q 763 313 790 340 q 699 271 736 286 q 621 256 663 256 z "},"◉":{"ha":1240,"x_min":113,"x_max":1128,"o":"m 621 -50 q 423 -10 515 -50 q 262 98 331 29 q 153 259 193 167 q 113 457 113 351 q 153 655 113 563 q 262 816 193 747 q 423 924 331 885 q 621 964 515 964 q 819 924 726 964 q 980 816 911 885 q 1088 655 1049 747 q 1128 457 1128 563 q 1088 259 1128 351 q 980 98 1049 167 q 819 -10 911 29 q 621 -50 726 -50 m 621 58 q 776 90 704 58 q 902 174 849 121 q 987 301 956 228 q 1018 457 1018 374 q 987 613 1018 540 q 902 739 956 685 q 776 824 849 793 q 621 854 704 854 q 465 824 538 854 q 338 739 392 793 q 253 613 285 685 q 222 457 222 540 q 253 301 222 374 q 338 174 285 228 q 465 90 392 121 q 621 58 538 58 m 621 256 q 541 271 578 256 q 477 313 504 286 q 435 377 450 340 q 419 457 419 414 q 435 537 419 500 q 477 601 450 574 q 541 643 504 628 q 621 658 578 658 q 699 643 663 658 q 763 601 736 628 q 806 537 790 574 q 822 457 822 500 q 806 377 822 414 q 763 313 790 340 q 699 271 736 286 q 621 256 663 256 z "},"◈":{"ha":1240,"x_min":17,"x_max":1224,"o":"m 17 458 l 621 1060 l 1224 457 l 621 -144 l 17 458 m 1071 457 l 621 908 l 169 458 l 621 6 l 1071 457 m 407 458 l 621 671 l 833 457 l 621 244 l 407 458 z "},"▣":{"ha":1240,"x_min":142,"x_max":1099,"o":"m 142 935 l 1099 935 l 1099 -22 l 142 -22 l 142 935 m 993 85 l 993 829 l 249 829 l 249 85 l 993 85 m 444 632 l 796 632 l 796 282 l 444 282 l 444 632 z "},"◐":{"ha":1240,"x_min":113,"x_max":1128,"o":"m 621 -50 q 423 -10 515 -50 q 262 98 331 29 q 153 259 193 167 q 113 457 113 351 q 153 655 113 563 q 262 816 193 747 q 423 924 331 885 q 621 964 515 964 q 819 924 726 964 q 980 816 911 885 q 1088 655 1049 747 q 1128 457 1128 563 q 1088 259 1128 351 q 980 98 1049 167 q 819 -10 911 29 q 621 -50 726 -50 m 621 58 q 775 90 703 58 q 901 175 847 121 q 987 301 956 229 q 1018 457 1018 374 q 987 613 1018 540 q 901 738 956 685 q 775 823 847 792 q 621 854 703 854 l 621 58 z "},"◑":{"ha":1240,"x_min":113,"x_max":1128,"o":"m 621 -50 q 423 -10 515 -50 q 262 98 331 29 q 153 259 193 167 q 113 457 113 351 q 153 655 113 563 q 262 816 193 747 q 423 924 331 885 q 621 964 515 964 q 819 924 726 964 q 980 816 911 885 q 1088 655 1049 747 q 1128 457 1128 563 q 1088 259 1128 351 q 980 98 1049 167 q 819 -10 911 29 q 621 -50 726 -50 m 621 854 q 465 823 538 854 q 339 738 393 792 q 253 613 285 685 q 222 457 222 540 q 253 301 222 374 q 339 175 285 229 q 465 90 393 121 q 621 58 538 58 l 621 854 z "},"▒":{"ha":1240,"x_min":142,"x_max":1099,"o":"m 142 935 l 1099 935 l 1099 -22 l 142 -22 l 142 935 m 1043 33 l 1043 881 l 197 881 l 197 33 l 1043 33 m 268 69 q 244 79 254 69 q 235 104 235 89 q 244 126 235 117 q 268 135 254 135 q 299 104 299 135 q 290 79 299 89 q 268 69 282 69 m 386 69 q 361 79 371 69 q 351 104 351 89 q 361 126 351 117 q 386 135 371 135 q 407 126 397 135 q 417 104 417 117 q 407 79 417 89 q 386 69 397 69 m 268 189 q 244 198 254 189 q 235 222 235 207 q 244 242 235 233 q 268 251 254 251 q 290 242 282 251 q 299 222 299 233 q 268 189 299 189 m 386 189 q 351 222 351 189 q 361 242 351 233 q 386 251 371 251 q 407 242 397 251 q 417 222 417 233 q 407 198 417 207 q 386 189 397 189 m 501 69 q 479 79 488 69 q 471 104 471 89 q 501 135 471 135 q 525 126 517 135 q 533 104 533 117 q 525 79 533 89 q 501 69 517 69 m 268 306 q 244 315 254 306 q 235 338 235 324 q 244 362 235 353 q 268 371 254 371 q 299 338 299 371 q 290 315 299 324 q 268 306 282 306 m 501 189 q 471 222 471 189 q 479 242 471 233 q 501 251 488 251 q 525 242 517 251 q 533 222 533 233 q 501 189 533 189 m 386 306 q 361 315 371 306 q 351 338 351 324 q 386 371 351 371 q 407 362 397 371 q 417 338 417 353 q 407 315 417 324 q 386 306 397 306 m 621 69 q 598 79 608 69 q 588 104 588 89 q 598 126 588 117 q 621 135 608 135 q 651 104 651 135 q 643 79 651 89 q 621 69 635 69 m 268 425 q 244 435 254 425 q 235 457 235 444 q 244 479 235 471 q 268 488 254 488 q 299 457 299 488 q 290 435 299 444 q 268 425 282 425 m 621 189 q 598 198 608 189 q 588 222 588 207 q 598 242 588 233 q 621 251 608 251 q 643 242 635 251 q 651 222 651 233 q 621 189 651 189 m 501 306 q 479 315 488 306 q 471 338 471 324 q 501 371 471 371 q 533 338 533 371 q 525 315 533 324 q 501 306 517 306 m 386 425 q 361 435 371 425 q 351 457 351 444 q 386 488 351 488 q 407 479 397 488 q 417 457 417 471 q 407 435 417 444 q 386 425 397 425 m 739 69 q 715 79 724 69 q 707 104 707 89 q 715 126 707 117 q 739 135 724 135 q 763 126 754 135 q 771 104 771 117 q 763 79 771 89 q 739 69 754 69 m 268 543 q 244 551 254 543 q 235 575 235 560 q 244 599 235 590 q 268 608 254 608 q 290 599 282 608 q 299 575 299 590 q 268 543 299 543 m 621 306 q 598 315 608 306 q 588 338 588 324 q 598 362 588 353 q 621 371 608 371 q 651 338 651 371 q 643 315 651 324 q 621 306 635 306 m 501 425 q 479 435 488 425 q 471 457 471 444 q 501 488 471 488 q 533 457 533 488 q 525 435 533 444 q 501 425 517 425 m 739 189 q 707 222 707 189 q 715 242 707 233 q 739 251 724 251 q 763 242 754 251 q 771 222 771 233 q 739 189 771 189 m 386 543 q 351 575 351 543 q 361 599 351 590 q 386 608 371 608 q 407 599 397 608 q 417 575 417 590 q 407 551 417 560 q 386 543 397 543 m 857 69 q 834 79 843 69 q 825 104 825 89 q 857 135 825 135 q 889 104 889 135 q 881 79 889 89 q 857 69 872 69 m 268 661 q 244 670 254 661 q 235 692 235 679 q 244 716 235 707 q 268 725 254 725 q 290 716 282 725 q 299 692 299 707 q 290 670 299 679 q 268 661 282 661 m 621 425 q 598 435 608 425 q 588 457 588 444 q 598 479 588 471 q 621 488 608 488 q 651 457 651 488 q 643 435 651 444 q 621 425 635 425 m 974 69 q 951 79 960 69 q 943 104 943 89 q 974 135 943 135 q 998 126 989 135 q 1007 104 1007 117 q 998 79 1007 89 q 974 69 989 69 m 857 189 q 834 198 843 189 q 825 222 825 207 q 834 242 825 233 q 857 251 843 251 q 881 242 872 251 q 889 222 889 233 q 857 189 889 189 m 739 306 q 715 315 724 306 q 707 338 707 324 q 739 371 707 371 q 771 338 771 371 q 763 315 771 324 q 739 306 754 306 m 501 543 q 471 575 471 543 q 479 599 471 590 q 501 608 488 608 q 525 599 517 608 q 533 575 533 590 q 501 543 533 543 m 386 661 q 361 670 371 661 q 351 692 351 679 q 361 716 351 707 q 386 725 371 725 q 407 716 397 725 q 417 692 417 707 q 407 670 417 679 q 386 661 397 661 m 268 779 q 244 788 254 779 q 235 810 235 797 q 244 835 235 825 q 268 844 254 844 q 290 835 282 844 q 299 810 299 825 q 268 779 299 779 m 974 189 q 943 222 943 189 q 951 242 943 233 q 974 251 960 251 q 998 242 989 251 q 1007 222 1007 233 q 998 198 1007 207 q 974 189 989 189 m 386 779 q 361 788 371 779 q 351 810 351 797 q 361 835 351 825 q 386 844 371 844 q 407 835 397 844 q 417 810 417 825 q 407 788 417 797 q 386 779 397 779 m 857 306 q 834 315 843 306 q 825 338 825 324 q 834 362 825 353 q 857 371 843 371 q 889 338 889 371 q 881 315 889 324 q 857 306 872 306 m 739 425 q 715 435 724 425 q 707 457 707 444 q 739 488 707 488 q 771 457 771 488 q 763 435 771 444 q 739 425 754 425 m 621 543 q 598 551 608 543 q 588 575 588 560 q 598 599 588 590 q 621 608 608 608 q 643 599 635 608 q 651 575 651 590 q 621 543 651 543 m 501 661 q 479 670 488 661 q 471 692 471 679 q 479 716 471 707 q 501 725 488 725 q 525 716 517 725 q 533 692 533 707 q 525 670 533 679 q 501 661 517 661 m 974 306 q 951 315 960 306 q 943 338 943 324 q 974 371 943 371 q 998 362 989 371 q 1007 338 1007 353 q 998 315 1007 324 q 974 306 989 306 m 501 779 q 471 810 471 779 q 479 835 471 825 q 501 844 488 844 q 525 835 517 844 q 533 810 533 825 q 525 788 533 797 q 501 779 517 779 m 857 425 q 834 435 843 425 q 825 457 825 444 q 857 488 825 488 q 889 457 889 488 q 881 435 889 444 q 857 425 872 425 m 621 661 q 598 670 608 661 q 588 692 588 679 q 598 716 588 707 q 621 725 608 725 q 643 716 635 725 q 651 692 651 707 q 643 670 651 679 q 621 661 635 661 m 739 543 q 707 575 707 543 q 715 599 707 590 q 739 608 724 608 q 763 599 754 608 q 771 575 771 590 q 739 543 771 543 m 974 425 q 951 435 960 425 q 943 457 943 444 q 974 488 943 488 q 998 479 989 488 q 1007 457 1007 471 q 998 435 1007 444 q 974 425 989 425 m 621 779 q 598 788 608 779 q 588 810 588 797 q 598 835 588 825 q 621 844 608 844 q 643 835 635 844 q 651 810 651 825 q 621 779 651 779 m 857 543 q 834 551 843 543 q 825 575 825 560 q 834 599 825 590 q 857 608 843 608 q 881 599 872 608 q 889 575 889 590 q 857 543 889 543 m 739 661 q 715 670 724 661 q 707 692 707 679 q 715 716 707 707 q 739 725 724 725 q 763 716 754 725 q 771 692 771 707 q 763 670 771 679 q 739 661 754 661 m 974 543 q 943 575 943 543 q 951 599 943 590 q 974 608 960 608 q 998 599 989 608 q 1007 575 1007 590 q 998 551 1007 560 q 974 543 989 543 m 739 779 q 715 788 724 779 q 707 810 707 797 q 715 835 707 825 q 739 844 724 844 q 763 835 754 844 q 771 810 771 825 q 763 788 771 797 q 739 779 754 779 m 857 661 q 834 670 843 661 q 825 692 825 679 q 834 716 825 707 q 857 725 843 725 q 881 716 872 725 q 889 692 889 707 q 881 670 889 679 q 857 661 872 661 m 974 661 q 951 670 960 661 q 943 692 943 679 q 951 716 943 707 q 974 725 960 725 q 998 716 989 725 q 1007 692 1007 707 q 998 670 1007 679 q 974 661 989 661 m 857 779 q 825 810 825 779 q 834 835 825 825 q 857 844 843 844 q 881 835 872 844 q 889 810 889 825 q 857 779 889 779 m 974 779 q 943 810 943 779 q 951 835 943 825 q 974 844 960 844 q 998 835 989 844 q 1007 810 1007 825 q 998 788 1007 797 q 974 779 989 779 z "},"▤":{"ha":1240,"x_min":142,"x_max":1099,"o":"m 142 935 l 1099 935 l 1099 -22 l 142 -22 l 142 935 m 1043 33 l 1043 139 l 197 139 l 197 33 l 1043 33 m 1043 182 l 1043 288 l 197 288 l 197 182 l 1043 182 m 1043 331 l 1043 435 l 197 435 l 197 331 l 1043 331 m 1043 478 l 1043 583 l 197 583 l 197 478 l 1043 478 m 1043 626 l 1043 732 l 197 732 l 197 626 l 1043 626 m 1043 775 l 1043 881 l 197 881 l 197 775 l 1043 775 z "},"▥":{"ha":1240,"x_min":142,"x_max":1099,"o":"m 1099 935 l 1099 -22 l 142 -22 l 142 935 l 1099 935 m 197 33 l 301 33 l 301 881 l 197 881 l 197 33 m 346 33 l 450 33 l 450 881 l 346 881 l 346 33 m 493 33 l 599 33 l 599 881 l 493 881 l 493 33 m 642 33 l 747 33 l 747 881 l 642 881 l 642 33 m 790 33 l 896 33 l 896 881 l 790 881 l 790 33 m 939 33 l 1043 33 l 1043 881 l 939 881 l 939 33 z "},"▨":{"ha":1240,"x_min":142,"x_max":1099,"o":"m 142 -22 l 142 935 l 1099 935 l 1099 -22 l 142 -22 m 1043 203 l 874 33 l 1043 33 l 1043 203 m 1043 268 l 1043 419 l 658 33 l 810 33 l 1043 268 m 1043 483 l 1043 635 l 443 33 l 593 33 l 1043 483 m 1043 700 l 1043 850 l 228 33 l 379 33 l 1043 700 m 1008 881 l 857 881 l 197 218 l 197 67 l 1008 881 m 793 881 l 643 881 l 193 429 l 193 279 l 793 881 m 579 881 l 428 881 l 193 646 l 193 494 l 579 881 m 361 881 l 197 881 l 197 714 l 361 881 z "},"▧":{"ha":1240,"x_min":142,"x_max":1099,"o":"m 142 935 l 1099 935 l 1099 -22 l 142 -22 l 142 935 m 367 33 l 197 203 l 197 33 l 367 33 m 582 33 l 197 419 l 197 268 l 432 33 l 582 33 m 797 33 l 197 635 l 197 483 l 647 33 l 797 33 m 1013 33 l 197 850 l 197 700 l 861 33 l 1013 33 m 1043 218 l 383 881 l 232 881 l 1043 67 l 1043 218 m 1047 429 l 597 881 l 447 881 l 1047 279 l 1047 429 m 1047 646 l 813 881 l 663 881 l 1047 494 l 1047 646 m 1043 881 l 879 881 l 1043 714 l 1043 881 z "},"▦":{"ha":1240,"x_min":142,"x_max":1099,"o":"m 142 935 l 1099 935 l 1099 -22 l 142 -22 l 142 935 m 301 33 l 301 139 l 197 139 l 197 33 l 301 33 m 301 182 l 301 288 l 197 288 l 197 182 l 301 182 m 450 33 l 450 139 l 346 139 l 346 33 l 450 33 m 301 331 l 301 435 l 197 435 l 197 331 l 301 331 m 599 33 l 599 139 l 493 139 l 493 33 l 599 33 m 450 182 l 450 288 l 346 288 l 346 182 l 450 182 m 301 478 l 301 583 l 197 583 l 197 478 l 301 478 m 747 33 l 747 139 l 642 139 l 642 33 l 747 33 m 450 331 l 450 435 l 346 435 l 346 331 l 450 331 m 599 182 l 599 288 l 493 288 l 493 182 l 599 182 m 301 626 l 301 732 l 197 732 l 197 626 l 301 626 m 896 33 l 896 139 l 790 139 l 790 33 l 896 33 m 450 478 l 450 583 l 346 583 l 346 478 l 450 478 m 599 331 l 599 435 l 493 435 l 493 331 l 599 331 m 747 182 l 747 288 l 642 288 l 642 182 l 747 182 m 301 775 l 301 881 l 197 881 l 197 775 l 301 775 m 450 626 l 450 732 l 346 732 l 346 626 l 450 626 m 599 478 l 599 583 l 493 583 l 493 478 l 599 478 m 747 331 l 747 435 l 642 435 l 642 331 l 747 331 m 896 182 l 896 288 l 790 288 l 790 182 l 896 182 m 1043 33 l 1043 139 l 939 139 l 939 33 l 1043 33 m 599 626 l 599 732 l 493 732 l 493 626 l 599 626 m 747 478 l 747 583 l 642 583 l 642 478 l 747 478 m 896 331 l 896 435 l 790 435 l 790 331 l 896 331 m 450 775 l 450 881 l 346 881 l 346 775 l 450 775 m 1043 182 l 1043 288 l 939 288 l 939 182 l 1043 182 m 747 626 l 747 732 l 642 732 l 642 626 l 747 626 m 896 478 l 896 583 l 790 583 l 790 478 l 896 478 m 599 775 l 599 881 l 493 881 l 493 775 l 599 775 m 1043 331 l 1043 435 l 939 435 l 939 331 l 1043 331 m 896 626 l 896 732 l 790 732 l 790 626 l 896 626 m 747 775 l 747 881 l 642 881 l 642 775 l 747 775 m 1043 478 l 1043 583 l 939 583 l 939 478 l 1043 478 m 896 775 l 896 881 l 790 881 l 790 775 l 896 775 m 1043 626 l 1043 732 l 939 732 l 939 626 l 1043 626 m 1043 775 l 1043 881 l 939 881 l 939 775 l 1043 775 z "},"▩":{"ha":1240,"x_min":142,"x_max":1099,"o":"m 142 935 l 1099 935 l 1099 -22 l 142 -22 l 142 935 m 367 33 l 299 104 l 228 33 l 367 33 m 265 136 l 197 203 l 197 67 l 265 136 m 372 243 l 299 319 l 222 243 l 299 168 l 372 243 m 482 136 l 404 211 l 331 136 l 406 60 l 482 136 m 582 33 l 514 104 l 443 33 l 582 33 m 265 351 l 197 419 l 197 283 l 265 351 m 481 350 l 404 426 l 329 351 l 404 276 l 481 350 m 588 243 l 513 318 l 438 243 l 513 168 l 588 243 m 372 460 l 299 533 l 222 460 l 297 383 l 372 460 m 696 136 l 621 210 l 546 136 l 621 60 l 696 136 m 797 33 l 728 104 l 658 33 l 797 33 m 265 567 l 197 635 l 197 499 l 265 567 m 696 350 l 621 426 l 544 350 l 621 275 l 696 350 m 588 460 l 513 535 l 438 460 l 513 382 l 588 460 m 481 568 l 404 642 l 329 567 l 404 492 l 481 568 m 372 674 l 299 750 l 222 674 l 299 599 l 372 674 m 804 243 l 728 318 l 653 243 l 728 168 l 804 243 m 911 136 l 836 211 l 761 136 l 836 60 l 911 136 m 1013 33 l 944 104 l 874 33 l 1013 33 m 264 783 l 197 850 l 197 714 l 264 783 m 361 881 l 232 881 l 297 815 l 361 881 m 1043 203 l 976 136 l 1043 67 l 1043 203 m 804 460 l 728 535 l 653 460 l 728 382 l 804 460 m 911 351 l 836 426 l 761 350 l 836 276 l 911 351 m 588 675 l 513 750 l 438 674 l 513 600 l 588 675 m 696 568 l 621 643 l 544 568 l 621 492 l 696 568 m 482 782 l 406 857 l 331 782 l 404 707 l 482 782 m 1019 243 l 944 319 l 868 243 l 944 168 l 1019 243 m 579 881 l 447 881 l 514 814 l 579 881 m 1043 419 l 976 351 l 1043 283 l 1043 419 m 804 674 l 728 750 l 653 675 l 728 600 l 804 674 m 911 567 l 836 642 l 761 568 l 836 492 l 911 567 m 1019 460 l 944 533 l 868 460 l 944 383 l 1019 460 m 696 782 l 621 857 l 546 782 l 621 707 l 696 782 m 793 881 l 663 881 l 728 814 l 793 881 m 1043 635 l 976 567 l 1043 499 l 1043 635 m 911 782 l 836 857 l 761 782 l 836 707 l 911 782 m 1019 674 l 944 750 l 868 674 l 944 599 l 1019 674 m 1008 881 l 879 881 l 944 815 l 1008 881 m 1043 850 l 976 783 l 1043 714 l 1043 850 z "},"♨":{"ha":1240,"x_min":93,"x_max":1146,"o":"m 1146 201 q 1103 83 1146 135 q 990 -3 1061 32 q 825 -57 919 -39 q 626 -75 731 -75 q 408 -59 507 -75 q 240 -11 310 -43 q 131 69 169 21 q 93 179 93 117 q 118 264 93 226 q 183 328 143 301 q 272 373 222 356 q 368 399 321 390 l 371 374 q 303 349 335 364 q 247 315 271 335 q 210 270 224 294 q 196 218 196 246 q 226 155 196 185 q 313 103 257 125 q 448 69 369 82 q 621 57 526 57 q 795 70 714 57 q 937 107 876 83 q 1031 163 997 131 q 1065 233 1065 196 q 1052 285 1065 261 q 1017 326 1039 308 q 969 357 996 344 q 914 375 942 369 l 918 396 q 987 379 947 393 q 1062 340 1026 365 q 1122 280 1097 315 q 1146 201 1146 244 m 525 413 q 510 323 525 363 q 476 249 494 283 q 442 181 458 214 q 424 113 425 149 l 397 113 q 390 139 394 122 q 386 176 386 156 q 392 226 386 201 q 406 277 399 250 q 420 337 414 304 q 426 410 426 369 q 419 483 426 456 q 402 535 411 511 q 385 587 393 560 q 378 656 378 614 q 388 743 378 708 q 413 807 399 778 q 442 865 428 836 q 465 933 457 893 l 485 935 q 490 911 488 925 q 492 876 492 897 q 479 778 492 824 q 467 701 467 733 q 476 630 467 664 q 496 562 485 596 q 516 492 507 528 q 525 413 525 456 m 715 425 q 697 332 715 376 q 655 247 678 288 q 613 170 632 207 q 594 100 594 133 l 569 99 q 562 124 565 110 q 558 160 558 139 q 566 222 558 196 q 582 272 574 247 q 598 326 590 297 q 606 396 606 354 q 597 485 606 449 q 576 553 588 522 q 556 615 565 585 q 547 688 547 646 q 561 774 547 738 q 592 843 575 810 q 622 911 608 876 q 636 993 636 946 l 656 996 q 670 948 664 978 q 676 882 676 918 q 672 827 676 850 q 660 785 667 804 q 649 746 654 765 q 644 700 644 726 q 656 631 644 664 q 680 564 667 597 q 704 497 693 531 q 715 425 715 463 m 889 438 q 869 333 889 378 q 825 249 849 288 q 781 176 801 211 q 761 104 761 142 l 736 104 q 728 157 728 122 q 738 228 728 199 q 760 288 749 258 q 783 354 772 318 q 793 443 793 390 q 785 507 793 481 q 766 559 776 533 q 747 613 756 585 q 739 682 739 642 q 747 751 739 722 q 766 806 756 781 q 785 860 776 832 q 793 926 793 889 l 811 929 q 826 885 819 914 q 833 815 833 857 q 829 756 833 786 q 825 701 825 725 q 835 632 825 665 q 857 567 844 599 q 879 503 869 535 q 889 438 889 471 z "},"☏":{"ha":1240,"x_min":38,"x_max":1204,"o":"m 176 13 q 135 22 142 13 q 129 64 129 32 q 136 111 129 88 q 158 140 143 135 q 179 270 158 215 q 253 369 200 325 q 294 404 275 388 q 328 440 313 421 q 357 489 344 461 q 378 547 369 517 q 392 607 388 576 q 397 663 397 638 q 396 688 397 675 q 393 713 394 700 q 380 712 386 713 q 367 710 374 711 q 319 661 319 701 q 330 617 319 644 q 340 571 340 590 q 314 529 340 549 q 250 495 288 510 q 171 472 213 481 q 97 464 129 464 q 49 481 61 464 q 38 538 38 497 q 50 622 38 579 q 86 693 63 665 q 181 770 121 739 q 315 821 242 801 q 467 849 388 840 q 621 858 547 858 q 773 849 694 858 q 924 820 851 840 q 1058 769 997 800 q 1154 693 1118 738 q 1191 622 1178 665 q 1204 538 1204 579 q 1192 481 1204 497 q 1143 464 1179 464 q 1069 472 1111 464 q 990 495 1028 481 q 926 529 953 510 q 900 571 900 549 q 911 617 900 590 q 922 661 922 644 q 874 710 922 703 q 861 712 867 711 q 849 713 856 713 q 844 663 844 688 q 849 608 844 638 q 863 547 854 578 q 885 489 872 517 q 914 440 899 461 q 947 404 929 421 q 988 369 965 388 q 1061 270 1040 325 q 1082 140 1082 215 q 1104 111 1097 135 q 1111 64 1111 88 q 1105 22 1111 32 q 1064 13 1099 13 l 176 13 m 1051 56 q 1058 64 1057 56 q 1060 83 1060 72 q 1054 121 1060 101 q 1036 147 1049 140 q 1016 261 1036 211 q 949 351 996 311 q 913 385 932 367 q 883 417 894 403 q 825 534 843 467 q 807 667 807 601 q 808 690 807 679 q 810 711 808 701 l 753 711 l 753 593 l 489 593 l 489 711 l 431 711 q 432 690 432 701 q 432 667 432 679 q 415 534 432 601 q 357 417 397 467 q 327 385 346 403 q 293 351 308 367 q 204 147 204 275 q 187 121 192 140 q 182 83 182 101 q 183 64 182 72 q 189 56 185 56 l 1051 56 m 621 100 q 535 117 575 100 q 465 165 494 135 q 417 234 435 194 q 400 318 400 274 q 417 405 400 364 q 465 476 435 446 q 535 523 496 506 q 621 540 575 540 q 706 523 665 540 q 776 476 746 506 q 823 405 806 446 q 840 318 840 364 q 823 234 840 274 q 776 165 806 194 q 706 117 746 135 q 621 100 667 100 m 115 507 q 171 513 139 507 q 231 530 203 519 q 279 553 260 540 q 299 581 299 567 q 290 619 299 596 q 281 661 281 642 q 295 705 281 688 q 336 733 310 722 q 398 748 363 743 q 474 753 433 753 q 535 746 496 753 q 579 738 561 740 q 621 735 597 735 q 662 738 643 735 q 707 746 681 740 q 740 751 724 749 q 767 753 756 753 q 843 748 808 753 q 904 733 878 743 q 945 705 931 722 q 960 661 960 688 q 951 619 960 642 q 942 581 942 596 q 962 553 942 567 q 1010 530 982 540 q 1071 513 1039 519 q 1126 507 1103 507 q 1157 513 1150 507 q 1165 547 1164 519 q 1144 640 1168 594 q 1079 718 1119 686 q 991 767 1046 746 q 873 801 936 788 q 744 820 810 814 q 621 826 678 826 q 497 819 563 826 q 369 799 432 813 q 251 765 306 785 q 163 718 197 744 q 97 641 121 688 q 75 547 74 594 q 83 513 76 519 q 115 507 90 507 m 621 144 q 690 158 658 144 q 746 194 722 171 q 783 250 769 218 q 797 318 797 282 q 784 386 797 354 q 747 442 771 418 q 690 481 722 467 q 621 494 658 494 q 551 481 583 494 q 494 442 518 467 q 456 386 469 418 q 443 318 443 354 q 457 250 443 282 q 494 194 471 218 q 551 158 518 171 q 621 144 583 144 m 714 629 l 714 710 q 669 702 693 707 q 621 697 644 697 q 572 702 596 697 q 526 710 547 707 l 526 629 l 714 629 z "},"☎":{"ha":1240,"x_min":39,"x_max":1203,"o":"m 818 319 q 803 397 818 361 q 760 460 788 433 q 697 503 733 488 q 621 518 661 518 q 543 503 579 518 q 480 460 507 488 q 438 397 453 433 q 422 319 422 361 q 438 242 422 278 q 480 181 453 207 q 543 139 507 154 q 621 124 579 124 q 697 139 661 124 q 760 181 733 154 q 803 242 788 207 q 818 319 818 278 m 725 718 q 678 710 706 714 q 621 706 650 706 q 563 710 590 706 q 515 718 535 714 l 515 632 l 725 632 l 725 718 m 1190 482 q 1163 464 1182 468 q 1119 463 1144 460 q 1067 472 1094 465 q 1014 486 1039 479 q 938 516 972 497 q 899 558 904 535 q 899 583 896 568 q 908 612 903 597 q 918 641 914 626 q 921 665 922 656 q 893 702 914 693 q 847 715 872 711 q 843 645 843 683 q 861 543 843 607 q 883 483 871 508 q 912 438 896 457 q 947 401 928 418 q 986 368 965 385 q 1038 308 1019 340 q 1066 246 1057 276 q 1077 188 1075 215 q 1079 140 1079 160 q 1097 124 1090 136 q 1106 96 1103 111 q 1109 64 1108 81 q 1108 33 1110 47 q 1094 16 1107 21 q 1063 11 1082 11 l 178 11 q 146 16 158 11 q 132 33 133 21 q 131 64 131 47 q 135 96 132 81 q 144 124 138 111 q 161 140 150 136 q 163 188 161 160 q 174 246 165 215 q 203 308 183 276 q 256 368 222 340 q 294 401 276 385 q 328 438 313 418 q 357 483 344 457 q 379 543 369 508 q 397 645 396 607 q 393 715 397 683 q 347 702 368 711 q 319 665 325 693 q 321 641 317 656 q 331 612 325 626 q 340 583 336 597 q 342 558 344 568 q 302 516 336 535 q 226 486 268 497 q 174 472 201 479 q 121 463 146 465 q 77 465 96 461 q 50 482 58 468 q 40 521 42 496 q 43 576 39 546 q 58 638 47 607 q 88 692 69 668 q 178 765 121 735 q 306 815 235 796 q 458 844 378 835 q 621 854 539 854 q 782 844 701 854 q 934 815 863 835 q 1063 765 1006 796 q 1153 692 1119 733 q 1183 638 1171 668 q 1199 577 1194 607 q 1201 522 1203 547 q 1190 482 1199 496 z "},"☜":{"ha":1240,"x_min":63,"x_max":1139,"o":"m 1035 257 l 1035 286 l 996 286 q 906 243 960 264 q 764 211 853 222 q 703 206 739 207 q 629 204 667 204 q 557 206 592 204 q 500 211 522 207 q 453 224 475 214 q 424 257 431 233 q 427 283 421 272 q 444 300 433 293 q 409 313 425 300 q 393 346 393 325 q 396 370 392 361 q 407 388 400 379 q 374 399 389 390 q 358 432 358 408 q 385 475 358 463 q 471 488 411 488 l 467 497 q 408 499 435 499 q 356 501 382 500 q 300 503 329 501 q 233 507 271 504 q 174 510 204 508 q 118 517 143 511 q 78 534 93 522 q 63 567 63 546 q 75 594 63 585 q 109 608 88 603 q 160 616 131 614 q 225 621 190 618 q 285 624 243 622 q 383 626 328 625 q 499 627 438 626 q 618 628 561 628 q 706 627 661 628 q 794 619 751 626 q 876 594 836 611 q 953 546 917 578 q 1036 538 1000 535 l 1036 582 l 1139 582 l 1139 257 l 1035 257 m 1036 514 q 1007 514 1025 513 q 975 518 989 515 q 979 507 978 508 q 979 492 982 493 q 968 500 976 492 q 938 531 957 514 q 889 568 918 547 q 833 590 868 582 q 760 603 797 599 q 688 608 722 607 q 636 606 654 608 q 591 594 617 603 q 544 572 565 585 q 528 556 535 565 q 515 535 522 546 q 503 515 510 524 q 488 501 497 507 q 492 490 483 494 q 532 494 501 485 q 557 509 546 500 q 576 526 568 518 q 589 538 583 533 q 597 539 594 543 q 592 518 604 533 q 620 512 603 514 q 649 513 638 510 q 690 531 676 521 q 707 535 704 540 q 703 519 710 529 q 686 503 697 510 q 723 469 694 492 q 796 432 751 447 q 845 419 822 422 q 885 413 868 415 q 911 409 901 411 q 921 401 921 407 q 908 396 921 397 q 878 396 896 394 q 840 401 860 397 q 803 408 819 404 q 710 456 744 428 q 665 500 676 485 q 649 495 658 496 q 632 494 640 494 q 598 499 613 496 q 576 504 583 501 l 554 488 q 615 478 590 488 q 644 453 640 469 q 644 419 650 433 q 628 396 639 404 q 671 357 668 388 q 668 330 674 339 q 651 314 663 321 q 694 275 690 303 q 688 244 697 256 q 676 229 679 232 q 725 229 697 225 q 895 263 832 239 q 1001 315 958 288 q 1009 319 1006 319 q 1011 314 1013 319 l 1008 303 l 1036 303 l 1036 514 m 565 606 q 408 604 499 606 q 226 600 318 603 q 122 592 160 597 q 85 567 85 588 q 117 539 85 544 q 226 531 149 533 q 368 523 311 526 q 482 518 425 519 q 511 563 489 533 q 534 588 522 578 q 565 606 546 599 m 1118 558 l 1057 558 l 1057 279 l 1118 279 l 1118 558 m 650 344 q 642 372 651 364 q 611 383 632 379 q 579 385 601 385 q 532 385 557 385 q 483 384 507 385 q 447 383 460 383 q 425 371 435 381 q 415 349 415 361 q 450 321 415 326 q 482 318 457 319 q 535 317 507 317 q 584 317 563 317 q 607 317 606 317 q 635 323 621 317 q 650 344 649 329 m 672 271 q 657 291 671 286 q 629 296 643 296 q 549 297 593 296 q 475 294 506 297 q 453 283 460 293 q 450 261 447 272 q 458 247 451 254 q 475 236 464 239 q 554 228 511 229 q 631 231 597 228 q 672 271 676 232 m 618 439 q 612 453 618 446 q 590 463 606 461 q 495 467 540 465 q 406 463 450 468 q 386 451 393 460 q 381 432 379 442 q 388 414 381 422 q 407 406 394 406 q 453 404 428 404 q 505 404 479 404 q 553 406 531 404 q 592 408 576 407 q 610 417 603 411 q 618 439 618 424 z "},"☞":{"ha":1240,"x_min":101,"x_max":1179,"o":"m 1179 567 q 1164 534 1179 546 q 1124 517 1149 522 q 1068 510 1099 511 q 1007 507 1038 508 q 940 503 969 504 q 885 501 911 501 q 832 499 858 500 q 774 497 806 499 l 769 488 q 856 475 831 488 q 882 432 882 463 q 867 399 882 408 q 833 388 851 390 q 845 370 840 379 q 849 346 850 361 q 831 313 847 325 q 796 300 815 300 q 813 283 807 293 q 817 257 819 272 q 788 224 811 233 q 740 211 765 214 q 683 206 718 208 q 611 204 649 204 q 538 206 574 204 q 476 211 501 207 q 335 244 388 225 q 246 286 282 264 l 207 286 l 207 257 l 101 257 l 101 582 l 206 582 l 206 538 q 288 546 240 535 q 363 594 322 578 q 447 619 404 611 q 535 627 490 626 q 624 628 579 628 q 742 627 681 628 q 858 625 803 626 q 954 623 913 624 q 1015 621 996 622 q 1080 616 1050 618 q 1132 609 1110 614 q 1167 594 1154 604 q 1179 567 1179 585 m 753 501 q 737 515 743 507 q 725 535 731 524 q 713 556 719 546 q 696 572 707 565 q 650 594 676 585 q 604 606 624 603 q 552 608 586 608 q 481 603 518 607 q 408 590 443 599 q 351 568 372 582 q 303 531 322 549 q 272 500 283 514 q 261 492 264 492 q 261 507 258 493 q 264 512 264 510 q 265 518 264 514 q 234 514 253 515 q 206 514 215 513 l 206 303 l 232 303 l 229 314 q 231 319 228 319 q 239 315 235 319 q 287 288 261 301 q 346 263 313 274 q 421 242 379 251 q 515 229 463 233 q 563 229 542 225 q 551 242 561 229 q 546 275 542 254 q 589 314 550 303 q 573 330 579 321 q 569 357 567 339 q 582 382 572 372 q 613 396 592 392 q 596 419 601 404 q 596 453 590 433 q 626 478 601 469 q 686 488 650 488 l 665 504 q 643 499 658 501 q 608 494 628 496 q 591 495 600 494 q 576 500 582 496 q 531 456 565 485 q 439 408 496 428 q 401 401 422 404 q 363 396 381 397 q 332 396 344 394 q 319 401 319 397 q 329 409 319 407 q 356 413 339 411 q 395 419 372 415 q 444 432 418 422 q 517 469 489 447 q 554 503 546 492 q 538 519 543 510 q 533 535 532 529 q 550 531 536 540 q 592 513 564 521 q 620 512 603 510 q 649 518 638 514 q 643 539 636 533 q 651 538 646 543 q 665 526 657 533 q 684 509 674 518 q 710 494 694 500 q 749 489 739 483 q 753 501 758 494 m 1156 567 q 1118 593 1156 588 q 1014 600 1081 599 q 832 603 922 601 q 675 606 742 606 q 707 588 694 599 q 729 563 719 578 q 747 537 740 547 q 760 518 754 526 q 815 520 788 519 q 873 522 843 521 q 938 526 903 524 q 1014 531 972 528 q 1124 540 1092 535 q 1156 567 1156 544 m 183 558 l 122 558 l 122 279 l 183 279 l 183 558 m 825 349 q 815 371 825 361 q 793 383 806 381 q 757 384 781 383 q 708 385 733 385 q 661 385 683 385 q 629 383 639 385 q 599 372 610 379 q 590 344 589 364 q 606 323 592 329 q 633 317 621 317 q 656 317 635 317 q 706 317 678 317 q 758 318 733 317 q 790 321 783 319 q 825 349 825 326 m 790 261 q 787 283 793 272 q 765 294 781 293 q 691 297 735 297 q 611 296 647 296 q 583 291 597 296 q 568 271 569 286 q 610 231 564 233 q 686 228 643 228 q 765 236 729 229 q 783 247 776 239 q 790 261 789 254 m 860 432 q 855 451 861 442 q 835 463 849 460 q 746 467 790 468 q 650 463 701 465 q 629 453 635 461 q 624 439 624 446 q 631 417 624 424 q 649 408 638 411 q 687 406 664 407 q 735 404 710 404 q 787 404 761 404 q 833 406 813 404 q 853 414 847 406 q 860 432 860 422 z "},"¶":{"ha":890,"x_min":57,"x_max":769,"o":"m 374 -204 l 374 415 l 372 415 q 140 488 222 415 q 57 693 57 560 q 146 900 57 828 q 401 972 235 972 l 769 972 l 769 -204 l 656 -204 l 656 875 l 488 875 l 488 -204 l 374 -204 z "},"†":{"ha":653,"x_min":36,"x_max":617,"o":"m 264 -136 l 274 619 l 36 614 l 36 718 l 274 713 l 264 1014 l 389 1014 l 379 713 l 617 718 l 617 614 l 379 619 l 389 -136 l 264 -136 z "},"‡":{"ha":681,"x_min":50,"x_max":631,"o":"m 278 -136 l 288 161 l 50 156 l 50 260 l 288 254 l 278 439 l 288 624 l 50 618 l 50 722 l 288 717 l 278 1014 l 403 1014 l 393 717 l 631 722 l 631 618 l 393 624 l 403 439 l 392 254 l 631 260 l 631 156 l 392 161 l 403 -136 l 278 -136 z "},"↕":{"ha":1240,"x_min":271,"x_max":969,"o":"m 621 992 l 969 644 l 894 568 l 674 790 l 674 58 l 894 281 l 969 206 l 621 -143 l 271 206 l 346 281 l 568 58 l 568 790 l 346 568 l 271 644 l 621 992 z "},"↗":{"ha":1240,"x_min":125,"x_max":1032,"o":"m 125 8 l 851 735 l 511 735 l 511 842 l 1031 840 l 1032 319 l 926 318 l 926 661 l 199 -65 l 125 8 z "},"↙":{"ha":1240,"x_min":208,"x_max":1115,"o":"m 210 -24 l 208 497 l 314 497 l 314 157 l 1042 883 l 1115 808 l 389 82 l 731 82 l 731 -25 l 210 -24 z "},"↖":{"ha":1240,"x_min":208,"x_max":1115,"o":"m 315 661 l 314 318 l 208 319 l 210 840 l 731 842 l 731 735 l 389 735 l 1115 8 l 1042 -65 l 315 661 z "},"↘":{"ha":1240,"x_min":125,"x_max":1032,"o":"m 510 82 l 851 82 l 125 808 l 199 883 l 926 157 l 926 497 l 1032 497 l 1031 -24 l 511 -25 l 510 82 z "},"♭":{"ha":667,"x_min":142,"x_max":576,"o":"m 479 386 q 454 487 479 446 q 378 528 429 528 q 320 514 347 528 q 272 477 293 500 q 239 424 251 454 q 226 364 226 394 l 226 76 q 281 86 254 79 q 335 106 308 93 q 442 212 406 138 q 479 386 479 286 m 576 404 q 519 183 576 274 q 343 49 461 93 q 244 21 296 31 q 142 8 193 11 l 142 910 l 226 910 l 226 500 q 307 571 261 549 q 407 593 353 593 q 530 541 483 593 q 576 404 576 489 z "},"♩":{"ha":528,"x_min":114,"x_max":379,"o":"m 379 192 q 365 94 379 139 q 326 15 351 49 q 267 -37 301 -18 q 194 -57 233 -57 q 137 -33 160 -57 q 114 24 114 -10 q 170 136 114 90 q 317 197 226 182 l 317 906 l 379 906 l 379 192 z "},"♪":{"ha":694,"x_min":56,"x_max":636,"o":"m 636 510 q 624 419 636 463 q 589 338 611 375 q 538 270 567 300 q 479 219 510 240 q 451 208 464 208 q 436 225 436 208 q 446 244 436 232 q 515 342 489 292 q 540 443 540 393 q 523 500 540 472 q 475 555 506 528 q 405 608 444 582 q 319 661 365 633 l 319 192 q 306 93 319 139 q 267 14 292 47 q 208 -39 242 -19 q 136 -58 175 -58 q 78 -34 100 -58 q 56 24 56 -10 q 112 135 56 90 q 258 197 168 181 l 258 910 l 300 910 q 353 860 322 885 q 421 807 385 835 q 503 739 464 774 q 572 667 543 704 q 619 591 601 631 q 636 510 636 551 z "},"♬":{"ha":951,"x_min":60,"x_max":832,"o":"m 832 288 q 814 208 832 246 q 767 139 796 169 q 703 90 739 108 q 629 72 667 72 q 576 93 597 72 q 556 143 556 114 q 572 201 556 174 q 615 252 588 229 q 682 292 643 275 q 767 317 721 308 l 767 513 l 333 411 l 333 156 q 315 77 333 115 q 269 8 297 39 q 204 -40 240 -22 q 132 -58 168 -58 q 81 -37 101 -58 q 60 11 60 -17 q 118 122 60 75 q 269 183 176 169 l 269 831 l 832 947 l 832 288 m 767 650 l 767 799 l 333 700 l 333 553 l 767 650 z "},"㉿":{"ha":1240,"x_min":19,"x_max":1221,"o":"m 299 375 l 22 375 q 19 409 19 392 q 19 442 19 426 q 66 677 19 567 q 193 871 113 788 q 383 1003 274 954 q 617 1051 492 1051 q 790 1026 707 1051 q 944 952 874 1000 q 1072 838 1015 904 q 1168 689 1129 771 l 1181 663 l 1040 663 q 966 769 1010 721 q 869 851 922 817 q 753 903 815 885 q 626 921 692 921 q 454 890 535 921 q 310 803 374 858 q 206 672 247 749 q 153 506 164 596 l 299 508 l 299 375 m 1215 511 q 1219 478 1218 494 q 1221 447 1221 463 q 1174 210 1221 321 q 1045 15 1126 99 q 855 -116 964 -68 q 621 -164 746 -164 q 447 -139 531 -164 q 291 -67 363 -114 q 163 48 219 -19 q 69 199 106 115 l 60 225 l 200 225 q 275 117 231 165 q 374 34 319 68 q 492 -18 429 0 q 621 -36 554 -36 q 790 -3 710 -36 q 932 85 869 29 q 1035 217 994 142 q 1088 381 1076 293 l 888 375 l 888 511 l 1215 511 m 888 661 l 699 525 l 872 226 l 725 226 l 593 450 l 482 369 l 482 225 l 351 225 l 351 661 l 482 661 l 482 528 l 671 661 l 888 661 z "},"㈜":{"ha":1240,"x_min":17,"x_max":1225,"o":"m 315 819 l 919 819 l 919 738 l 668 738 l 668 717 q 661 671 668 696 q 793 610 721 642 q 947 547 865 579 l 911 467 q 753 531 829 497 q 614 599 678 565 q 488 526 567 558 q 319 464 408 493 l 285 546 q 399 584 347 565 q 489 622 451 603 q 547 664 526 642 q 568 713 568 686 l 568 738 l 315 738 l 315 819 m 1225 443 q 1190 167 1225 310 q 1078 -110 1154 25 l 979 -110 q 1087 160 1050 18 q 1124 443 1124 303 q 1088 726 1124 588 q 979 992 1051 865 l 1078 992 q 1190 717 1154 857 q 1225 443 1225 576 m 17 443 q 52 717 17 576 q 163 992 88 857 l 261 992 q 153 726 189 865 q 117 443 117 588 q 153 160 117 303 q 261 -110 190 18 l 163 -110 q 52 167 88 25 q 17 443 17 310 m 243 403 l 999 403 l 999 318 l 668 318 l 668 29 l 574 29 l 574 318 l 243 318 l 243 403 z "},"№":{"ha":1667,"x_min":122,"x_max":1594,"o":"m 1279 236 q 1151 259 1208 236 q 1055 324 1094 282 q 994 426 1015 367 q 972 560 972 486 q 994 694 972 633 q 1055 797 1015 754 q 1151 862 1094 839 q 1279 885 1208 885 q 1406 862 1350 885 q 1503 797 1463 839 q 1565 694 1543 754 q 1586 560 1586 633 q 1565 426 1586 486 q 1503 324 1543 367 q 1406 259 1463 282 q 1279 236 1350 236 m 122 954 l 249 954 l 681 172 l 681 954 l 794 954 l 794 0 l 667 0 l 236 776 l 236 0 l 122 0 l 122 954 m 1279 335 q 1421 394 1369 335 q 1472 560 1472 453 q 1421 726 1472 665 q 1279 786 1369 786 q 1138 726 1189 786 q 1086 560 1086 665 q 1138 394 1086 453 q 1279 335 1189 335 m 963 99 l 1594 99 l 1594 0 l 963 0 l 963 99 z "},"㏇":{"ha":1667,"x_min":78,"x_max":1589,"o":"m 499 -21 q 324 13 401 -21 q 191 110 246 46 q 107 269 136 175 q 78 488 78 364 q 108 701 78 607 q 195 860 139 794 q 330 959 251 925 q 504 993 408 993 q 644 971 574 993 q 767 900 714 949 l 726 804 q 620 865 674 847 q 511 883 567 883 q 289 784 371 883 q 207 488 207 685 q 287 188 207 286 q 506 89 367 89 q 625 108 568 89 q 739 172 682 128 l 779 75 q 649 3 724 28 q 499 -21 575 -21 m 1121 -18 q 906 83 983 -18 q 829 358 829 183 q 906 634 829 533 q 1121 735 983 735 q 1244 709 1189 735 q 1337 634 1299 683 q 1395 515 1375 585 q 1415 358 1415 446 q 1395 201 1415 271 q 1337 83 1375 132 q 1244 8 1299 33 q 1121 -18 1189 -18 m 1121 85 q 1253 154 1210 85 q 1297 358 1297 224 q 1253 561 1297 492 q 1121 631 1210 631 q 990 561 1033 631 q 946 358 946 492 q 990 154 946 224 q 1121 85 1033 85 m 1517 -11 q 1465 8 1485 -11 q 1444 60 1444 28 q 1465 111 1444 92 q 1517 131 1485 131 q 1569 111 1549 131 q 1589 60 1589 92 q 1569 8 1589 28 q 1517 -11 1549 -11 z "},"™":{"ha":1235,"x_min":18,"x_max":1143,"o":"m 203 428 l 203 888 l 18 888 l 18 972 l 486 972 l 486 888 l 301 888 l 301 428 l 203 428 m 558 428 l 558 972 l 668 972 l 853 611 l 1036 972 l 1143 972 l 1143 428 l 1051 428 l 1051 835 l 892 532 l 810 532 l 650 832 l 650 428 l 558 428 z "},"㏂":{"ha":1667,"x_min":56,"x_max":1619,"o":"m 1042 468 q 1017 592 1042 553 q 944 632 993 632 q 869 615 901 632 q 804 564 836 597 l 804 0 l 706 0 l 706 717 l 793 717 l 796 649 q 876 713 836 692 q 965 735 917 735 q 1113 635 1071 735 q 1201 710 1157 686 q 1299 735 1246 735 q 1430 670 1383 735 q 1476 479 1476 606 l 1476 0 l 1376 0 l 1376 468 q 1351 592 1376 553 q 1276 632 1325 632 q 1199 614 1232 632 q 1133 558 1167 596 q 1138 521 1136 540 q 1139 479 1139 501 l 1139 0 l 1042 0 l 1042 468 m 236 -18 q 108 35 160 -18 q 56 183 56 89 q 115 356 56 301 q 293 418 175 411 l 410 424 l 410 475 q 381 597 410 558 q 285 635 351 635 q 128 572 206 635 l 86 657 q 197 719 144 703 q 296 735 249 735 q 504 482 504 735 l 504 0 l 421 0 l 417 65 q 333 3 376 24 q 236 -18 290 -18 m 258 76 q 338 93 303 76 q 408 146 372 110 l 408 343 l 304 338 q 190 300 226 333 q 153 194 153 267 q 182 106 153 136 q 258 76 211 76 m 604 -11 q 561 39 561 -11 l 561 79 q 573 116 561 103 q 604 129 585 129 q 636 116 625 129 q 647 79 647 103 l 647 39 q 604 -11 647 -11 m 1576 -11 q 1535 39 1535 -11 l 1535 79 q 1546 116 1535 103 q 1576 129 1557 129 q 1608 116 1597 129 q 1619 79 1619 103 l 1619 39 q 1576 -11 1619 -11 z "},"㏘":{"ha":1667,"x_min":106,"x_max":1619,"o":"m 106 717 l 190 717 l 193 653 q 266 714 228 693 q 351 735 304 735 q 499 635 446 735 q 551 357 551 536 q 537 202 551 271 q 494 84 522 133 q 428 8 467 35 q 342 -18 389 -18 q 267 -3 301 -18 q 201 46 233 11 l 201 -293 l 106 -293 l 106 717 m 1042 468 q 1017 592 1042 553 q 944 632 993 632 q 869 615 901 632 q 804 564 836 597 l 804 0 l 706 0 l 706 717 l 793 717 l 796 649 q 876 713 836 692 q 965 735 917 735 q 1113 635 1071 735 q 1201 710 1157 686 q 1299 735 1246 735 q 1430 670 1383 735 q 1476 479 1476 606 l 1476 0 l 1376 0 l 1376 468 q 1351 592 1376 553 q 1276 632 1325 632 q 1199 614 1232 632 q 1133 558 1167 596 q 1138 521 1136 540 q 1139 479 1139 501 l 1139 0 l 1042 0 l 1042 468 m 329 631 q 260 615 290 631 q 201 567 229 599 l 201 146 q 258 99 229 113 q 322 85 288 85 q 417 156 382 85 q 453 357 453 228 q 420 560 453 490 q 329 631 388 631 m 604 -11 q 561 39 561 -11 l 561 79 q 573 116 561 103 q 604 129 585 129 q 636 116 625 129 q 647 79 647 103 l 647 39 q 604 -11 647 -11 m 1576 -11 q 1535 39 1535 -11 l 1535 79 q 1546 116 1535 103 q 1576 129 1557 129 q 1608 116 1597 129 q 1619 79 1619 103 l 1619 39 q 1576 -11 1619 -11 z "},"℡":{"ha":1667,"x_min":25,"x_max":1650,"o":"m 246 844 l 25 844 l 25 954 l 588 954 l 588 844 l 367 844 l 367 0 l 246 0 l 246 844 m 661 954 l 1096 954 l 1096 849 l 779 849 l 779 538 l 1068 538 l 1068 431 l 779 431 l 779 106 l 1121 106 l 1121 0 l 661 0 l 661 954 m 1217 954 l 1336 954 l 1336 110 l 1650 110 l 1650 0 l 1217 0 l 1217 954 z "},"！":{"ha":1240,"x_min":539,"x_max":701,"o":"m 557 1040 l 682 1040 l 669 231 l 569 231 l 557 1040 m 619 -64 q 561 -42 583 -64 q 539 17 539 -19 q 561 74 539 53 q 619 96 583 96 q 679 74 657 96 q 701 17 701 53 q 679 -42 701 -19 q 619 -64 657 -64 z "},"＂":{"ha":1240,"x_min":453,"x_max":788,"o":"m 453 1085 l 568 1085 l 560 674 l 463 674 l 453 1085 m 672 1085 l 788 1085 l 779 674 l 682 674 l 672 1085 z "},"＃":{"ha":1240,"x_min":253,"x_max":986,"o":"m 294 701 l 454 701 l 494 954 l 586 954 l 546 701 l 764 701 l 804 954 l 896 954 l 856 701 l 986 701 l 986 618 l 842 618 l 799 342 l 944 342 l 944 258 l 785 258 l 744 0 l 653 0 l 693 258 l 475 258 l 435 0 l 343 0 l 383 258 l 253 258 l 253 342 l 397 342 l 440 618 l 294 618 l 294 701 m 489 342 l 707 342 l 750 618 l 532 618 l 489 342 z "},"＄":{"ha":1240,"x_min":285,"x_max":954,"o":"m 589 -17 q 428 6 499 -14 q 285 74 357 26 l 324 165 q 450 105 389 124 q 589 83 511 86 l 589 436 l 574 440 q 451 482 501 458 q 369 536 400 506 q 324 608 338 567 q 310 703 310 649 q 382 888 310 819 q 589 968 454 957 l 589 1097 l 672 1097 l 672 969 q 808 947 747 967 q 935 889 869 928 l 899 799 q 789 850 840 833 q 672 869 738 867 l 672 526 l 685 524 q 811 481 760 504 q 894 426 863 457 q 940 353 926 394 q 954 257 954 313 q 881 66 954 136 q 672 -15 807 -4 l 672 -156 l 589 -156 l 589 -17 m 838 249 q 830 305 838 281 q 803 348 822 329 q 753 382 785 367 q 672 413 721 397 l 672 88 q 795 139 753 99 q 838 249 838 179 m 425 711 q 432 654 425 678 q 458 612 439 631 q 508 578 476 593 q 589 550 540 564 l 589 867 q 425 711 425 846 z "},"％":{"ha":1240,"x_min":14,"x_max":1225,"o":"m 815 954 l 915 954 l 424 0 l 324 0 l 815 954 m 994 -14 q 824 58 883 -14 q 764 268 764 131 q 824 480 764 407 q 994 553 883 553 q 1165 480 1106 553 q 1225 268 1225 407 q 1165 58 1225 131 q 994 -14 1106 -14 m 994 68 q 1131 268 1131 68 q 994 471 1131 471 q 860 268 860 471 q 994 68 860 68 m 244 401 q 74 474 133 401 q 14 683 14 546 q 74 895 14 822 q 244 968 133 968 q 415 895 356 968 q 475 683 475 822 q 415 474 475 546 q 244 401 356 401 m 244 483 q 381 683 381 483 q 244 886 381 886 q 110 683 110 886 q 244 483 110 483 z "},"＆":{"ha":1240,"x_min":214,"x_max":1068,"o":"m 528 -18 q 298 52 382 -18 q 214 243 214 122 q 263 391 214 324 q 421 514 311 458 q 335 630 367 572 q 304 754 304 688 q 322 850 304 807 q 374 923 340 893 q 454 969 407 953 q 560 986 501 986 q 736 927 669 986 q 803 771 803 868 q 749 619 803 682 q 579 497 694 557 l 832 239 q 888 360 868 294 q 914 492 907 425 l 1018 471 q 980 309 1008 386 q 903 167 951 232 l 1068 0 l 921 0 l 832 90 q 697 11 774 40 q 528 -18 621 -18 m 538 78 q 665 100 608 78 q 764 160 721 122 l 482 450 q 362 358 393 407 q 331 254 331 308 q 386 125 331 172 q 538 78 442 78 m 410 751 q 436 659 410 703 q 519 558 463 615 q 653 648 610 601 q 697 761 697 694 q 660 860 697 824 q 557 896 622 896 q 449 857 489 896 q 410 751 410 818 z "},"＇":{"ha":1240,"x_min":561,"x_max":676,"o":"m 561 1085 l 676 1085 l 668 674 l 571 674 l 561 1085 z "},"（":{"ha":1240,"x_min":904,"x_max":1210,"o":"m 1089 -190 q 952 112 1000 -50 q 904 447 904 274 q 952 783 904 621 q 1089 1085 1000 944 l 1210 1085 q 1077 791 1125 953 q 1029 447 1029 629 q 1077 106 1029 268 q 1210 -190 1125 -57 l 1089 -190 z "},"）":{"ha":1240,"x_min":29,"x_max":336,"o":"m 29 -190 q 163 106 114 -57 q 211 447 211 268 q 163 791 211 629 q 29 1085 114 953 l 151 1085 q 288 783 240 944 q 336 447 336 621 q 288 112 336 274 q 151 -190 240 -50 l 29 -190 z "},"＊":{"ha":1240,"x_min":396,"x_max":843,"o":"m 439 576 l 561 726 l 396 772 l 425 857 l 583 793 l 572 972 l 667 972 l 656 793 l 814 857 l 843 772 l 678 726 l 801 576 l 728 525 l 619 688 l 511 525 l 439 576 z "},"＋":{"ha":1240,"x_min":306,"x_max":933,"o":"m 568 429 l 306 429 l 306 526 l 568 526 l 568 800 l 671 800 l 671 526 l 933 526 l 933 429 l 671 429 l 671 156 l 568 156 l 568 429 z "},"，":{"ha":1240,"x_min":522,"x_max":722,"o":"m 522 -217 q 582 -56 561 -143 q 604 132 603 32 l 722 132 q 689 -81 721 18 q 597 -258 657 -179 l 522 -217 z "},"－":{"ha":1240,"x_min":417,"x_max":824,"o":"m 417 550 l 824 550 l 824 447 l 417 447 l 417 550 z "},"．":{"ha":1240,"x_min":538,"x_max":700,"o":"m 619 -64 q 560 -42 582 -64 q 538 17 538 -19 q 560 74 538 53 q 619 96 582 96 q 678 74 656 96 q 700 17 700 53 q 678 -42 700 -19 q 619 -64 656 -64 z "},"／":{"ha":1240,"x_min":331,"x_max":931,"o":"m 331 -190 l 810 1085 l 931 1085 l 451 -190 l 331 -190 z "},"０":{"ha":1240,"x_min":271,"x_max":968,"o":"m 619 -18 q 361 109 451 -18 q 271 475 271 236 q 361 844 271 717 q 619 972 451 972 q 878 844 788 972 q 968 475 968 717 q 878 109 968 236 q 619 -18 788 -18 m 619 88 q 843 475 843 88 q 619 867 843 867 q 396 475 396 867 q 619 88 396 88 z "},"１":{"ha":1240,"x_min":324,"x_max":740,"o":"m 619 825 l 382 679 l 324 771 l 628 954 l 740 954 l 740 0 l 619 0 l 619 825 z "},"２":{"ha":1240,"x_min":314,"x_max":953,"o":"m 314 36 q 331 165 314 108 q 383 270 349 222 q 470 361 418 318 q 592 450 522 404 q 685 516 646 486 q 752 574 725 546 q 792 634 779 603 q 806 704 806 665 q 755 825 806 783 q 608 867 704 867 q 485 846 540 867 q 372 782 429 825 l 318 867 q 463 947 392 922 q 618 972 535 972 q 745 956 688 972 q 844 906 803 939 q 908 826 885 874 q 931 715 931 778 q 915 616 931 660 q 867 535 899 572 q 790 462 836 497 q 682 388 743 426 q 588 322 629 353 q 515 257 546 290 q 465 187 483 224 q 440 106 446 150 l 953 106 l 953 0 l 314 0 l 314 36 z "},"３":{"ha":1240,"x_min":281,"x_max":932,"o":"m 585 -18 q 424 -1 497 -18 q 281 64 351 15 l 326 156 q 442 100 381 115 q 583 85 504 85 q 748 133 688 85 q 808 264 808 182 q 586 444 808 444 l 447 444 l 447 544 l 576 544 q 733 589 678 544 q 789 717 789 633 q 739 831 789 792 q 593 869 689 869 q 463 853 521 869 q 351 800 404 836 l 306 888 q 450 952 375 932 q 606 972 525 972 q 829 908 747 972 q 911 731 911 843 q 867 587 911 644 q 740 501 824 529 q 883 415 835 475 q 932 258 932 354 q 908 144 932 194 q 838 57 883 93 q 728 1 792 21 q 585 -18 664 -18 z "},"４":{"ha":1240,"x_min":228,"x_max":960,"o":"m 721 215 l 228 215 l 228 311 l 714 954 l 838 954 l 838 315 l 960 315 l 960 215 l 838 215 l 838 0 l 721 0 l 721 215 m 721 315 l 721 807 l 351 315 l 721 315 z "},"５":{"ha":1240,"x_min":294,"x_max":946,"o":"m 596 -18 q 440 -2 513 -18 q 294 63 367 14 l 338 154 q 449 100 390 117 q 590 83 508 83 q 760 138 699 83 q 822 283 822 192 q 768 432 822 385 q 596 479 714 479 q 500 469 543 479 q 419 440 457 460 l 347 475 l 385 954 l 900 954 l 900 849 l 481 849 l 456 539 q 540 567 496 558 q 628 575 585 575 q 865 501 783 575 q 946 286 946 428 q 922 159 946 215 q 851 63 897 103 q 741 3 806 24 q 596 -18 676 -18 z "},"６":{"ha":1240,"x_min":281,"x_max":958,"o":"m 638 -18 q 372 101 464 -18 q 281 442 281 221 q 305 656 281 558 q 381 824 329 754 q 512 933 432 894 q 703 972 592 972 q 918 926 826 972 l 885 829 q 805 857 849 847 q 711 867 761 867 q 570 840 628 867 q 476 763 513 813 q 421 644 439 713 q 400 492 403 575 q 665 601 499 601 q 881 523 804 601 q 958 301 958 444 q 873 67 958 151 q 638 -18 788 -18 m 643 82 q 787 140 735 82 q 839 297 839 197 q 788 451 839 397 q 642 504 738 504 q 401 397 500 504 q 467 164 408 246 q 643 82 525 82 z "},"７":{"ha":1240,"x_min":282,"x_max":929,"o":"m 810 849 l 282 849 l 282 954 l 929 954 l 929 858 l 569 0 l 440 0 l 810 849 z "},"８":{"ha":1240,"x_min":276,"x_max":963,"o":"m 619 -18 q 368 53 460 -18 q 276 247 276 125 q 324 397 276 335 q 463 488 371 460 q 345 573 386 515 q 304 711 304 631 q 388 903 304 833 q 619 972 472 972 q 851 903 767 972 q 935 711 935 833 q 894 574 935 632 q 776 489 853 517 q 915 399 867 461 q 963 247 963 336 q 871 53 963 125 q 619 -18 779 -18 m 619 81 q 783 127 725 81 q 842 257 842 174 q 784 391 842 344 q 619 438 726 438 q 456 391 514 438 q 397 257 397 344 q 456 127 397 174 q 619 81 514 81 m 619 533 q 767 577 715 533 q 818 703 818 621 q 767 829 818 785 q 619 874 715 874 q 472 830 522 874 q 421 703 421 786 q 472 578 421 622 q 619 533 524 533 z "},"９":{"ha":1240,"x_min":281,"x_max":958,"o":"m 536 -18 q 422 -7 476 -18 q 321 28 367 4 l 354 125 q 436 97 392 106 q 528 88 481 88 q 669 115 611 88 q 763 191 726 142 q 817 310 799 240 q 838 463 835 379 q 572 353 739 353 q 357 431 433 353 q 281 653 281 510 q 366 887 281 801 q 600 972 451 972 q 867 853 775 972 q 958 513 958 733 q 935 298 958 396 q 860 130 911 200 q 729 21 810 60 q 536 -18 649 -18 m 597 450 q 728 476 668 450 q 836 557 788 503 q 771 790 829 707 q 596 872 713 872 q 452 815 504 872 q 400 657 400 757 q 451 503 400 557 q 597 450 501 450 z "},"：":{"ha":1240,"x_min":538,"x_max":700,"o":"m 619 144 q 560 167 582 144 q 538 225 538 189 q 560 283 538 261 q 619 304 582 304 q 678 283 656 304 q 700 225 700 261 q 678 167 700 189 q 619 144 656 144 m 619 668 q 560 690 582 668 q 538 749 538 713 q 560 806 538 785 q 619 828 582 828 q 678 806 656 828 q 700 749 700 785 q 678 690 700 713 q 619 668 656 668 z "},"；":{"ha":1240,"x_min":514,"x_max":729,"o":"m 514 -47 q 574 114 553 26 q 596 301 594 201 l 714 301 q 681 89 713 188 q 589 -89 649 -10 l 514 -47 m 649 668 q 589 690 611 668 q 567 749 567 713 q 589 806 567 785 q 649 828 611 828 q 707 806 685 828 q 729 749 729 785 q 707 690 729 713 q 649 668 685 668 z "},"＜":{"ha":1240,"x_min":306,"x_max":933,"o":"m 306 432 l 306 524 l 933 804 l 933 693 l 433 478 l 933 265 l 933 151 l 306 432 z "},"＝":{"ha":1240,"x_min":304,"x_max":933,"o":"m 304 365 l 933 365 l 933 269 l 304 269 l 304 365 m 304 690 l 933 690 l 933 593 l 304 593 l 304 690 z "},"＞":{"ha":1240,"x_min":306,"x_max":933,"o":"m 306 265 l 804 478 l 306 693 l 306 804 l 933 524 l 933 432 l 306 151 l 306 265 z "},"？":{"ha":1240,"x_min":329,"x_max":897,"o":"m 528 314 q 535 394 528 357 q 558 463 542 431 q 599 526 574 494 q 661 590 624 557 q 747 687 718 640 q 775 796 775 733 q 730 906 775 865 q 603 946 685 946 q 382 861 485 946 l 329 947 q 467 1024 399 1000 q 615 1049 535 1049 q 822 983 747 1049 q 897 807 897 917 q 888 726 897 763 q 859 656 878 689 q 813 594 840 624 q 749 535 785 565 q 658 431 683 481 q 633 315 633 382 l 633 229 l 528 229 l 528 314 m 581 -64 q 521 -42 543 -64 q 499 17 499 -19 q 521 74 499 53 q 581 96 543 96 q 639 74 617 96 q 661 17 661 53 q 639 -42 661 -19 q 581 -64 617 -64 z "},"＠":{"ha":1240,"x_min":33,"x_max":1206,"o":"m 594 -294 q 358 -259 463 -294 q 182 -156 254 -224 q 72 12 110 -87 q 33 239 33 111 q 83 529 33 397 q 222 756 132 661 q 436 905 311 851 q 711 958 561 958 q 913 925 821 958 q 1069 831 1004 892 q 1169 683 1133 769 q 1206 492 1206 597 q 1182 302 1206 388 q 1115 156 1158 217 q 1010 60 1071 94 q 875 26 949 26 q 777 54 813 26 q 731 133 742 82 q 526 26 643 26 q 398 81 446 26 q 350 236 350 136 q 373 394 350 321 q 436 521 396 467 q 531 606 476 575 q 650 636 586 636 q 804 556 751 636 l 826 622 l 914 622 l 833 256 q 825 194 825 218 q 841 128 825 150 q 894 107 857 107 q 988 136 946 107 q 1058 217 1029 165 q 1103 338 1088 268 q 1119 489 1119 407 q 1090 651 1119 579 q 1006 774 1060 724 q 874 851 951 824 q 703 878 797 878 q 467 830 574 878 q 283 697 360 782 q 163 495 206 613 q 121 239 121 378 q 244 -97 121 21 q 594 -214 368 -214 q 943 -137 786 -214 l 971 -211 q 797 -273 888 -251 q 594 -294 707 -294 m 561 115 q 721 213 651 115 l 721 214 l 779 483 q 728 531 756 515 q 660 547 700 547 q 581 524 618 547 q 516 460 544 500 q 472 365 488 419 q 456 250 456 311 q 483 149 456 183 q 561 115 511 115 z "},"Ａ":{"ha":1240,"x_min":157,"x_max":1085,"o":"m 557 972 l 685 972 l 1085 0 l 947 0 l 847 257 l 388 257 l 289 0 l 157 0 l 557 972 m 428 361 l 807 361 l 618 850 l 428 361 z "},"Ｂ":{"ha":1240,"x_min":308,"x_max":1008,"o":"m 308 972 l 632 972 q 892 913 808 972 q 976 731 976 854 q 939 593 976 647 q 819 511 901 539 q 964 426 919 485 q 1008 271 1008 368 q 924 66 1008 132 q 661 0 839 0 l 308 0 l 308 972 m 650 100 q 831 141 776 100 q 885 278 885 182 q 831 413 885 372 q 650 454 778 454 l 428 454 l 428 100 l 650 100 m 621 553 q 801 590 747 553 q 854 715 854 628 q 801 835 854 799 q 621 872 747 872 l 428 872 l 428 553 l 621 553 z "},"Ｃ":{"ha":1240,"x_min":260,"x_max":1035,"o":"m 719 -21 q 378 110 496 -21 q 260 488 260 240 q 291 701 260 607 q 383 860 322 794 q 529 959 443 925 q 726 993 615 993 q 886 971 814 993 q 1021 900 958 949 l 976 804 q 859 865 913 847 q 735 883 806 883 q 389 488 389 883 q 729 89 389 89 q 865 108 807 89 q 990 172 924 126 l 1035 75 q 892 3 968 26 q 719 -21 815 -21 z "},"Ｄ":{"ha":1240,"x_min":269,"x_max":1060,"o":"m 269 972 l 599 972 q 941 848 822 972 q 1060 489 1060 724 q 939 128 1060 256 q 597 0 818 0 l 269 0 l 269 972 m 588 108 q 843 206 756 108 q 931 489 931 303 q 844 769 931 675 q 589 864 758 864 l 392 864 l 392 108 l 588 108 z "},"Ｅ":{"ha":1240,"x_min":340,"x_max":976,"o":"m 340 972 l 951 972 l 951 865 l 463 865 l 463 546 l 924 546 l 924 439 l 463 439 l 463 107 l 976 107 l 976 0 l 340 0 l 340 972 z "},"Ｆ":{"ha":1240,"x_min":389,"x_max":979,"o":"m 389 972 l 979 972 l 979 865 l 511 865 l 511 521 l 951 521 l 951 414 l 511 414 l 511 0 l 389 0 l 389 972 z "},"Ｇ":{"ha":1240,"x_min":214,"x_max":1026,"o":"m 692 -21 q 336 110 458 -21 q 214 488 214 242 q 245 697 214 604 q 338 856 276 790 q 489 958 399 922 q 697 993 579 993 q 862 971 788 993 q 1003 899 936 949 l 957 803 q 835 865 892 847 q 704 883 778 883 q 433 784 522 883 q 343 488 343 685 q 701 88 343 88 q 910 131 825 88 l 910 410 l 688 410 l 688 513 l 1026 513 l 1026 69 q 873 1 956 22 q 692 -21 790 -21 z "},"Ｈ":{"ha":1240,"x_min":238,"x_max":1001,"o":"m 238 972 l 361 972 l 361 547 l 878 547 l 878 972 l 1001 972 l 1001 0 l 878 0 l 878 436 l 361 436 l 361 0 l 238 0 l 238 972 z "},"Ｉ":{"ha":1240,"x_min":558,"x_max":682,"o":"m 558 972 l 682 972 l 682 0 l 558 0 l 558 972 z "},"Ｊ":{"ha":1240,"x_min":263,"x_max":797,"o":"m 492 -21 q 367 -7 424 -21 q 263 33 311 7 l 296 135 q 383 99 342 110 q 478 89 424 89 q 672 308 672 89 l 672 972 l 797 972 l 797 310 q 718 65 797 150 q 492 -21 639 -21 z "},"Ｋ":{"ha":1240,"x_min":321,"x_max":1108,"o":"m 321 972 l 444 972 l 444 517 l 907 972 l 1063 972 l 583 506 l 1108 0 l 940 0 l 444 482 l 444 0 l 321 0 l 321 972 z "},"Ｌ":{"ha":1240,"x_min":400,"x_max":1007,"o":"m 400 972 l 524 972 l 524 110 l 1007 110 l 1007 0 l 400 0 l 400 972 z "},"Ｍ":{"ha":1240,"x_min":143,"x_max":1096,"o":"m 143 972 l 285 972 l 621 299 l 958 972 l 1096 972 l 1096 0 l 979 0 l 979 789 l 672 186 l 567 186 l 260 792 l 260 0 l 143 0 l 143 972 z "},"Ｎ":{"ha":1240,"x_min":239,"x_max":1001,"o":"m 239 972 l 369 972 l 882 171 l 882 972 l 1001 972 l 1001 0 l 869 0 l 357 797 l 357 0 l 239 0 l 239 972 z "},"Ｏ":{"ha":1240,"x_min":169,"x_max":1071,"o":"m 619 -21 q 432 14 515 -21 q 290 115 349 49 q 201 274 232 181 q 169 485 169 368 q 201 697 169 603 q 290 857 232 792 q 432 958 349 922 q 619 993 515 993 q 808 958 724 993 q 950 857 892 922 q 1040 697 1008 792 q 1071 485 1071 603 q 1040 274 1071 368 q 949 115 1008 181 q 807 14 890 49 q 619 -21 724 -21 m 619 89 q 858 191 775 89 q 940 485 940 293 q 858 781 940 679 q 619 883 775 883 q 381 781 464 883 q 299 485 299 679 q 381 191 299 293 q 619 89 464 89 z "},"Ｐ":{"ha":1240,"x_min":363,"x_max":1033,"o":"m 363 972 l 669 972 q 942 895 850 972 q 1033 668 1033 818 q 941 440 1033 518 q 667 363 849 363 l 483 363 l 483 0 l 363 0 l 363 972 m 658 465 q 847 515 788 465 q 907 668 907 564 q 847 821 907 772 q 660 869 788 869 l 483 869 l 483 465 l 658 465 z "},"Ｑ":{"ha":1240,"x_min":169,"x_max":1071,"o":"m 860 42 q 619 -21 760 -21 q 432 14 515 -21 q 290 115 349 49 q 201 274 232 181 q 169 485 169 368 q 201 697 169 603 q 290 857 232 792 q 432 958 349 922 q 619 993 515 993 q 808 958 724 993 q 950 857 892 922 q 1040 697 1008 792 q 1071 485 1071 603 q 1036 266 1071 363 q 936 103 1001 169 l 1060 -40 l 985 -103 l 860 42 m 619 89 q 785 128 717 89 l 635 303 l 710 367 l 860 192 q 940 485 940 293 q 858 781 940 679 q 619 883 775 883 q 381 781 464 883 q 299 485 299 679 q 381 191 299 293 q 619 89 464 89 z "},"Ｒ":{"ha":1240,"x_min":307,"x_max":1029,"o":"m 656 385 l 428 385 l 428 0 l 307 0 l 307 972 l 631 972 q 894 898 804 972 q 983 678 983 824 q 931 500 983 569 q 776 403 878 431 l 1029 0 l 890 0 l 656 385 m 621 486 q 800 533 743 486 q 857 678 857 581 q 799 824 857 778 q 622 869 742 869 l 428 869 l 428 486 l 621 486 z "},"Ｓ":{"ha":1240,"x_min":276,"x_max":963,"o":"m 619 -21 q 522 -16 567 -21 q 436 1 478 -11 q 356 31 394 13 q 276 74 317 49 l 317 171 q 456 104 389 124 q 611 85 524 85 q 780 128 722 85 q 838 254 838 171 q 828 316 838 290 q 797 362 819 342 q 733 399 774 382 q 628 432 692 415 l 571 446 q 445 489 496 465 q 363 544 394 513 q 317 618 331 576 q 303 717 303 660 q 328 840 303 788 q 400 926 354 892 q 508 976 446 960 q 646 993 571 993 q 727 988 689 993 q 801 973 765 983 q 871 946 836 963 q 942 907 906 929 l 903 813 q 781 870 839 853 q 646 888 722 888 q 481 846 538 888 q 425 725 425 804 q 434 662 425 688 q 467 616 443 636 q 530 581 490 596 q 631 550 569 565 l 688 535 q 815 492 763 515 q 901 436 868 468 q 948 362 933 404 q 963 263 963 319 q 937 137 963 190 q 865 49 911 83 q 757 -3 819 14 q 619 -21 694 -21 z "},"Ｔ":{"ha":1240,"x_min":233,"x_max":1004,"o":"m 557 863 l 233 863 l 233 972 l 1004 972 l 1004 863 l 681 863 l 681 0 l 557 0 l 557 863 z "},"Ｕ":{"ha":1240,"x_min":240,"x_max":1000,"o":"m 622 -21 q 340 81 440 -21 q 240 367 240 182 l 240 972 l 364 972 l 364 353 q 430 158 364 226 q 622 89 496 89 q 811 157 746 89 q 876 353 876 225 l 876 972 l 1000 972 l 1000 367 q 901 81 1000 182 q 622 -21 803 -21 z "},"Ｖ":{"ha":1240,"x_min":165,"x_max":1075,"o":"m 165 972 l 301 972 l 622 131 l 943 972 l 1075 972 l 683 0 l 556 0 l 165 972 z "},"Ｗ":{"ha":1240,"x_min":-15,"x_max":1253,"o":"m -15 972 l 118 972 l 332 153 l 561 950 l 681 950 l 908 151 l 1125 972 l 1253 972 l 974 0 l 847 0 l 618 799 l 390 0 l 264 0 l -15 972 z "},"Ｘ":{"ha":1240,"x_min":196,"x_max":1044,"o":"m 547 497 l 218 972 l 364 972 l 621 588 l 881 972 l 1022 972 l 689 500 l 1044 0 l 894 0 l 618 407 l 340 0 l 196 0 l 547 497 z "},"Ｙ":{"ha":1240,"x_min":190,"x_max":1049,"o":"m 557 363 l 190 972 l 331 972 l 621 461 l 913 972 l 1049 972 l 682 363 l 682 0 l 557 0 l 557 363 z "},"Ｚ":{"ha":1240,"x_min":258,"x_max":982,"o":"m 258 94 l 818 865 l 272 865 l 272 972 l 968 972 l 968 876 l 410 107 l 982 107 l 982 0 l 258 0 l 258 94 z "},"［":{"ha":1240,"x_min":904,"x_max":1211,"o":"m 904 1085 l 1211 1085 l 1211 983 l 1022 983 l 1022 -89 l 1211 -89 l 1211 -190 l 904 -190 l 904 1085 z "},"￦":{"ha":1240,"x_min":6,"x_max":1232,"o":"m 6 544 l 153 544 l 49 958 l 172 958 l 267 544 l 453 544 l 554 936 l 675 936 l 776 544 l 963 544 l 1057 958 l 1176 958 l 1071 544 l 1232 544 l 1232 449 l 1046 449 l 932 0 l 814 0 l 697 449 l 526 449 l 411 0 l 292 0 l 178 449 l 6 449 l 6 544 m 354 161 l 428 449 l 289 449 l 354 161 m 875 164 l 940 449 l 801 449 l 875 164 m 551 544 l 672 544 l 613 776 l 551 544 z "},"］":{"ha":1240,"x_min":29,"x_max":336,"o":"m 29 -89 l 218 -89 l 218 983 l 29 983 l 29 1085 l 336 1085 l 336 -190 l 29 -190 l 29 -89 z "},"＾":{"ha":1240,"x_min":296,"x_max":943,"o":"m 574 950 l 665 950 l 943 429 l 825 429 l 618 839 l 411 429 l 296 429 l 574 950 z "},"＿":{"ha":1240,"x_min":272,"x_max":967,"o":"m 272 -94 l 967 -94 l 967 -193 l 272 -193 l 272 -94 z "},"｀":{"ha":1240,"x_min":469,"x_max":769,"o":"m 469 1053 l 604 1053 l 769 840 l 663 840 l 469 1053 z "},"ａ":{"ha":1240,"x_min":313,"x_max":900,"o":"m 542 -18 q 373 35 433 -18 q 313 183 313 89 q 386 356 313 300 q 622 418 460 411 l 786 425 l 786 475 q 745 597 786 558 q 613 635 704 635 q 501 621 554 635 q 394 572 449 607 l 350 657 q 496 719 428 703 q 626 735 564 735 q 900 482 900 735 l 900 0 l 800 0 l 796 75 q 680 5 739 28 q 542 -18 621 -18 m 572 76 q 688 97 639 76 q 786 157 738 117 l 786 343 l 631 338 q 474 299 521 332 q 426 194 426 267 q 464 106 426 136 q 572 76 501 76 z "},"ｂ":{"ha":1240,"x_min":349,"x_max":990,"o":"m 349 1014 l 467 1014 l 467 647 q 573 713 518 692 q 700 735 628 735 q 822 709 768 735 q 913 634 875 683 q 970 515 950 585 q 990 357 990 444 q 969 203 990 272 q 907 85 947 133 q 810 9 867 36 q 685 -18 754 -18 q 563 2 617 -18 q 456 69 508 22 l 451 0 l 349 0 l 349 1014 m 667 631 q 559 611 606 631 q 467 550 513 592 l 467 163 q 556 102 513 119 q 656 85 600 85 q 813 156 757 85 q 869 357 869 228 q 817 560 869 490 q 667 631 765 631 z "},"ｃ":{"ha":1240,"x_min":361,"x_max":936,"o":"m 704 -18 q 449 79 536 -18 q 361 361 361 176 q 452 637 361 539 q 708 735 543 735 q 924 675 838 735 l 886 583 q 805 621 843 611 q 718 631 767 631 q 481 361 481 631 q 715 85 481 85 q 810 97 768 85 q 899 136 851 108 l 936 44 q 704 -18 840 -18 z "},"ｄ":{"ha":1240,"x_min":250,"x_max":890,"o":"m 782 76 q 672 5 729 28 q 540 -18 615 -18 q 327 82 404 -18 q 250 360 250 182 q 272 514 250 444 q 333 632 293 583 q 430 708 374 681 q 556 735 486 735 q 671 717 619 735 q 772 657 722 699 l 772 1014 l 890 1014 l 890 0 l 788 0 l 782 76 m 574 85 q 681 104 635 85 q 772 165 726 124 l 772 556 q 683 613 726 596 q 583 631 639 631 q 426 560 483 631 q 369 360 369 489 q 422 156 369 226 q 574 85 475 85 z "},"ｅ":{"ha":1240,"x_min":306,"x_max":935,"o":"m 650 -18 q 395 81 485 -18 q 306 360 306 181 q 328 514 306 444 q 392 633 350 583 q 497 708 435 682 q 636 735 558 735 q 774 708 717 735 q 866 632 831 681 q 918 517 901 583 q 935 372 935 450 q 935 349 935 361 q 932 325 935 336 l 421 325 q 661 82 436 82 q 773 95 724 82 q 872 140 822 108 l 908 51 q 788 -1 849 15 q 650 -18 726 -18 m 633 640 q 484 581 538 640 q 421 408 431 522 l 824 408 q 775 582 818 524 q 633 640 732 640 z "},"ｆ":{"ha":1240,"x_min":401,"x_max":935,"o":"m 529 617 l 401 617 l 401 715 l 529 715 l 529 761 q 768 1032 529 1032 q 858 1023 818 1032 q 935 992 897 1014 l 901 900 q 845 923 872 917 q 785 929 818 929 q 680 892 713 929 q 647 767 647 854 l 647 715 l 882 715 l 882 617 l 647 617 l 647 0 l 529 0 l 529 617 z "},"ｇ":{"ha":1240,"x_min":286,"x_max":926,"o":"m 576 4 q 363 102 440 4 q 286 372 286 200 q 308 521 286 454 q 369 635 329 588 q 465 709 408 683 q 592 735 522 735 q 712 715 658 735 q 819 647 765 694 l 824 717 l 926 717 l 926 -1 q 600 -311 926 -311 q 453 -295 519 -311 q 329 -243 388 -279 l 367 -149 q 465 -192 408 -176 q 589 -208 522 -208 q 808 -8 808 -208 l 808 90 q 702 25 757 46 q 576 4 647 4 m 610 107 q 717 126 671 107 q 808 188 763 146 l 808 556 q 719 613 763 596 q 619 631 675 631 q 463 563 519 631 q 406 372 406 494 q 458 175 406 243 q 610 107 510 107 z "},"ｈ":{"ha":1240,"x_min":350,"x_max":943,"o":"m 350 1014 l 468 1014 l 468 644 q 580 712 524 689 q 706 735 636 735 q 943 479 943 735 l 943 0 l 825 0 l 825 465 q 788 590 825 550 q 676 629 751 629 q 564 609 611 629 q 468 547 517 589 l 468 0 l 350 0 l 350 1014 z "},"ｉ":{"ha":1240,"x_min":542,"x_max":697,"o":"m 561 717 l 679 717 l 679 0 l 561 0 l 561 717 m 619 854 q 563 874 583 854 q 542 928 542 894 q 563 981 542 961 q 619 1001 583 1001 q 677 981 657 1001 q 697 928 697 961 q 677 874 697 894 q 619 854 657 854 z "},"ｊ":{"ha":1240,"x_min":364,"x_max":728,"o":"m 497 -311 q 364 -283 426 -311 l 385 -186 q 431 -203 410 -199 q 479 -208 453 -208 q 565 -178 539 -208 q 592 -76 592 -147 l 592 717 l 710 717 l 710 -85 q 658 -256 710 -200 q 497 -311 606 -311 m 650 854 q 593 874 614 854 q 572 928 572 894 q 593 981 572 961 q 650 1001 614 1001 q 708 981 688 1001 q 728 928 728 961 q 708 874 728 894 q 650 854 688 854 z "},"ｋ":{"ha":1240,"x_min":389,"x_max":1028,"o":"m 389 1014 l 507 1014 l 507 406 l 851 717 l 1000 717 l 642 393 l 1028 0 l 878 0 l 507 379 l 507 0 l 389 0 l 389 1014 z "},"ｌ":{"ha":1240,"x_min":561,"x_max":679,"o":"m 561 1014 l 679 1014 l 679 0 l 561 0 l 561 1014 z "},"ｍ":{"ha":1240,"x_min":118,"x_max":1126,"o":"m 118 717 l 221 717 l 225 638 q 336 710 281 686 q 460 735 392 735 q 654 625 604 735 q 773 708 714 682 q 904 735 832 735 q 1126 479 1126 735 l 1126 0 l 1008 0 l 1008 465 q 975 590 1008 550 q 875 629 942 629 q 768 608 813 629 q 676 544 724 588 q 681 479 681 515 l 681 0 l 563 0 l 563 465 q 529 590 563 550 q 429 629 496 629 q 324 609 368 629 q 236 549 281 589 l 236 0 l 118 0 l 118 717 z "},"ｎ":{"ha":1240,"x_min":333,"x_max":926,"o":"m 333 717 l 436 717 l 440 636 q 559 710 500 685 q 689 735 618 735 q 926 479 926 735 l 926 0 l 808 0 l 808 465 q 772 590 808 550 q 660 629 735 629 q 547 609 594 629 q 451 547 500 589 l 451 0 l 333 0 l 333 717 z "},"ｏ":{"ha":1240,"x_min":285,"x_max":956,"o":"m 619 -18 q 480 8 542 -18 q 374 83 418 33 q 308 201 331 132 q 285 358 285 271 q 308 515 285 446 q 374 634 331 585 q 480 709 418 683 q 619 735 542 735 q 759 709 697 735 q 865 634 821 683 q 932 515 908 585 q 956 358 956 446 q 932 201 956 271 q 865 83 908 132 q 759 8 821 33 q 619 -18 697 -18 m 619 85 q 779 154 724 85 q 835 358 835 224 q 779 561 835 492 q 619 631 724 631 q 460 561 515 631 q 404 358 404 492 q 460 154 404 224 q 619 85 515 85 z "},"ｐ":{"ha":1240,"x_min":338,"x_max":979,"o":"m 338 717 l 440 717 l 444 638 q 557 710 500 686 q 689 735 614 735 q 810 709 757 735 q 901 634 864 683 q 959 515 939 585 q 979 357 979 444 q 958 203 979 272 q 897 85 936 133 q 800 9 857 36 q 674 -18 743 -18 q 558 0 608 -18 q 456 60 507 18 l 456 -293 l 338 -293 l 338 717 m 656 631 q 548 611 594 631 q 456 550 501 592 l 456 163 q 545 102 501 119 q 644 85 589 85 q 802 156 746 85 q 858 357 858 228 q 806 560 858 490 q 656 631 754 631 z "},"ｑ":{"ha":1240,"x_min":261,"x_max":901,"o":"m 783 68 q 677 3 732 24 q 551 -18 622 -18 q 338 82 415 -18 q 261 360 261 182 q 283 514 261 444 q 344 632 304 583 q 440 708 383 681 q 567 735 497 735 q 687 715 633 735 q 794 647 740 694 l 799 717 l 901 717 l 901 -293 l 783 -293 l 783 68 m 585 85 q 692 104 646 85 q 783 165 738 124 l 783 556 q 694 613 738 596 q 594 631 650 631 q 438 560 494 631 q 381 360 381 489 q 433 156 381 226 q 585 85 486 85 z "},"ｒ":{"ha":1240,"x_min":479,"x_max":886,"o":"m 479 717 l 582 717 l 588 615 q 819 729 689 729 q 851 728 833 729 q 886 722 869 726 l 876 608 q 842 614 861 613 q 804 615 824 615 q 691 591 738 615 q 597 519 644 567 l 597 0 l 479 0 l 479 717 z "},"ｓ":{"ha":1240,"x_min":349,"x_max":890,"o":"m 621 -18 q 474 -1 538 -18 q 349 51 411 15 l 382 140 q 488 92 435 107 q 610 78 540 78 q 774 193 774 78 q 767 233 774 215 q 744 264 761 250 q 698 289 728 278 q 621 313 668 300 l 581 322 q 482 354 522 336 q 417 397 442 372 q 381 452 392 421 q 369 525 369 483 q 440 678 369 622 q 635 735 511 735 q 763 720 708 735 q 874 672 818 706 l 840 583 q 747 625 793 613 q 639 638 701 638 q 526 610 567 638 q 485 531 485 582 q 490 492 485 508 q 511 463 496 476 q 555 439 526 450 q 629 417 583 428 l 669 407 q 773 373 731 392 q 841 330 815 354 q 878 274 867 306 q 890 200 890 242 q 819 39 890 96 q 621 -18 747 -18 z "},"ｔ":{"ha":1240,"x_min":397,"x_max":893,"o":"m 750 -12 q 588 42 640 -12 q 536 214 536 96 l 536 617 l 397 617 l 397 715 l 536 715 l 536 915 l 654 915 l 654 715 l 875 715 l 875 617 l 654 617 l 654 226 q 682 122 654 153 q 772 90 710 90 q 822 96 800 90 q 871 114 844 101 l 893 17 q 750 -12 824 -12 z "},"ｕ":{"ha":1240,"x_min":326,"x_max":911,"o":"m 803 78 q 688 6 746 29 q 558 -18 629 -18 q 326 233 326 -18 l 326 717 l 444 717 l 444 249 q 589 88 444 88 q 699 107 653 88 q 793 168 744 126 l 793 717 l 911 717 l 911 0 l 808 0 l 803 78 z "},"ｖ":{"ha":1240,"x_min":267,"x_max":972,"o":"m 267 717 l 394 717 l 621 115 l 849 717 l 972 717 l 681 0 l 558 0 l 267 717 z "},"ｗ":{"ha":1240,"x_min":108,"x_max":1131,"o":"m 108 717 l 232 717 l 393 122 l 565 694 l 679 694 l 850 122 l 1013 717 l 1131 717 l 911 0 l 792 0 l 619 574 l 449 0 l 329 0 l 108 717 z "},"ｘ":{"ha":1240,"x_min":274,"x_max":964,"o":"m 553 374 l 299 717 l 433 717 l 621 453 l 810 717 l 939 717 l 685 375 l 964 0 l 825 0 l 618 290 l 407 0 l 274 0 l 553 374 z "},"ｙ":{"ha":1240,"x_min":294,"x_max":1000,"o":"m 424 -311 q 351 -305 382 -311 q 297 -285 321 -299 l 322 -189 q 360 -203 339 -199 q 414 -208 382 -208 q 501 -167 469 -208 q 561 -53 532 -126 l 588 10 l 294 717 l 422 717 l 649 129 l 876 717 l 1000 717 l 676 -60 q 628 -165 653 -118 q 575 -244 604 -211 q 510 -294 546 -276 q 424 -311 474 -311 z "},"ｚ":{"ha":1240,"x_min":338,"x_max":903,"o":"m 338 88 l 751 619 l 354 619 l 354 717 l 893 717 l 893 629 l 479 96 l 903 96 l 903 0 l 338 0 l 338 88 z "},"｛":{"ha":1240,"x_min":846,"x_max":1211,"o":"m 1140 -190 q 1051 -174 1090 -190 q 984 -127 1011 -157 q 943 -56 957 -97 q 929 33 929 -15 q 942 162 929 101 q 956 271 956 222 q 930 368 956 338 q 846 399 904 399 l 846 496 q 930 526 904 496 q 956 624 956 557 q 942 734 956 675 q 929 863 929 793 q 985 1023 929 961 q 1140 1085 1040 1085 l 1211 1085 l 1211 983 l 1174 983 q 1078 944 1108 983 q 1047 835 1047 906 q 1051 769 1047 797 q 1060 713 1056 740 q 1068 658 1064 686 q 1072 597 1072 631 q 1045 503 1072 544 q 965 447 1018 463 q 1045 392 1018 432 q 1072 299 1072 351 q 1068 237 1072 265 q 1060 181 1064 208 q 1051 124 1056 153 q 1047 60 1047 94 q 1078 -50 1047 -11 q 1174 -89 1108 -89 l 1211 -89 l 1211 -190 l 1140 -190 z "},"｜":{"ha":1240,"x_min":561,"x_max":679,"o":"m 561 -293 l 561 1032 l 679 1032 l 679 -293 l 561 -293 z "},"｝":{"ha":1240,"x_min":29,"x_max":394,"o":"m 29 -89 l 68 -89 q 163 -50 132 -89 q 193 60 193 -11 q 189 124 193 94 q 181 181 185 153 q 172 237 176 208 q 168 299 168 265 q 195 392 168 351 q 275 447 222 432 q 196 503 224 463 q 168 597 168 544 q 172 658 168 631 q 181 713 176 686 q 189 769 185 740 q 193 835 193 797 q 163 944 193 906 q 68 983 132 983 l 29 983 l 29 1085 l 100 1085 q 256 1023 201 1085 q 311 863 311 961 q 298 734 311 793 q 285 624 285 675 q 310 526 285 557 q 394 496 336 496 l 394 399 q 310 368 336 399 q 285 271 285 338 q 298 162 285 222 q 311 33 311 101 q 297 -56 311 -15 q 255 -127 282 -97 q 189 -174 228 -157 q 100 -190 150 -190 l 29 -190 l 29 -89 z "},"‾":{"ha":1240,"x_min":0,"x_max":1240,"o":"m 0 1235 l 1240 1235 l 1240 1132 l 0 1132 l 0 1235 z "},"￣":{"ha":1240,"x_min":0,"x_max":1240,"o":"m 0 1235 l 1240 1235 l 1240 1132 l 0 1132 l 0 1235 z "},"ㄱ":{"ha":1240,"x_min":185,"x_max":1033,"o":"m 858 51 q 898 281 886 164 q 910 506 910 397 l 910 594 l 185 594 l 185 703 l 1033 703 l 1033 532 q 1021 276 1033 396 q 982 40 1008 157 l 858 51 z "},"ㄲ":{"ha":1240,"x_min":124,"x_max":1079,"o":"m 913 56 q 933 167 925 107 q 947 287 942 226 q 954 405 951 347 q 957 510 957 463 l 957 606 l 657 606 l 657 713 l 1079 713 l 1079 538 q 1069 281 1079 414 q 1035 36 1058 147 l 913 56 m 361 63 q 391 173 378 114 q 413 291 404 232 q 426 407 421 350 q 431 510 431 464 l 431 606 l 124 606 l 124 713 l 553 713 l 553 557 q 548 426 553 494 q 533 290 543 358 q 511 159 524 222 q 483 43 499 96 l 361 63 z "},"ㄳ":{"ha":1240,"x_min":115,"x_max":1161,"o":"m 1090 46 q 970 176 1032 108 q 858 310 908 244 q 755 173 818 239 q 625 44 692 107 l 557 129 q 653 221 608 175 q 731 317 697 267 q 783 427 764 368 q 803 560 803 486 l 803 728 l 921 728 l 921 578 q 904 428 921 504 q 1026 280 957 357 q 1161 136 1094 203 l 1090 46 m 419 610 l 115 610 l 115 708 l 538 708 l 538 61 l 419 61 l 419 610 z "},"ㄴ":{"ha":1240,"x_min":211,"x_max":1047,"o":"m 211 81 l 211 710 l 335 710 l 335 189 l 1047 189 l 1047 81 l 211 81 z "},"ㄵ":{"ha":1240,"x_min":168,"x_max":1143,"o":"m 1072 74 q 953 184 1010 129 q 847 294 896 239 q 742 172 806 231 q 613 67 679 114 l 551 161 q 641 229 599 193 q 715 305 683 265 q 766 388 747 344 q 785 478 785 431 l 785 599 l 581 599 l 581 703 l 1106 703 l 1106 599 l 901 599 l 901 486 q 899 450 901 468 q 894 413 897 432 q 1009 289 947 350 q 1143 165 1071 228 l 1072 74 m 168 689 l 289 689 l 289 194 l 336 194 q 435 198 382 194 q 533 211 489 201 l 547 108 q 435 94 493 99 q 317 89 376 89 l 168 89 l 168 689 z "},"ㄶ":{"ha":1240,"x_min":165,"x_max":1125,"o":"m 165 700 l 285 700 l 285 190 l 339 190 q 431 194 383 190 q 518 207 478 199 l 532 108 q 428 92 483 97 q 301 88 372 88 l 165 88 l 165 700 m 839 38 q 653 91 722 38 q 585 244 585 144 q 653 399 585 344 q 839 453 722 453 q 1023 399 954 453 q 1092 244 1092 344 q 1024 91 1092 144 q 839 38 957 38 m 839 129 q 947 159 913 129 q 982 244 982 189 q 947 332 982 301 q 839 363 911 363 q 729 332 765 363 q 693 244 693 301 q 729 159 693 189 q 839 129 765 129 m 531 614 l 781 614 l 781 774 l 894 774 l 894 614 l 1125 614 l 1125 519 l 531 519 l 531 614 z "},"ㄷ":{"ha":1240,"x_min":204,"x_max":1046,"o":"m 204 72 l 204 717 l 1039 717 l 1039 611 l 328 611 l 328 179 l 1046 179 l 1046 72 l 204 72 z "},"ㄸ":{"ha":1240,"x_min":150,"x_max":1100,"o":"m 650 721 l 1092 721 l 1092 617 l 771 617 l 771 189 l 1100 189 l 1100 85 l 650 85 l 650 721 m 150 721 l 569 721 l 569 617 l 271 617 l 271 189 l 324 189 q 456 194 389 189 q 583 206 524 199 l 592 106 q 456 90 533 96 q 304 85 379 85 l 150 85 l 150 721 z "},"ㄹ":{"ha":1240,"x_min":199,"x_max":1068,"o":"m 199 443 l 917 443 l 917 621 l 199 621 l 199 726 l 1038 726 l 1038 340 l 319 340 l 319 158 l 1068 158 l 1068 54 l 199 54 l 199 443 z "},"ㄺ":{"ha":1240,"x_min":175,"x_max":1064,"o":"m 176 451 l 475 451 l 475 621 l 175 621 l 175 719 l 589 719 l 589 358 l 290 358 l 290 179 l 418 179 q 556 183 481 179 q 692 196 631 188 l 700 100 q 637 92 675 96 q 556 86 599 89 q 467 82 513 83 q 382 81 422 81 l 176 81 l 176 451 m 944 614 l 663 614 l 663 719 l 1064 719 l 1064 79 l 944 79 l 944 614 z "},"ㄻ":{"ha":1240,"x_min":164,"x_max":1076,"o":"m 165 450 l 465 450 l 465 624 l 164 624 l 164 719 l 571 719 l 571 361 l 278 361 l 278 176 l 363 176 q 479 181 413 176 q 603 193 546 185 l 611 101 q 553 93 586 97 q 485 86 521 89 q 413 82 450 83 q 343 81 376 81 l 165 81 l 165 450 m 665 719 l 1076 719 l 1076 75 l 665 75 l 665 719 m 969 176 l 969 619 l 769 619 l 769 176 l 969 176 z "},"ㄼ":{"ha":1240,"x_min":164,"x_max":1069,"o":"m 165 450 l 450 450 l 450 624 l 164 624 l 164 719 l 556 719 l 556 361 l 278 361 l 278 176 l 369 176 q 473 181 418 176 q 585 193 528 185 l 594 101 q 540 94 571 97 q 476 87 510 90 q 410 82 443 83 q 351 81 378 81 l 165 81 l 165 450 m 964 176 l 964 413 l 757 413 l 757 176 l 964 176 m 651 725 l 757 725 l 757 514 l 963 514 l 963 725 l 1069 725 l 1069 75 l 651 75 l 651 725 z "},"ㄽ":{"ha":1240,"x_min":174,"x_max":1172,"o":"m 175 450 l 486 450 l 486 624 l 174 624 l 174 719 l 600 719 l 600 361 l 286 361 l 286 176 l 372 176 q 485 181 421 176 q 604 194 550 185 l 618 101 q 563 94 594 97 q 494 87 531 90 q 422 82 458 83 q 354 81 385 81 l 175 81 l 175 450 m 1103 72 q 994 191 1047 129 q 893 315 940 253 q 803 186 857 249 q 685 69 750 124 l 618 156 q 706 240 665 197 q 776 329 747 282 q 822 428 806 376 q 839 542 839 481 l 839 731 l 950 731 l 950 557 q 938 439 950 497 q 1047 297 986 369 q 1172 161 1108 224 l 1103 72 z "},"ㄾ":{"ha":1240,"x_min":154,"x_max":1081,"o":"m 156 450 l 446 450 l 446 624 l 154 624 l 154 719 l 553 719 l 553 361 l 268 361 l 268 176 l 365 176 q 469 181 414 176 q 582 193 525 185 l 590 100 q 536 92 567 96 q 472 86 506 89 q 403 82 438 83 q 338 81 368 81 l 156 81 l 156 450 m 663 719 l 1064 719 l 1064 624 l 769 624 l 769 451 l 1053 451 l 1053 360 l 769 360 l 769 175 l 1081 175 l 1081 78 l 663 78 l 663 719 z "},"ㄿ":{"ha":1240,"x_min":175,"x_max":1111,"o":"m 176 450 l 461 450 l 461 624 l 175 624 l 175 719 l 568 719 l 568 361 l 289 361 l 289 176 l 378 176 q 426 177 399 176 q 483 180 454 178 q 539 185 511 182 q 588 192 567 188 l 597 99 q 479 85 549 90 q 343 81 410 81 l 176 81 l 176 450 m 632 176 l 724 176 l 701 533 l 807 533 l 821 176 l 921 176 l 935 533 l 1040 533 l 1018 176 l 1111 176 l 1111 79 l 632 79 l 632 176 m 639 719 l 1101 719 l 1101 622 l 639 622 l 639 719 z "},"ㅀ":{"ha":1240,"x_min":164,"x_max":1128,"o":"m 165 450 l 443 450 l 443 624 l 164 624 l 164 719 l 550 719 l 550 360 l 278 360 l 278 175 l 365 175 q 469 180 411 175 q 583 193 528 185 l 592 99 q 541 91 571 94 q 478 85 511 88 q 413 81 446 82 q 353 79 379 79 l 165 79 l 165 450 m 863 54 q 697 109 760 54 q 635 264 635 164 q 697 419 635 364 q 863 474 760 474 q 1028 419 967 474 q 1089 264 1089 364 q 1028 109 1089 164 q 863 54 967 54 m 863 143 q 955 173 921 143 q 989 264 989 203 q 955 355 989 325 q 863 385 921 385 q 770 355 804 385 q 736 264 736 325 q 770 173 736 203 q 863 143 804 143 m 606 632 l 813 632 l 813 783 l 919 783 l 919 632 l 1128 632 l 1128 540 l 606 540 l 606 632 z "},"ㅁ":{"ha":1240,"x_min":199,"x_max":1042,"o":"m 199 721 l 1042 721 l 1042 71 l 199 71 l 199 721 m 921 174 l 921 618 l 321 618 l 321 174 l 921 174 z "},"ㅂ":{"ha":1240,"x_min":201,"x_max":1040,"o":"m 201 726 l 324 726 l 324 497 l 918 497 l 918 726 l 1040 726 l 1040 64 l 201 64 l 201 726 m 918 167 l 918 394 l 324 394 l 324 167 l 918 167 z "},"ㅃ":{"ha":1240,"x_min":157,"x_max":1083,"o":"m 157 722 l 265 722 l 265 492 l 464 492 l 464 722 l 571 722 l 571 68 l 157 68 l 157 722 m 464 168 l 464 390 l 265 390 l 265 168 l 464 168 m 669 722 l 778 722 l 778 492 l 975 492 l 975 722 l 1083 722 l 1083 68 l 669 68 l 669 722 m 975 168 l 975 390 l 778 390 l 778 168 l 975 168 z "},"ㅄ":{"ha":1240,"x_min":167,"x_max":1181,"o":"m 167 715 l 272 715 l 272 501 l 503 501 l 503 715 l 610 715 l 610 89 l 167 89 l 167 715 m 1111 76 q 1000 195 1054 133 q 899 318 946 257 q 807 191 863 253 q 686 76 751 129 l 619 163 q 709 244 668 203 q 780 332 750 286 q 826 429 810 378 q 843 539 843 481 l 843 721 l 957 721 l 957 554 q 953 497 957 526 q 944 438 950 467 q 1054 299 993 369 q 1181 165 1115 228 l 1111 76 m 503 186 l 503 406 l 272 406 l 272 186 l 503 186 z "},"ㅅ":{"ha":1240,"x_min":108,"x_max":1126,"o":"m 1071 71 q 822 210 938 139 q 607 351 707 281 q 525 272 574 310 q 418 199 476 233 q 294 132 360 164 q 161 71 229 100 l 108 175 q 295 264 213 221 q 435 355 378 307 q 524 456 493 403 q 554 576 554 510 l 554 739 l 679 739 l 679 594 q 676 530 679 564 q 667 465 674 496 l 663 453 q 878 311 763 382 q 1126 172 993 240 l 1071 71 z "},"ㅆ":{"ha":1240,"x_min":56,"x_max":1183,"o":"m 621 69 q 486 199 550 128 q 371 340 422 269 q 267 195 331 265 q 131 69 204 125 l 56 160 q 152 246 107 200 q 231 342 197 292 q 285 450 265 393 q 304 569 304 507 l 304 731 l 426 731 l 426 589 q 424 532 426 561 q 417 475 421 503 q 511 344 458 408 q 625 221 564 279 q 759 376 706 290 q 813 569 813 463 l 813 731 l 935 731 l 935 589 q 932 531 935 560 q 924 474 929 501 q 1047 310 978 394 q 1183 160 1115 225 l 1106 69 q 987 200 1047 128 q 876 343 926 272 q 762 193 832 264 q 621 69 692 122 z "},"ㅇ":{"ha":1240,"x_min":186,"x_max":1054,"o":"m 621 88 q 296 174 406 88 q 186 414 186 260 q 296 654 186 568 q 621 740 406 740 q 944 654 835 740 q 1054 414 1054 568 q 944 174 1054 260 q 621 88 835 88 m 621 194 q 855 251 778 194 q 932 414 932 308 q 855 577 932 521 q 621 633 778 633 q 385 577 463 633 q 308 414 308 521 q 385 251 308 308 q 621 194 463 194 z "},"ㅈ":{"ha":1240,"x_min":122,"x_max":1115,"o":"m 165 713 l 1075 713 l 1075 608 l 683 608 l 683 529 q 680 485 683 508 q 669 436 676 461 l 665 425 q 871 309 757 369 q 1115 188 985 249 l 1061 90 q 819 211 933 150 q 610 332 706 272 q 431 201 544 260 q 176 86 317 142 l 122 185 q 301 259 221 222 q 440 337 382 296 q 528 424 497 378 q 560 525 560 469 l 560 608 l 165 608 l 165 713 z "},"ㅉ":{"ha":1240,"x_min":81,"x_max":1158,"o":"m 1088 75 q 975 188 1035 125 q 867 311 915 251 q 756 179 822 240 q 621 71 690 118 q 487 182 551 119 q 372 303 422 244 q 276 177 333 236 q 153 72 219 118 l 81 160 q 169 232 128 193 q 242 315 211 271 q 292 410 274 358 q 311 519 311 461 l 311 608 l 118 608 l 118 713 l 585 713 l 585 608 l 432 608 l 432 526 q 430 479 432 503 q 424 435 428 456 l 419 415 q 517 305 463 361 q 626 204 571 249 q 695 268 663 235 q 753 340 728 301 q 792 422 778 379 q 807 515 807 465 l 807 608 l 656 608 l 656 713 l 1122 713 l 1122 608 l 928 608 l 928 526 q 926 483 928 506 q 921 442 925 461 l 917 425 q 1032 288 967 358 q 1158 161 1097 218 l 1088 75 z "},"ㅊ":{"ha":1240,"x_min":121,"x_max":1121,"o":"m 158 671 l 558 671 l 558 829 l 685 829 l 685 671 l 1083 671 l 1083 567 l 685 567 l 685 513 q 683 454 685 481 q 674 404 681 428 l 674 403 q 877 288 764 349 q 1121 168 990 226 l 1065 71 q 822 190 936 129 q 615 308 707 250 q 531 238 581 271 q 424 176 482 206 q 301 122 365 147 q 172 71 236 96 l 121 169 q 292 238 213 206 q 431 308 372 271 q 524 390 490 344 q 558 499 558 436 l 558 567 l 158 567 l 158 671 z "},"ㅋ":{"ha":1240,"x_min":171,"x_max":1047,"o":"m 171 411 l 924 417 q 926 463 925 440 q 926 506 926 485 l 926 622 l 200 622 l 200 726 l 1047 726 l 1047 533 q 1035 283 1047 410 q 999 50 1022 156 l 879 68 q 902 190 893 126 q 917 317 911 253 l 175 306 l 171 411 z "},"ㅌ":{"ha":1240,"x_min":199,"x_max":1054,"o":"m 199 726 l 1044 726 l 1044 621 l 321 621 l 321 442 l 1022 442 l 1022 339 l 321 339 l 321 158 l 1054 158 l 1054 54 l 199 54 l 199 726 z "},"ㅍ":{"ha":1240,"x_min":149,"x_max":1092,"o":"m 1092 79 l 149 79 l 149 183 l 346 183 l 317 549 l 440 549 l 465 183 l 774 183 l 800 549 l 924 549 l 893 183 l 1092 183 l 1092 79 m 151 718 l 1089 718 l 1089 613 l 151 613 l 151 718 z "},"ㅎ":{"ha":1240,"x_min":131,"x_max":1110,"o":"m 621 4 q 333 69 433 4 q 232 253 232 135 q 333 435 232 371 q 621 500 433 500 q 908 435 807 500 q 1008 253 1008 371 q 908 69 1008 135 q 621 4 807 4 m 621 111 q 820 147 753 111 q 888 253 888 182 q 820 359 888 324 q 621 394 753 394 q 421 359 489 394 q 353 253 353 324 q 421 147 353 182 q 621 111 489 111 m 131 686 l 556 686 l 556 847 l 685 847 l 685 686 l 1110 686 l 1110 579 l 131 579 l 131 686 z "},"ㅏ":{"ha":1240,"x_min":582,"x_max":897,"o":"m 582 1078 l 704 1078 l 704 561 l 897 561 l 897 454 l 704 454 l 704 -154 l 582 -154 l 582 1078 z "},"ㅐ":{"ha":1240,"x_min":446,"x_max":860,"o":"m 743 467 l 561 467 l 561 -97 l 446 -97 l 446 1056 l 561 1056 l 561 574 l 743 574 l 743 1078 l 860 1078 l 860 -154 l 743 -154 l 743 467 z "},"ㅑ":{"ha":1240,"x_min":582,"x_max":901,"o":"m 582 1078 l 704 1078 l 704 728 l 901 728 l 901 624 l 704 624 l 704 379 l 901 379 l 901 275 l 704 275 l 704 -154 l 582 -154 l 582 1078 z "},"ㅒ":{"ha":1240,"x_min":446,"x_max":860,"o":"m 743 292 l 561 292 l 561 -97 l 446 -97 l 446 1056 l 561 1056 l 561 722 l 743 722 l 743 1078 l 860 1078 l 860 -154 l 743 -154 l 743 292 m 561 393 l 743 393 l 743 622 l 561 622 l 561 393 z "},"ㅓ":{"ha":1240,"x_min":431,"x_max":819,"o":"m 431 561 l 697 561 l 697 1078 l 819 1078 l 819 -154 l 697 -154 l 697 453 l 431 453 l 431 561 z "},"ㅔ":{"ha":1240,"x_min":261,"x_max":874,"o":"m 261 561 l 493 561 l 493 1056 l 608 1056 l 608 -97 l 493 -97 l 493 454 l 261 454 l 261 561 m 757 1078 l 874 1078 l 874 -154 l 757 -154 l 757 1078 z "},"ㅕ":{"ha":1240,"x_min":431,"x_max":819,"o":"m 431 728 l 697 728 l 697 1078 l 819 1078 l 819 -154 l 697 -154 l 697 275 l 431 275 l 431 379 l 697 379 l 697 624 l 431 624 l 431 728 z "},"ㅖ":{"ha":1240,"x_min":261,"x_max":874,"o":"m 261 710 l 493 710 l 493 1056 l 608 1056 l 608 -97 l 493 -97 l 493 286 l 261 286 l 261 386 l 493 386 l 493 610 l 261 610 l 261 710 m 757 1078 l 874 1078 l 874 -154 l 757 -154 l 757 1078 z "},"ㅗ":{"ha":1240,"x_min":54,"x_max":1188,"o":"m 54 242 l 560 242 l 560 618 l 681 618 l 681 242 l 1188 242 l 1188 138 l 54 138 l 54 242 z "},"ㅘ":{"ha":1240,"x_min":46,"x_max":1221,"o":"m 928 1078 l 1049 1078 l 1049 574 l 1221 574 l 1221 471 l 1049 471 l 1049 -154 l 928 -154 l 928 1078 m 46 206 l 236 206 q 298 206 268 206 q 360 207 328 206 l 360 546 l 483 546 l 483 210 q 657 219 572 214 q 818 235 742 225 l 828 136 q 546 110 697 119 q 240 101 394 101 l 46 101 l 46 206 z "},"ㅙ":{"ha":1240,"x_min":46,"x_max":1136,"o":"m 1021 468 l 865 468 l 865 -101 l 753 -101 l 753 1056 l 865 1056 l 865 569 l 1021 569 l 1021 1078 l 1136 1078 l 1136 -154 l 1021 -154 l 1021 468 m 46 200 l 231 200 l 303 200 l 303 518 l 417 518 l 417 203 q 557 211 492 206 q 676 224 622 217 l 686 128 q 480 108 597 117 q 232 100 363 100 l 46 100 l 46 200 z "},"ㅚ":{"ha":1240,"x_min":67,"x_max":1096,"o":"m 974 1078 l 1096 1078 l 1096 -154 l 974 -154 l 974 1078 m 67 206 l 257 206 q 328 206 293 206 q 400 207 364 206 l 400 560 l 524 560 l 524 211 q 703 220 615 214 q 872 236 790 226 l 882 138 q 583 110 743 119 q 263 101 422 101 l 67 101 l 67 206 z "},"ㅛ":{"ha":1240,"x_min":54,"x_max":1188,"o":"m 54 242 l 375 242 l 375 625 l 496 625 l 496 242 l 760 242 l 760 625 l 881 625 l 881 242 l 1188 242 l 1188 138 l 54 138 l 54 242 z "},"ㅜ":{"ha":1240,"x_min":54,"x_max":1188,"o":"m 54 542 l 1188 542 l 1188 439 l 681 439 l 681 -12 l 560 -12 l 560 439 l 54 439 l 54 542 z "},"ㅝ":{"ha":1240,"x_min":53,"x_max":1110,"o":"m 703 258 l 988 258 l 988 1078 l 1110 1078 l 1110 -154 l 988 -154 l 988 165 l 703 165 l 703 258 m 385 349 q 316 347 350 347 q 249 347 282 347 l 53 347 l 53 450 l 243 450 q 561 458 404 450 q 858 483 718 467 l 868 386 q 694 367 785 375 q 508 353 604 358 l 508 -112 l 385 -112 l 385 349 z "},"ㅞ":{"ha":1240,"x_min":46,"x_max":1136,"o":"m 553 269 l 776 269 l 776 1058 l 890 1058 l 890 -99 l 776 -99 l 776 176 l 553 176 l 553 269 m 1021 1078 l 1136 1078 l 1136 -154 l 1021 -154 l 1021 1078 m 308 381 l 233 381 l 46 381 l 46 479 l 232 479 q 485 488 363 479 q 703 508 607 496 l 713 414 q 579 397 651 404 q 426 386 507 390 l 426 -79 l 308 -79 l 308 381 z "},"ㅟ":{"ha":1240,"x_min":67,"x_max":1096,"o":"m 974 1078 l 1096 1078 l 1096 -154 l 974 -154 l 974 1078 m 397 335 q 329 333 363 333 q 263 333 296 333 l 67 333 l 67 439 l 257 439 q 575 447 418 439 q 872 472 732 456 l 882 372 q 708 353 799 361 q 521 339 617 344 l 521 -112 l 397 -112 l 397 335 z "},"ㅠ":{"ha":1240,"x_min":54,"x_max":1188,"o":"m 778 439 l 463 439 l 463 -12 l 342 -12 l 342 439 l 54 439 l 54 542 l 1188 542 l 1188 439 l 899 439 l 899 -12 l 778 -12 l 778 439 z "},"ㅡ":{"ha":1240,"x_min":54,"x_max":1188,"o":"m 54 446 l 1188 446 l 1188 342 l 54 342 l 54 446 z "},"ㅢ":{"ha":1240,"x_min":67,"x_max":1096,"o":"m 67 261 l 257 261 q 577 269 421 261 q 872 292 733 276 l 882 190 q 583 164 743 172 q 263 156 422 156 l 67 156 l 67 261 m 974 1078 l 1096 1078 l 1096 -154 l 974 -154 l 974 1078 z "},"ㅣ":{"ha":1240,"x_min":557,"x_max":681,"o":"m 557 1078 l 681 1078 l 681 -154 l 557 -154 l 557 1078 z "},"ㅥ":{"ha":1240,"x_min":211,"x_max":1060,"o":"m 211 81 l 211 710 l 335 710 l 335 189 l 588 189 l 588 81 l 211 81 m 683 81 l 683 710 l 807 710 l 807 189 l 1060 189 l 1060 81 l 683 81 z "},"ㅦ":{"ha":1240,"x_min":211,"x_max":1046,"o":"m 211 81 l 211 710 l 335 710 l 335 189 l 565 189 l 565 81 l 211 81 m 635 72 l 635 717 l 1039 717 l 1039 613 l 757 613 l 757 178 l 1046 178 l 1046 72 l 635 72 z "},"ㅧ":{"ha":1240,"x_min":185,"x_max":1154,"o":"m 1085 68 q 974 187 1028 125 q 872 310 919 249 q 781 183 836 244 q 661 68 725 121 l 593 154 q 683 236 642 194 q 754 324 724 278 q 801 421 785 369 q 818 532 818 472 l 818 719 l 931 719 l 931 547 q 928 487 931 517 q 919 428 925 457 q 1029 291 968 361 q 1154 158 1090 221 l 1085 68 m 185 81 l 185 710 l 307 710 l 307 189 l 551 189 l 551 81 l 185 81 z "},"ㅨ":{"ha":1240,"x_min":185,"x_max":1111,"o":"m 825 736 l 896 736 l 1111 76 l 613 76 l 825 736 m 979 171 l 860 542 l 746 171 l 979 171 m 185 81 l 185 710 l 307 710 l 307 189 l 551 189 l 551 81 l 185 81 z "},"ㅩ":{"ha":1240,"x_min":131,"x_max":1165,"o":"m 133 443 l 321 443 l 321 618 l 131 618 l 131 711 l 418 711 l 418 354 l 235 354 l 235 176 l 288 176 q 376 179 328 176 q 461 189 424 182 l 471 96 q 381 85 431 89 q 283 81 332 81 l 133 81 l 133 443 m 1100 64 q 1026 172 1063 117 q 960 285 990 228 q 896 165 933 222 q 817 60 858 107 l 747 133 q 808 216 779 172 q 859 311 838 260 q 894 421 881 363 q 907 546 907 479 l 907 714 l 1008 714 l 1008 556 q 1005 486 1008 519 q 997 421 1001 453 q 1077 276 1032 350 q 1165 143 1122 203 l 1100 64 m 640 613 l 464 613 l 464 710 l 742 710 l 742 74 l 640 74 l 640 613 z "},"ㅪ":{"ha":1240,"x_min":165,"x_max":1086,"o":"m 167 451 l 461 451 l 461 625 l 165 625 l 165 721 l 567 721 l 567 361 l 278 361 l 278 176 l 363 176 q 476 181 413 176 q 596 194 539 186 l 606 101 q 549 94 581 97 q 483 87 518 90 q 412 82 447 83 q 343 81 376 81 l 167 81 l 167 451 m 688 85 l 688 722 l 1081 722 l 1081 621 l 804 621 l 804 186 l 1086 186 l 1086 85 l 688 85 z "},"ㅫ":{"ha":1240,"x_min":131,"x_max":1168,"o":"m 475 711 l 569 711 l 569 490 l 690 490 l 690 711 l 786 711 l 786 90 l 475 90 l 475 711 m 133 442 l 300 442 l 300 622 l 131 622 l 131 711 l 394 711 l 394 357 l 235 357 l 235 172 l 288 172 q 356 175 322 172 q 422 183 390 178 l 428 94 q 346 84 394 88 q 254 81 297 81 l 133 81 l 133 442 m 1108 68 q 986 289 1046 167 q 926 168 961 226 q 851 63 890 110 l 794 139 q 849 219 824 178 q 893 310 875 261 q 922 415 911 358 q 932 538 932 471 l 932 714 l 1032 714 l 1032 549 q 1024 428 1032 482 q 1091 281 1054 354 q 1168 144 1128 207 l 1108 68 m 690 171 l 690 407 l 569 407 l 569 171 l 690 171 z "},"ㅬ":{"ha":1240,"x_min":165,"x_max":1111,"o":"m 167 451 l 461 451 l 461 625 l 165 625 l 165 721 l 567 721 l 567 361 l 278 361 l 278 176 l 356 176 q 463 181 400 176 q 582 194 525 186 l 590 101 q 535 94 567 97 q 471 87 504 90 q 404 82 438 83 q 343 81 371 81 l 167 81 l 167 451 m 825 736 l 896 736 l 1111 76 l 613 76 l 825 736 m 979 171 l 860 542 l 746 171 l 979 171 z "},"ㅭ":{"ha":1240,"x_min":165,"x_max":1151,"o":"m 167 451 l 461 451 l 461 625 l 165 625 l 165 721 l 567 721 l 567 361 l 278 361 l 278 176 l 363 176 q 476 181 413 176 q 596 194 539 186 l 606 101 q 549 94 581 97 q 483 87 518 90 q 412 82 447 83 q 343 81 376 81 l 167 81 l 167 451 m 656 719 l 1151 719 l 1151 622 l 656 622 l 656 719 m 890 49 q 706 108 768 49 q 643 285 643 167 q 706 461 643 403 q 890 519 768 519 q 1075 461 1013 519 q 1138 285 1138 403 q 1075 108 1138 167 q 890 49 1013 49 m 890 146 q 996 180 965 146 q 1026 285 1026 214 q 996 389 1026 356 q 890 422 965 422 q 785 389 815 422 q 754 285 754 356 q 785 180 754 214 q 890 146 815 146 z "},"ㅮ":{"ha":1240,"x_min":165,"x_max":1076,"o":"m 165 718 l 567 718 l 567 74 l 165 74 l 165 718 m 458 171 l 458 621 l 274 621 l 274 171 l 458 171 m 661 729 l 768 729 l 768 500 l 968 500 l 968 729 l 1076 729 l 1076 74 l 661 74 l 661 729 m 968 171 l 968 403 l 768 403 l 768 171 l 968 171 z "},"ㅯ":{"ha":1240,"x_min":179,"x_max":1154,"o":"m 179 718 l 579 718 l 579 74 l 179 74 l 179 718 m 1085 68 q 974 187 1028 125 q 872 310 919 249 q 781 183 836 244 q 661 68 725 121 l 593 153 q 683 235 642 193 q 755 323 725 276 q 802 421 785 369 q 819 532 819 472 l 819 719 l 929 719 l 929 547 q 927 487 929 517 q 918 426 925 457 q 1028 289 967 360 q 1154 156 1089 218 l 1085 68 m 472 171 l 472 621 l 286 621 l 286 171 l 472 171 z "},"ㅰ":{"ha":1240,"x_min":165,"x_max":1111,"o":"m 825 736 l 896 736 l 1111 76 l 613 76 l 825 736 m 979 171 l 860 542 l 746 171 l 979 171 m 165 718 l 572 718 l 572 74 l 165 74 l 165 718 m 465 171 l 465 621 l 274 621 l 274 171 l 465 171 z "},"ㅱ":{"ha":1240,"x_min":244,"x_max":996,"o":"m 621 -71 q 472 -25 529 -71 q 414 111 414 21 q 472 247 414 201 q 621 292 529 292 q 769 247 713 292 q 826 111 826 201 q 769 -25 826 21 q 621 -71 713 -71 m 621 17 q 699 40 671 17 q 726 111 726 64 q 699 181 726 158 q 621 204 671 204 q 542 181 571 204 q 514 111 514 158 q 542 40 514 64 q 621 17 571 17 m 244 839 l 996 839 l 996 354 l 244 354 l 244 839 m 878 453 l 878 740 l 363 740 l 363 453 l 878 453 z "},"ㅲ":{"ha":1240,"x_min":179,"x_max":1060,"o":"m 949 618 l 665 618 l 665 717 l 1060 717 l 1060 79 l 949 79 l 949 618 m 179 722 l 286 722 l 286 497 l 488 497 l 488 722 l 594 722 l 594 74 l 179 74 l 179 722 m 488 171 l 488 400 l 286 400 l 286 171 l 488 171 z "},"ㅳ":{"ha":1240,"x_min":165,"x_max":1081,"o":"m 165 722 l 272 722 l 272 497 l 474 497 l 474 722 l 581 722 l 581 74 l 165 74 l 165 722 m 474 171 l 474 400 l 272 400 l 272 171 l 474 171 m 693 78 l 693 715 l 1074 715 l 1074 614 l 811 614 l 811 179 l 1081 179 l 1081 78 l 693 78 z "},"ㅴ":{"ha":1240,"x_min":144,"x_max":1096,"o":"m 144 711 l 239 711 l 239 490 l 361 490 l 361 711 l 454 711 l 454 90 l 144 90 l 144 711 m 807 67 q 734 177 769 119 q 668 292 699 235 q 603 169 642 228 q 525 63 565 111 l 460 138 q 521 220 492 176 q 572 315 550 264 q 606 423 593 365 q 618 546 618 481 l 618 714 l 717 714 l 717 556 q 714 488 717 519 q 707 424 711 456 l 707 422 q 783 279 740 353 q 871 147 826 206 l 807 67 m 993 615 l 808 615 l 808 713 l 1096 713 l 1096 82 l 993 82 l 993 615 m 361 171 l 361 407 l 239 407 l 239 171 l 361 171 z "},"ㅵ":{"ha":1240,"x_min":144,"x_max":1118,"o":"m 454 128 l 454 90 l 144 90 l 144 711 l 239 711 l 239 490 l 361 490 l 361 711 l 454 711 l 454 147 q 558 321 515 224 q 601 546 601 418 l 601 714 l 700 714 l 700 556 q 698 488 700 519 q 690 424 696 456 q 689 415 689 421 q 765 276 722 347 q 847 147 807 206 l 785 67 q 715 175 750 119 q 650 286 681 231 q 588 167 625 224 q 511 63 551 110 l 454 128 m 847 86 l 847 714 l 1113 714 l 1113 628 l 943 628 l 943 172 l 1118 172 l 1118 86 l 847 86 m 361 171 l 361 407 l 239 407 l 239 171 l 361 171 z "},"ㅶ":{"ha":1240,"x_min":150,"x_max":1122,"o":"m 150 719 l 257 719 l 257 494 l 450 494 l 450 719 l 558 719 l 558 72 l 150 72 l 150 719 m 1056 67 q 956 174 1004 119 q 863 283 907 229 q 773 164 828 221 q 654 60 718 107 l 593 147 q 676 216 638 179 q 742 294 714 253 q 788 381 771 336 q 804 476 804 426 l 804 618 l 626 618 l 626 717 l 1090 717 l 1090 618 l 913 618 l 913 475 q 911 438 913 457 q 906 397 910 418 q 1007 272 953 335 q 1122 150 1061 208 l 1056 67 m 450 169 l 450 399 l 257 399 l 257 169 l 450 169 z "},"ㅷ":{"ha":1240,"x_min":153,"x_max":1076,"o":"m 664 721 l 1068 721 l 1068 621 l 781 621 l 781 446 l 1046 446 l 1046 347 l 781 347 l 781 172 l 1076 172 l 1076 74 l 664 74 l 664 721 m 153 719 l 261 719 l 261 494 l 454 494 l 454 719 l 561 719 l 561 72 l 153 72 l 153 719 m 454 169 l 454 399 l 261 399 l 261 169 l 454 169 z "},"ㅸ":{"ha":1240,"x_min":244,"x_max":996,"o":"m 621 -71 q 472 -25 529 -71 q 414 111 414 21 q 472 247 414 201 q 621 292 529 292 q 769 247 713 292 q 826 111 826 201 q 769 -25 826 21 q 621 -71 713 -71 m 621 17 q 699 40 671 17 q 726 111 726 64 q 699 181 726 158 q 621 204 671 204 q 542 181 571 204 q 514 111 514 158 q 542 40 514 64 q 621 17 571 17 m 244 847 l 361 847 l 361 692 l 879 692 l 879 847 l 996 847 l 996 344 l 244 344 l 244 847 m 879 442 l 879 593 l 361 593 l 361 442 l 879 442 z "},"ㅹ":{"ha":1240,"x_min":197,"x_max":1043,"o":"m 621 -71 q 472 -25 529 -71 q 414 111 414 21 q 472 247 414 201 q 621 292 529 292 q 769 247 713 292 q 826 111 826 201 q 769 -25 826 21 q 621 -71 713 -71 m 621 17 q 699 40 671 17 q 726 111 726 64 q 699 181 726 158 q 621 204 671 204 q 542 181 571 204 q 514 111 514 158 q 542 40 514 64 q 621 17 571 17 m 197 844 l 299 844 l 299 676 l 471 676 l 471 844 l 571 844 l 571 338 l 197 338 l 197 844 m 471 428 l 471 585 l 299 585 l 299 428 l 471 428 m 669 844 l 769 844 l 769 676 l 942 676 l 942 844 l 1043 844 l 1043 338 l 669 338 l 669 844 m 942 428 l 942 585 l 769 585 l 769 428 l 942 428 z "},"ㅺ":{"ha":1240,"x_min":99,"x_max":1067,"o":"m 629 54 q 510 182 571 114 q 399 313 449 250 q 297 177 358 242 q 168 53 235 113 l 99 139 q 193 226 149 182 q 270 321 238 271 q 322 429 303 371 q 342 558 342 488 l 342 722 l 461 722 l 461 576 q 457 503 461 540 q 446 429 453 467 q 566 284 497 360 q 700 144 635 208 l 629 54 m 949 611 l 650 611 l 650 710 l 1067 710 l 1067 76 l 949 76 l 949 611 z "},"ㅻ":{"ha":1240,"x_min":94,"x_max":1121,"o":"m 586 56 q 476 174 531 113 q 375 296 421 236 q 283 169 339 231 q 163 56 226 108 l 94 142 q 184 224 143 182 q 256 311 225 265 q 303 408 286 357 q 319 519 319 460 l 319 724 l 432 724 l 432 533 q 421 415 432 479 q 531 278 469 347 q 656 146 592 208 l 586 56 m 718 83 l 718 726 l 840 726 l 840 192 l 1121 192 l 1121 83 l 718 83 z "},"ㅼ":{"ha":1240,"x_min":88,"x_max":1078,"o":"m 667 79 l 667 724 l 1071 724 l 1071 619 l 789 619 l 789 185 l 1078 185 l 1078 79 l 667 79 m 581 61 q 469 181 524 118 q 368 304 414 243 q 276 176 332 238 q 156 61 219 115 l 88 149 q 178 231 136 189 q 249 318 219 272 q 296 415 279 364 q 313 525 313 467 l 313 724 l 426 724 l 426 540 q 414 422 426 481 q 524 284 463 354 q 650 151 586 214 l 581 61 z "},"ㅽ":{"ha":1240,"x_min":78,"x_max":1096,"o":"m 653 714 l 758 714 l 758 501 l 989 501 l 989 714 l 1096 714 l 1096 89 l 653 89 l 653 714 m 564 69 q 457 188 511 128 q 357 308 403 249 q 265 183 321 243 q 146 69 208 122 l 78 156 q 167 238 126 196 q 239 325 208 279 q 286 422 269 371 q 303 532 303 474 l 303 719 l 415 719 l 415 547 q 403 426 415 486 q 510 291 451 360 q 632 160 569 222 l 564 69 m 989 185 l 989 406 l 758 406 l 758 185 l 989 185 z "},"ㅾ":{"ha":1240,"x_min":78,"x_max":1143,"o":"m 610 67 q 552 119 583 90 q 490 178 521 147 q 428 240 458 208 q 371 304 397 272 q 276 178 333 239 q 153 65 218 118 l 78 149 q 168 228 126 188 q 241 313 210 268 q 290 408 272 357 q 307 517 307 458 l 307 717 l 426 717 l 426 529 q 424 476 426 501 q 415 422 421 450 q 509 311 456 368 q 615 206 563 254 q 682 267 650 235 q 738 333 714 299 q 775 405 761 368 q 789 482 789 442 l 789 607 l 600 607 l 600 710 l 1097 710 l 1097 607 l 900 607 l 900 483 q 898 448 900 467 q 893 410 896 429 q 1008 286 946 347 q 1143 163 1069 225 l 1071 72 q 953 183 1008 128 q 847 294 897 239 q 740 172 806 231 q 610 67 675 113 z "},"ㅿ":{"ha":1240,"x_min":154,"x_max":1086,"o":"m 590 736 l 647 736 l 1086 76 l 154 76 l 590 736 m 894 171 l 619 586 l 346 171 l 894 171 z "},"ㆀ":{"ha":1240,"x_min":106,"x_max":1135,"o":"m 349 85 q 250 106 294 85 q 174 167 206 126 q 124 265 142 207 q 106 399 106 324 q 124 532 106 474 q 174 631 142 590 q 250 692 206 671 q 349 713 294 713 q 525 631 458 713 q 592 399 592 550 q 525 166 592 247 q 349 85 458 85 m 349 185 q 442 240 410 185 q 474 399 474 296 q 442 557 474 501 q 349 613 410 613 q 258 557 290 613 q 225 399 225 501 q 258 240 225 296 q 349 185 290 185 m 892 85 q 716 167 783 85 q 649 399 649 249 q 716 631 649 549 q 892 713 783 713 q 990 692 946 713 q 1067 631 1035 671 q 1117 532 1099 590 q 1135 399 1135 474 q 1117 265 1135 324 q 1067 167 1099 207 q 990 106 1035 126 q 892 85 946 85 m 892 185 q 983 240 951 185 q 1015 399 1015 296 q 983 557 1015 501 q 892 613 951 613 q 799 557 831 613 q 767 399 767 501 q 799 240 767 296 q 892 185 831 185 z "},"ㆁ":{"ha":1240,"x_min":194,"x_max":1046,"o":"m 621 33 q 303 119 411 33 q 194 360 194 206 q 287 587 194 503 q 561 683 379 671 l 561 867 l 681 867 l 681 683 q 953 587 861 671 q 1046 360 1046 503 q 938 119 1046 206 q 621 33 831 33 m 621 140 q 849 197 774 140 q 924 360 924 254 q 849 523 924 467 q 621 579 774 579 q 392 523 467 579 q 317 360 317 467 q 392 197 317 254 q 621 140 467 140 z "},"ㆂ":{"ha":1240,"x_min":108,"x_max":1181,"o":"m 368 47 q 176 124 244 47 q 108 343 108 201 q 159 540 108 465 q 306 633 210 614 l 306 775 l 425 775 l 425 633 q 574 542 521 617 q 626 343 626 468 q 558 124 626 200 q 368 47 490 47 m 1111 68 q 999 188 1054 125 q 899 310 944 250 q 807 183 863 244 q 688 68 751 122 l 619 154 q 709 236 668 194 q 781 324 750 278 q 828 421 811 369 q 844 532 844 472 l 844 719 l 958 719 l 958 547 q 946 428 958 486 q 1056 291 994 361 q 1181 158 1117 221 l 1111 68 m 368 149 q 476 198 439 149 q 514 343 514 247 q 476 488 514 439 q 368 538 439 538 q 259 488 296 538 q 222 343 222 439 q 259 198 222 247 q 368 149 296 149 z "},"ㆃ":{"ha":1240,"x_min":108,"x_max":1139,"o":"m 368 47 q 176 124 244 47 q 108 343 108 201 q 159 540 108 465 q 306 633 210 614 l 306 775 l 425 775 l 425 633 q 574 542 521 617 q 626 343 626 468 q 558 124 626 200 q 368 47 490 47 m 851 736 l 924 736 l 1139 76 l 640 76 l 851 736 m 368 149 q 476 198 439 149 q 514 343 514 247 q 476 488 514 439 q 368 538 439 538 q 259 488 296 538 q 222 343 222 439 q 259 198 222 247 q 368 149 296 149 m 1010 171 l 888 549 l 768 171 l 1010 171 z "},"ㆄ":{"ha":1240,"x_min":201,"x_max":1040,"o":"m 1040 361 l 201 361 l 201 456 l 367 456 l 346 689 l 468 689 l 486 456 l 754 456 l 772 689 l 894 689 l 872 456 l 1040 456 l 1040 361 m 621 -71 q 472 -25 529 -71 q 414 111 414 21 q 472 247 414 201 q 621 292 529 292 q 769 247 713 292 q 826 111 826 201 q 769 -25 826 21 q 621 -71 713 -71 m 204 836 l 1036 836 l 1036 740 l 204 740 l 204 836 m 621 17 q 699 40 671 17 q 726 111 726 64 q 699 181 726 158 q 621 204 671 204 q 542 181 571 204 q 514 111 514 158 q 542 40 514 64 q 621 17 571 17 z "},"ㆅ":{"ha":1240,"x_min":97,"x_max":1143,"o":"m 354 60 q 258 76 301 60 q 185 124 215 93 q 139 197 156 154 q 122 290 122 239 q 139 385 122 342 q 185 458 156 428 q 258 506 215 489 q 354 522 301 522 q 520 458 458 522 q 582 290 582 394 q 520 123 582 186 q 354 60 458 60 m 354 147 q 447 184 413 147 q 481 290 481 221 q 447 397 481 360 q 354 433 413 433 q 261 397 296 433 q 226 290 226 360 q 261 184 226 221 q 354 147 296 147 m 97 675 l 297 675 l 297 792 l 410 792 l 410 675 l 586 675 l 586 588 l 97 588 l 97 675 m 888 60 q 793 76 835 60 q 722 124 751 93 q 676 197 692 154 q 660 290 660 239 q 676 385 660 342 q 722 458 692 428 q 793 506 751 489 q 888 522 835 522 q 983 506 940 522 q 1056 458 1025 489 q 1102 385 1086 428 q 1118 290 1118 342 q 1102 197 1118 239 q 1056 124 1086 154 q 983 76 1025 93 q 888 60 940 60 m 888 147 q 980 184 946 147 q 1014 290 1014 221 q 980 397 1014 360 q 888 433 946 433 q 795 397 829 433 q 761 290 761 360 q 795 184 761 221 q 888 147 829 147 m 654 675 l 831 675 l 831 792 l 944 792 l 944 675 l 1143 675 l 1143 588 l 654 588 l 654 675 z "},"ㆆ":{"ha":1240,"x_min":231,"x_max":1010,"o":"m 231 788 l 1010 788 l 1010 682 l 231 682 l 231 788 m 621 -14 q 335 59 431 -14 q 240 268 240 132 q 335 478 240 406 q 621 551 431 551 q 906 478 811 551 q 1000 268 1000 406 q 905 59 1000 132 q 621 -14 810 -14 m 621 93 q 816 138 756 93 q 876 268 876 182 q 816 400 876 356 q 621 444 756 444 q 425 400 486 444 q 364 268 364 356 q 425 138 364 182 q 621 93 486 93 z "},"ㆇ":{"ha":1240,"x_min":46,"x_max":1221,"o":"m 921 1078 l 1042 1078 l 1042 722 l 1221 722 l 1221 619 l 1042 619 l 1042 385 l 1221 385 l 1221 282 l 1042 282 l 1042 -154 l 921 -154 l 921 1078 m 46 206 l 228 206 l 228 546 l 346 546 l 346 206 q 429 208 388 207 q 511 211 471 208 l 511 546 l 629 546 l 629 218 q 818 235 731 225 l 828 136 q 546 110 697 119 q 240 101 394 101 l 46 101 l 46 206 z "},"ㆈ":{"ha":1240,"x_min":46,"x_max":1136,"o":"m 1021 306 l 865 306 l 865 -101 l 753 -101 l 753 1056 l 865 1056 l 865 718 l 1021 718 l 1021 1078 l 1136 1078 l 1136 -154 l 1021 -154 l 1021 306 m 46 200 l 168 200 l 168 518 l 281 518 l 281 200 q 346 201 314 200 q 410 203 378 201 l 410 518 l 522 518 l 522 210 q 610 216 568 213 q 690 225 653 219 l 699 129 q 485 108 607 117 q 233 100 364 100 l 46 100 l 46 200 m 865 407 l 1021 407 l 1021 617 l 865 617 l 865 407 z "},"ㆉ":{"ha":1240,"x_min":67,"x_max":1096,"o":"m 67 206 l 226 206 l 226 560 l 347 560 l 347 206 q 435 208 392 207 q 524 211 479 208 l 524 560 l 644 560 l 644 217 q 761 224 704 219 q 872 236 818 229 l 882 138 q 583 110 743 119 q 263 101 422 101 l 67 101 l 67 206 m 974 1078 l 1096 1078 l 1096 -154 l 974 -154 l 974 1078 z "},"ㆊ":{"ha":1240,"x_min":53,"x_max":1107,"o":"m 697 296 l 985 296 l 985 1078 l 1107 1078 l 1107 -154 l 985 -154 l 985 -14 l 697 -14 l 697 79 l 985 79 l 985 201 l 697 201 l 697 296 m 468 385 q 393 382 431 383 q 318 381 356 381 l 318 -126 l 199 -126 l 199 381 l 53 381 l 53 483 l 243 483 q 561 492 404 483 q 858 517 718 500 l 868 419 q 732 403 801 410 q 588 392 663 396 l 588 -126 l 468 -126 l 468 385 z "},"ㆋ":{"ha":1240,"x_min":46,"x_max":1136,"o":"m 418 406 q 354 403 386 404 q 290 401 322 401 l 290 -106 l 175 -106 l 175 401 l 46 401 l 46 500 l 232 500 q 485 508 363 500 q 703 528 607 517 l 713 433 q 627 422 672 426 q 533 414 582 418 l 533 -106 l 418 -106 l 418 406 m 617 336 l 781 336 l 781 1058 l 893 1058 l 893 -99 l 781 -99 l 781 42 l 617 42 l 617 133 l 781 133 l 781 243 l 617 243 l 617 336 m 1021 1078 l 1136 1078 l 1136 -154 l 1021 -154 l 1021 1078 z "},"ㆌ":{"ha":1240,"x_min":67,"x_max":1096,"o":"m 540 336 q 456 332 499 333 q 372 329 414 331 l 372 -112 l 250 -112 l 250 329 l 67 329 l 67 435 l 258 435 q 584 443 422 435 q 892 468 746 451 l 901 368 q 785 355 844 361 q 663 343 725 349 l 663 -112 l 540 -112 l 540 336 m 974 1078 l 1096 1078 l 1096 -154 l 974 -154 l 974 1078 z "},"ㆍ":{"ha":1240,"x_min":538,"x_max":703,"o":"m 621 328 q 560 350 582 328 q 538 408 538 372 q 560 468 538 446 q 621 490 582 490 q 681 468 658 490 q 703 408 703 446 q 681 350 703 372 q 621 328 658 328 z "},"ㆎ":{"ha":1240,"x_min":353,"x_max":836,"o":"m 436 410 q 375 431 397 410 q 353 490 353 453 q 375 549 353 526 q 436 571 397 571 q 495 549 472 571 q 518 490 518 526 q 495 431 518 453 q 436 410 472 410 m 714 1078 l 836 1078 l 836 -154 l 714 -154 l 714 1078 z "},"ⅰ":{"ha":1240,"x_min":542,"x_max":697,"o":"m 561 717 l 679 717 l 679 0 l 561 0 l 561 717 m 619 854 q 563 874 583 854 q 542 928 542 894 q 563 981 542 961 q 619 1001 583 1001 q 677 981 657 1001 q 697 928 697 961 q 677 874 697 894 q 619 854 657 854 z "},"ⅱ":{"ha":1240,"x_min":354,"x_max":885,"o":"m 749 717 l 867 717 l 867 0 l 749 0 l 749 717 m 807 854 q 750 874 771 854 q 729 928 729 894 q 750 981 729 961 q 807 1001 771 1001 q 865 981 844 1001 q 885 928 885 961 q 865 874 885 894 q 807 854 844 854 m 374 717 l 492 717 l 492 0 l 374 0 l 374 717 m 432 854 q 375 874 396 854 q 354 928 354 894 q 375 981 354 961 q 432 1001 396 1001 q 490 981 469 1001 q 510 928 510 961 q 490 874 510 894 q 432 854 469 854 z "},"ⅲ":{"ha":1240,"x_min":181,"x_max":1058,"o":"m 561 717 l 679 717 l 679 0 l 561 0 l 561 717 m 619 854 q 563 874 583 854 q 542 928 542 894 q 563 981 542 961 q 619 1001 583 1001 q 677 981 657 1001 q 697 928 697 961 q 677 874 697 894 q 619 854 657 854 m 200 717 l 318 717 l 318 0 l 200 0 l 200 717 m 258 854 q 201 874 222 854 q 181 928 181 894 q 201 981 181 961 q 258 1001 222 1001 q 316 981 296 1001 q 336 928 336 961 q 316 874 336 894 q 258 854 296 854 m 922 717 l 1040 717 l 1040 0 l 922 0 l 922 717 m 981 854 q 924 874 944 854 q 903 928 903 894 q 924 981 903 961 q 981 1001 944 1001 q 1038 981 1018 1001 q 1058 928 1058 961 q 1038 874 1058 894 q 981 854 1018 854 z "},"ⅳ":{"ha":1240,"x_min":185,"x_max":1142,"o":"m 436 717 l 564 717 l 790 115 l 1018 717 l 1142 717 l 850 0 l 728 0 l 436 717 m 204 717 l 322 717 l 322 0 l 204 0 l 204 717 m 263 854 q 206 874 226 854 q 185 928 185 894 q 206 981 185 961 q 263 1001 226 1001 q 320 981 300 1001 q 340 928 340 961 q 320 874 340 894 q 263 854 300 854 z "},"ⅴ":{"ha":1240,"x_min":267,"x_max":972,"o":"m 267 717 l 394 717 l 621 115 l 849 717 l 972 717 l 681 0 l 558 0 l 267 717 z "},"ⅵ":{"ha":1240,"x_min":97,"x_max":1053,"o":"m 97 717 l 225 717 l 451 115 l 679 717 l 803 717 l 511 0 l 389 0 l 97 717 m 917 717 l 1035 717 l 1035 0 l 917 0 l 917 717 m 975 854 q 918 874 939 854 q 897 928 897 894 q 918 981 897 961 q 975 1001 939 1001 q 1033 981 1013 1001 q 1053 928 1053 961 q 1033 874 1053 894 q 975 854 1013 854 z "},"ⅶ":{"ha":1240,"x_min":96,"x_max":1124,"o":"m 96 717 l 219 717 l 375 121 l 532 717 l 651 717 l 440 0 l 307 0 l 96 717 m 990 717 l 1101 717 l 1101 0 l 990 0 l 990 717 m 733 717 l 844 717 l 844 0 l 733 0 l 733 717 m 1046 854 q 989 874 1010 854 q 968 928 968 894 q 989 981 968 961 q 1046 1001 1010 1001 q 1103 981 1082 1001 q 1124 928 1124 961 q 1103 874 1124 894 q 1046 854 1082 854 m 789 854 q 732 874 753 854 q 711 928 711 894 q 732 981 711 961 q 789 1001 753 1001 q 846 981 825 1001 q 867 928 867 961 q 846 874 867 894 q 789 854 825 854 z "},"ⅷ":{"ha":1240,"x_min":56,"x_max":1139,"o":"m 56 717 l 168 717 l 283 142 l 399 717 l 503 717 l 344 0 l 219 0 l 56 717 m 581 717 l 683 717 l 683 0 l 581 0 l 581 717 m 801 717 l 903 717 l 903 0 l 801 0 l 801 717 m 1021 717 l 1122 717 l 1122 0 l 1021 0 l 1021 717 m 851 858 q 801 877 819 858 q 783 928 783 896 q 801 978 783 960 q 851 997 819 997 q 901 978 883 997 q 919 928 919 960 q 901 877 919 896 q 851 858 883 858 m 632 858 q 582 877 600 858 q 564 928 564 896 q 582 978 564 960 q 632 997 600 997 q 682 978 664 997 q 700 928 700 960 q 682 877 700 896 q 632 858 664 858 m 1071 858 q 1021 877 1039 858 q 1003 928 1003 896 q 1021 978 1003 960 q 1071 997 1039 997 q 1121 978 1103 997 q 1139 928 1139 960 q 1121 877 1139 896 q 1071 858 1103 858 z "},"ⅸ":{"ha":1240,"x_min":185,"x_max":1097,"o":"m 686 374 l 432 717 l 567 717 l 754 453 l 943 717 l 1072 717 l 818 375 l 1097 0 l 958 0 l 751 290 l 540 0 l 407 0 l 686 374 m 204 717 l 322 717 l 322 0 l 204 0 l 204 717 m 263 854 q 206 874 226 854 q 185 928 185 894 q 206 981 185 961 q 263 1001 226 1001 q 320 981 300 1001 q 340 928 340 961 q 320 874 340 894 q 263 854 300 854 z "},"ⅹ":{"ha":1240,"x_min":274,"x_max":964,"o":"m 553 374 l 299 717 l 433 717 l 621 453 l 810 717 l 939 717 l 685 375 l 964 0 l 825 0 l 618 290 l 407 0 l 274 0 l 553 374 z "},"Ⅰ":{"ha":1240,"x_min":558,"x_max":682,"o":"m 558 972 l 682 972 l 682 0 l 558 0 l 558 972 z "},"Ⅱ":{"ha":1240,"x_min":381,"x_max":858,"o":"m 735 972 l 858 972 l 858 0 l 735 0 l 735 972 m 381 972 l 504 972 l 504 0 l 381 0 l 381 972 z "},"Ⅲ":{"ha":1240,"x_min":208,"x_max":1032,"o":"m 558 972 l 682 972 l 682 0 l 558 0 l 558 972 m 208 972 l 332 972 l 332 0 l 208 0 l 208 972 m 908 972 l 1032 972 l 1032 0 l 908 0 l 908 972 z "},"Ⅳ":{"ha":1240,"x_min":207,"x_max":1146,"o":"m 401 972 l 532 972 l 775 132 l 1019 972 l 1146 972 l 838 0 l 711 0 l 401 972 m 207 972 l 331 972 l 331 0 l 207 0 l 207 972 z "},"Ⅴ":{"ha":1240,"x_min":165,"x_max":1075,"o":"m 165 972 l 301 972 l 622 131 l 943 972 l 1075 972 l 683 0 l 556 0 l 165 972 z "},"Ⅵ":{"ha":1240,"x_min":93,"x_max":1032,"o":"m 93 972 l 219 972 l 463 132 l 707 972 l 838 972 l 528 0 l 401 0 l 93 972 m 908 972 l 1032 972 l 1032 0 l 908 0 l 908 972 z "},"Ⅶ":{"ha":1240,"x_min":51,"x_max":1113,"o":"m 51 972 l 171 972 l 346 156 l 519 972 l 644 972 l 410 0 l 285 0 l 51 972 m 994 972 l 1113 972 l 1113 0 l 994 0 l 994 972 m 714 972 l 832 972 l 832 0 l 714 0 l 714 972 z "},"Ⅷ":{"ha":1240,"x_min":38,"x_max":1131,"o":"m 38 972 l 144 972 l 268 171 l 392 972 l 504 972 l 326 0 l 214 0 l 38 972 m 1026 972 l 1131 972 l 1131 0 l 1026 0 l 1026 972 m 800 972 l 904 972 l 904 0 l 800 0 l 800 972 m 575 972 l 679 972 l 679 0 l 575 0 l 575 972 z "},"Ⅸ":{"ha":1240,"x_min":207,"x_max":1111,"o":"m 689 497 l 424 972 l 561 972 l 758 600 l 956 972 l 1089 972 l 821 501 l 1111 0 l 972 0 l 753 396 l 538 0 l 401 0 l 689 497 m 207 972 l 331 972 l 331 0 l 207 0 l 207 972 z "},"Ⅹ":{"ha":1240,"x_min":196,"x_max":1044,"o":"m 547 497 l 218 972 l 364 972 l 621 588 l 881 972 l 1022 972 l 689 500 l 1044 0 l 894 0 l 618 407 l 340 0 l 196 0 l 547 497 z "},"Α":{"ha":960,"x_min":0,"x_max":0,"o":""},"Β":{"ha":896,"x_min":0,"x_max":0,"o":""},"Γ":{"ha":833,"x_min":0,"x_max":0,"o":""},"Δ":{"ha":833,"x_min":0,"x_max":0,"o":""},"Ε":{"ha":811,"x_min":0,"x_max":0,"o":""},"Ζ":{"ha":838,"x_min":0,"x_max":0,"o":""},"Η":{"ha":1008,"x_min":0,"x_max":0,"o":""},"Θ":{"ha":833,"x_min":0,"x_max":0,"o":""},"Ι":{"ha":367,"x_min":0,"x_max":0,"o":""},"Κ":{"ha":918,"x_min":0,"x_max":0,"o":""},"Λ":{"ha":833,"x_min":0,"x_max":0,"o":""},"Μ":{"ha":1199,"x_min":0,"x_max":0,"o":""},"Ν":{"ha":1006,"x_min":0,"x_max":0,"o":""},"Ξ":{"ha":833,"x_min":0,"x_max":0,"o":""},"Ο":{"ha":1058,"x_min":0,"x_max":0,"o":""},"Π":{"ha":833,"x_min":0,"x_max":0,"o":""},"Ρ":{"ha":856,"x_min":0,"x_max":0,"o":""},"Σ":{"ha":833,"x_min":0,"x_max":0,"o":""},"Τ":{"ha":825,"x_min":0,"x_max":0,"o":""},"Υ":{"ha":833,"x_min":0,"x_max":0,"o":""},"Φ":{"ha":833,"x_min":0,"x_max":0,"o":""},"Χ":{"ha":879,"x_min":0,"x_max":0,"o":""},"Ψ":{"ha":833,"x_min":0,"x_max":0,"o":""},"Ω":{"ha":833,"x_min":0,"x_max":0,"o":""},"α":{"ha":833,"x_min":0,"x_max":0,"o":""},"β":{"ha":833,"x_min":0,"x_max":0,"o":""},"γ":{"ha":833,"x_min":0,"x_max":0,"o":""},"δ":{"ha":833,"x_min":0,"x_max":0,"o":""},"ε":{"ha":833,"x_min":0,"x_max":0,"o":""},"ζ":{"ha":833,"x_min":0,"x_max":0,"o":""},"η":{"ha":833,"x_min":0,"x_max":0,"o":""},"θ":{"ha":833,"x_min":0,"x_max":0,"o":""},"ι":{"ha":833,"x_min":0,"x_max":0,"o":""},"κ":{"ha":833,"x_min":0,"x_max":0,"o":""},"λ":{"ha":833,"x_min":0,"x_max":0,"o":""},"μ":{"ha":819,"x_min":101,"x_max":794,"o":"m 101 717 l 219 717 l 219 249 q 364 88 219 88 q 474 107 428 88 q 569 169 521 126 q 568 188 568 179 q 568 208 568 197 l 568 717 l 686 717 l 686 207 q 697 117 686 144 q 735 90 707 90 q 785 100 761 90 l 794 4 q 749 -8 774 -4 q 700 -12 724 -12 q 582 81 610 -12 q 474 7 531 32 q 351 -18 418 -18 q 275 -4 311 -18 q 219 36 239 10 l 219 -293 l 101 -293 l 101 717 z "},"ν":{"ha":833,"x_min":0,"x_max":0,"o":""},"ξ":{"ha":833,"x_min":0,"x_max":0,"o":""},"ο":{"ha":833,"x_min":0,"x_max":0,"o":""},"π":{"ha":833,"x_min":0,"x_max":0,"o":""},"ρ":{"ha":833,"x_min":0,"x_max":0,"o":""},"σ":{"ha":833,"x_min":0,"x_max":0,"o":""},"τ":{"ha":833,"x_min":0,"x_max":0,"o":""},"υ":{"ha":833,"x_min":0,"x_max":0,"o":""},"φ":{"ha":833,"x_min":0,"x_max":0,"o":""},"χ":{"ha":833,"x_min":0,"x_max":0,"o":""},"ψ":{"ha":833,"x_min":0,"x_max":0,"o":""},"ω":{"ha":833,"x_min":0,"x_max":0,"o":""},"─":{"ha":1240,"x_min":0,"x_max":1240,"o":"m 0 399 l 0 438 l 1240 438 l 1240 399 l 0 399 z "},"│":{"ha":1240,"x_min":601,"x_max":640,"o":"m 601 -257 l 601 1092 l 640 1092 l 640 -257 l 601 -257 z "},"┌":{"ha":1240,"x_min":601,"x_max":1240,"o":"m 640 399 l 640 -257 l 601 -257 l 601 438 l 1240 438 l 1240 399 l 640 399 z "},"┐":{"ha":1240,"x_min":0,"x_max":640,"o":"m 601 -257 l 601 399 l 0 399 l 0 438 l 640 438 l 640 -257 l 601 -257 z "},"┘":{"ha":1240,"x_min":0,"x_max":640,"o":"m 0 399 l 0 438 l 601 438 l 601 1092 l 640 1092 l 640 399 l 0 399 z "},"└":{"ha":1240,"x_min":601,"x_max":1226,"o":"m 601 399 l 601 1092 l 640 1092 l 640 438 l 1226 438 l 1226 399 l 601 399 z "},"├":{"ha":1240,"x_min":601,"x_max":1240,"o":"m 640 399 l 640 -257 l 601 -257 l 601 1092 l 640 1092 l 640 438 l 1240 438 l 1240 399 l 640 399 z "},"┬":{"ha":1240,"x_min":0,"x_max":1240,"o":"m 640 399 l 640 -257 l 601 -257 l 601 399 l 0 399 l 0 438 l 1240 438 l 1240 399 l 640 399 z "},"┤":{"ha":1240,"x_min":0,"x_max":640,"o":"m 601 -257 l 601 399 l 0 399 l 0 438 l 601 438 l 601 1092 l 640 1092 l 640 -257 l 601 -257 z "},"┴":{"ha":1240,"x_min":0,"x_max":1240,"o":"m 0 399 l 0 438 l 601 438 l 601 1092 l 640 1092 l 640 438 l 1240 438 l 1240 399 l 0 399 z "},"┼":{"ha":1240,"x_min":0,"x_max":1240,"o":"m 640 397 l 640 -257 l 601 -257 l 601 397 l 0 397 l 0 436 l 601 436 l 601 1092 l 640 1092 l 640 436 l 1240 436 l 1240 397 l 640 397 z "},"━":{"ha":1240,"x_min":0,"x_max":1240,"o":"m 0 378 l 0 450 l 1240 450 l 1240 378 l 0 378 z "},"┃":{"ha":1240,"x_min":583,"x_max":657,"o":"m 583 -257 l 583 1092 l 657 1092 l 657 -257 l 583 -257 z "},"┏":{"ha":1240,"x_min":583,"x_max":1240,"o":"m 657 378 l 657 -257 l 583 -257 l 583 450 l 1240 450 l 1240 378 l 657 378 z "},"┓":{"ha":1240,"x_min":0,"x_max":657,"o":"m 583 -257 l 583 378 l 0 378 l 0 450 l 657 450 l 657 -257 l 583 -257 z "},"┛":{"ha":1240,"x_min":0,"x_max":657,"o":"m 0 378 l 0 450 l 583 450 l 583 1092 l 657 1092 l 657 378 l 0 378 z "},"┗":{"ha":1240,"x_min":583,"x_max":1240,"o":"m 583 378 l 583 1092 l 657 1092 l 657 450 l 1240 450 l 1240 378 l 583 378 z "},"┣":{"ha":1240,"x_min":583,"x_max":1240,"o":"m 657 378 l 657 -257 l 583 -257 l 583 1092 l 657 1092 l 657 450 l 1240 450 l 1240 378 l 657 378 z "},"┳":{"ha":1240,"x_min":0,"x_max":1240,"o":"m 657 378 l 657 -257 l 583 -257 l 583 378 l 0 378 l 0 450 l 1240 450 l 1240 378 l 657 378 z "},"┫":{"ha":1240,"x_min":0,"x_max":657,"o":"m 583 -257 l 583 378 l 0 378 l 0 450 l 583 450 l 583 1092 l 657 1092 l 657 -257 l 583 -257 z "},"┻":{"ha":1240,"x_min":0,"x_max":1240,"o":"m 0 378 l 0 450 l 583 450 l 583 1092 l 657 1092 l 657 450 l 1240 450 l 1240 378 l 0 378 z "},"╋":{"ha":1240,"x_min":0,"x_max":1240,"o":"m 657 378 l 657 -257 l 583 -257 l 583 378 l 0 378 l 0 450 l 583 450 l 583 1092 l 657 1092 l 657 450 l 1240 450 l 1240 378 l 657 378 z "},"┠":{"ha":1240,"x_min":568,"x_max":1240,"o":"m 671 393 l 671 -257 l 568 -257 l 568 1092 l 671 1092 l 671 442 l 1240 442 l 1240 393 l 671 393 z "},"┯":{"ha":1240,"x_min":0,"x_max":1240,"o":"m 646 368 l 646 -257 l 594 -257 l 594 368 l 0 368 l 0 465 l 1240 465 l 1240 368 l 646 368 z "},"┨":{"ha":1240,"x_min":0,"x_max":671,"o":"m 569 -257 l 569 393 l 0 393 l 0 442 l 569 442 l 569 1092 l 671 1092 l 671 -257 l 569 -257 z "},"┷":{"ha":1240,"x_min":0,"x_max":1240,"o":"m 0 368 l 0 465 l 594 465 l 594 1092 l 646 1092 l 646 465 l 1240 465 l 1240 368 l 0 368 z "},"┿":{"ha":1240,"x_min":0,"x_max":1240,"o":"m 646 368 l 646 -257 l 594 -257 l 594 368 l 0 368 l 0 465 l 594 465 l 594 1092 l 646 1092 l 646 465 l 1240 465 l 1240 368 l 646 368 z "},"┝":{"ha":1240,"x_min":594,"x_max":1240,"o":"m 646 368 l 646 -257 l 594 -257 l 594 1092 l 646 1092 l 646 465 l 1240 465 l 1240 368 l 646 368 z "},"┰":{"ha":1240,"x_min":0,"x_max":1240,"o":"m 671 393 l 671 -257 l 569 -257 l 569 393 l 0 393 l 0 442 l 1240 442 l 1240 393 l 671 393 z "},"┥":{"ha":1240,"x_min":0,"x_max":646,"o":"m 594 -257 l 594 368 l 0 368 l 0 465 l 594 465 l 594 1092 l 646 1092 l 646 -257 l 594 -257 z "},"┸":{"ha":1240,"x_min":0,"x_max":1240,"o":"m 0 393 l 0 442 l 569 442 l 569 1092 l 671 1092 l 671 442 l 1240 442 l 1240 393 l 0 393 z "},"╂":{"ha":1240,"x_min":0,"x_max":1240,"o":"m 671 393 l 671 -257 l 569 -257 l 569 393 l 0 393 l 0 442 l 569 442 l 569 1092 l 671 1092 l 671 442 l 1240 442 l 1240 393 l 671 393 z "},"┒":{"ha":1240,"x_min":0,"x_max":671,"o":"m 569 -257 l 569 393 l 0 393 l 0 442 l 671 442 l 671 -257 l 569 -257 z "},"┑":{"ha":1240,"x_min":0,"x_max":646,"o":"m 594 -257 l 594 368 l 0 368 l 0 465 l 646 465 l 646 -257 l 594 -257 z "},"┚":{"ha":1240,"x_min":0,"x_max":671,"o":"m 0 393 l 0 442 l 569 442 l 569 1092 l 671 1092 l 671 393 l 0 393 z "},"┙":{"ha":1240,"x_min":0,"x_max":646,"o":"m 0 368 l 0 465 l 594 465 l 594 1092 l 646 1092 l 646 368 l 0 368 z "},"┖":{"ha":1240,"x_min":569,"x_max":1240,"o":"m 569 393 l 569 1092 l 671 1092 l 671 442 l 1240 442 l 1240 393 l 569 393 z "},"┕":{"ha":1240,"x_min":594,"x_max":1240,"o":"m 594 368 l 594 1092 l 646 1092 l 646 465 l 1240 465 l 1240 368 l 594 368 z "},"┎":{"ha":1240,"x_min":569,"x_max":1240,"o":"m 671 393 l 671 -257 l 569 -257 l 569 442 l 1240 442 l 1240 393 l 671 393 z "},"┍":{"ha":1240,"x_min":594,"x_max":1240,"o":"m 646 368 l 646 -257 l 594 -257 l 594 465 l 1240 465 l 1240 368 l 646 368 z "},"┞":{"ha":1240,"x_min":569,"x_max":1240,"o":"m 644 393 l 646 -257 l 594 -257 l 594 417 l 569 417 l 569 1092 l 671 1092 l 671 442 l 1240 442 l 1240 393 l 644 393 z "},"┟":{"ha":1240,"x_min":569,"x_max":1240,"o":"m 671 393 l 671 -257 l 569 -257 l 569 417 l 594 417 l 594 1092 l 646 1092 l 646 442 l 1240 442 l 1240 393 l 671 393 z "},"┡":{"ha":1240,"x_min":569,"x_max":1240,"o":"m 646 368 l 646 -257 l 594 -257 l 594 417 l 569 417 l 569 1092 l 671 1092 l 671 465 l 1240 465 l 1240 368 l 646 368 z "},"┢":{"ha":1240,"x_min":569,"x_max":1240,"o":"m 671 368 l 671 -257 l 569 -257 l 569 417 l 594 417 l 594 1092 l 646 1092 l 646 465 l 1240 465 l 1240 368 l 671 368 z "},"┦":{"ha":1240,"x_min":0,"x_max":671,"o":"m 646 417 l 646 -257 l 594 -257 l 594 393 l 0 393 l 0 442 l 569 442 l 569 1092 l 671 1092 l 671 417 l 646 417 z "},"┧":{"ha":1240,"x_min":0,"x_max":671,"o":"m 569 -257 l 569 393 l 0 393 l 0 442 l 594 442 l 594 1092 l 646 1092 l 646 417 l 671 417 l 671 -257 l 569 -257 z "},"┩":{"ha":1240,"x_min":0,"x_max":671,"o":"m 646 417 l 646 -257 l 594 -257 l 594 368 l 0 368 l 0 465 l 569 465 l 569 1092 l 671 1092 l 671 417 l 646 417 z "},"┪":{"ha":1240,"x_min":0,"x_max":671,"o":"m 569 -257 l 569 368 l 0 368 l 0 465 l 594 465 l 594 1092 l 646 1092 l 646 417 l 671 417 l 671 -257 l 569 -257 z "},"┭":{"ha":1240,"x_min":0,"x_max":1240,"o":"m 646 393 l 646 -257 l 594 -257 l 594 368 l 0 368 l 0 465 l 621 465 l 621 442 l 1240 442 l 1240 393 l 646 393 z "},"┮":{"ha":1240,"x_min":0,"x_max":1240,"o":"m 646 368 l 646 -257 l 594 -257 l 594 393 l 0 393 l 0 442 l 621 442 l 621 465 l 1240 465 l 1240 368 l 646 368 z "},"┱":{"ha":1240,"x_min":0,"x_max":1240,"o":"m 671 393 l 671 -257 l 569 -257 l 569 368 l 0 368 l 0 465 l 621 465 l 621 442 l 1240 442 l 1240 393 l 671 393 z "},"┲":{"ha":1240,"x_min":0,"x_max":1240,"o":"m 671 368 l 671 -257 l 569 -257 l 569 393 l 0 393 l 0 442 l 621 442 l 621 465 l 1240 465 l 1240 368 l 671 368 z "},"┵":{"ha":1240,"x_min":0,"x_max":1240,"o":"m 621 393 l 621 368 l 0 368 l 0 465 l 594 465 l 594 1092 l 646 1092 l 646 442 l 1240 442 l 1240 393 l 621 393 z "},"┶":{"ha":1240,"x_min":0,"x_max":1240,"o":"m 621 368 l 621 393 l 0 393 l 0 442 l 594 442 l 594 1092 l 646 1092 l 646 465 l 1240 465 l 1240 368 l 621 368 z "},"┹":{"ha":1240,"x_min":0,"x_max":1240,"o":"m 621 393 l 621 368 l 0 368 l 0 465 l 569 465 l 569 1092 l 671 1092 l 671 442 l 1240 442 l 1240 393 l 621 393 z "},"┺":{"ha":1240,"x_min":0,"x_max":1240,"o":"m 621 368 l 621 393 l 0 393 l 0 442 l 569 442 l 569 1092 l 671 1092 l 671 465 l 1240 465 l 1240 368 l 621 368 z "},"┽":{"ha":1240,"x_min":0,"x_max":1240,"o":"m 646 393 l 646 -257 l 594 -257 l 594 368 l 0 368 l 0 471 l 594 471 l 594 1092 l 646 1092 l 646 442 l 1240 442 l 1240 393 l 646 393 z "},"┾":{"ha":1240,"x_min":0,"x_max":1240,"o":"m 646 368 l 646 -257 l 594 -257 l 594 393 l 0 393 l 0 442 l 594 442 l 594 1092 l 646 1092 l 646 465 l 1240 465 l 1240 368 l 646 368 z "},"╀":{"ha":1240,"x_min":0,"x_max":1240,"o":"m 646 393 l 646 -257 l 594 -257 l 594 393 l 0 393 l 0 442 l 569 442 l 569 1092 l 671 1092 l 671 442 l 1240 442 l 1240 393 l 646 393 z "},"╁":{"ha":1240,"x_min":0,"x_max":1240,"o":"m 671 393 l 671 -257 l 569 -257 l 569 393 l 0 393 l 0 442 l 594 442 l 594 1092 l 646 1092 l 646 442 l 1240 442 l 1240 393 l 671 393 z "},"╃":{"ha":1240,"x_min":0,"x_max":1240,"o":"m 646 393 l 646 -257 l 594 -257 l 594 368 l 0 368 l 0 465 l 569 465 l 569 1092 l 671 1092 l 671 442 l 1240 442 l 1240 393 l 646 393 z "},"╄":{"ha":1240,"x_min":0,"x_max":1240,"o":"m 646 368 l 646 -257 l 594 -257 l 594 393 l 0 393 l 0 442 l 569 442 l 569 1092 l 671 1092 l 671 465 l 1240 465 l 1240 368 l 646 368 z "},"╅":{"ha":1240,"x_min":0,"x_max":1240,"o":"m 671 393 l 671 -257 l 569 -257 l 569 368 l 0 368 l 0 465 l 594 465 l 594 1092 l 646 1092 l 646 442 l 1240 442 l 1240 393 l 671 393 z "},"╆":{"ha":1240,"x_min":0,"x_max":1240,"o":"m 671 368 l 671 -257 l 569 -257 l 569 393 l 0 393 l 0 442 l 594 442 l 594 1092 l 646 1092 l 646 465 l 1240 465 l 1240 368 l 671 368 z "},"╇":{"ha":1240,"x_min":0,"x_max":1240,"o":"m 646 368 l 646 -257 l 594 -257 l 594 368 l 0 368 l 0 465 l 569 465 l 569 1092 l 671 1092 l 671 465 l 1240 465 l 1240 368 l 646 368 z "},"╈":{"ha":1240,"x_min":0,"x_max":1240,"o":"m 671 368 l 671 -257 l 569 -257 l 569 368 l 0 368 l 0 465 l 594 465 l 594 1092 l 646 1092 l 646 465 l 1240 465 l 1240 368 l 671 368 z "},"╉":{"ha":1240,"x_min":0,"x_max":1240,"o":"m 671 393 l 671 -257 l 569 -257 l 569 368 l 0 368 l 0 465 l 569 465 l 569 1092 l 671 1092 l 671 442 l 1240 442 l 1240 393 l 671 393 z "},"╊":{"ha":1240,"x_min":0,"x_max":1240,"o":"m 671 368 l 671 -257 l 569 -257 l 569 393 l 0 393 l 0 442 l 569 442 l 569 1092 l 671 1092 l 671 465 l 1240 465 l 1240 368 l 671 368 z "},"㎕":{"ha":1389,"x_min":0,"x_max":0,"o":""},"㎖":{"ha":1389,"x_min":0,"x_max":0,"o":""},"㎗":{"ha":1389,"x_min":0,"x_max":0,"o":""},"ℓ":{"ha":793,"x_min":11,"x_max":686,"o":"m 160 338 q 183 603 160 486 q 251 803 207 721 q 357 928 294 885 q 497 972 419 972 q 580 955 544 972 q 639 907 615 938 q 674 835 663 876 q 686 746 686 793 q 658 577 686 656 q 578 431 629 499 q 456 303 528 363 q 299 192 385 243 q 408 78 328 78 q 504 107 457 78 q 583 188 551 136 l 649 135 q 535 23 604 64 q 392 -18 467 -18 q 277 19 329 -18 q 193 133 225 56 q 124 98 160 115 q 53 65 89 81 l 11 149 q 91 188 51 168 q 168 226 131 207 q 160 338 160 276 m 285 297 q 406 392 351 342 q 498 497 460 442 q 558 613 536 551 q 582 742 581 674 q 559 837 583 804 q 493 869 535 869 q 414 833 451 869 q 347 726 376 796 q 301 554 318 656 q 285 324 285 453 l 285 297 z "},"㎘":{"ha":1389,"x_min":0,"x_max":0,"o":""},"㏄":{"ha":1389,"x_min":0,"x_max":0,"o":""},"㎣":{"ha":1389,"x_min":0,"x_max":0,"o":""},"㎤":{"ha":1389,"x_min":0,"x_max":0,"o":""},"㎥":{"ha":1389,"x_min":0,"x_max":0,"o":""},"㎦":{"ha":1389,"x_min":0,"x_max":0,"o":""},"㎙":{"ha":1389,"x_min":0,"x_max":0,"o":""},"㎚":{"ha":1389,"x_min":0,"x_max":0,"o":""},"㎛":{"ha":1389,"x_min":0,"x_max":0,"o":""},"㎜":{"ha":1389,"x_min":0,"x_max":0,"o":""},"㎝":{"ha":1389,"x_min":0,"x_max":0,"o":""},"㎞":{"ha":1389,"x_min":0,"x_max":0,"o":""},"㎟":{"ha":1389,"x_min":0,"x_max":0,"o":""},"㎠":{"ha":1389,"x_min":0,"x_max":0,"o":""},"㎡":{"ha":1389,"x_min":0,"x_max":0,"o":""},"㎢":{"ha":1389,"x_min":0,"x_max":0,"o":""},"㏊":{"ha":1389,"x_min":0,"x_max":0,"o":""},"㎍":{"ha":1389,"x_min":0,"x_max":0,"o":""},"㎎":{"ha":1389,"x_min":0,"x_max":0,"o":""},"㎏":{"ha":1389,"x_min":0,"x_max":0,"o":""},"㏏":{"ha":1389,"x_min":0,"x_max":0,"o":""},"㎈":{"ha":1389,"x_min":0,"x_max":0,"o":""},"㎉":{"ha":1389,"x_min":0,"x_max":0,"o":""},"㏈":{"ha":1389,"x_min":0,"x_max":0,"o":""},"㎧":{"ha":1389,"x_min":0,"x_max":0,"o":""},"㎨":{"ha":1389,"x_min":0,"x_max":0,"o":""},"㎰":{"ha":1389,"x_min":0,"x_max":0,"o":""},"㎱":{"ha":1389,"x_min":0,"x_max":0,"o":""},"㎲":{"ha":1389,"x_min":0,"x_max":0,"o":""},"㎳":{"ha":1389,"x_min":0,"x_max":0,"o":""},"㎴":{"ha":1389,"x_min":0,"x_max":0,"o":""},"㎵":{"ha":1389,"x_min":0,"x_max":0,"o":""},"㎶":{"ha":1389,"x_min":0,"x_max":0,"o":""},"㎷":{"ha":1389,"x_min":0,"x_max":0,"o":""},"㎸":{"ha":1389,"x_min":0,"x_max":0,"o":""},"㎹":{"ha":1389,"x_min":0,"x_max":0,"o":""},"㎀":{"ha":1389,"x_min":0,"x_max":0,"o":""},"㎁":{"ha":1389,"x_min":0,"x_max":0,"o":""},"㎂":{"ha":1389,"x_min":0,"x_max":0,"o":""},"㎃":{"ha":1389,"x_min":0,"x_max":0,"o":""},"㎄":{"ha":1389,"x_min":0,"x_max":0,"o":""},"㎺":{"ha":1389,"x_min":0,"x_max":0,"o":""},"㎻":{"ha":1389,"x_min":0,"x_max":0,"o":""},"㎼":{"ha":1389,"x_min":0,"x_max":0,"o":""},"㎽":{"ha":1389,"x_min":0,"x_max":0,"o":""},"㎾":{"ha":1389,"x_min":0,"x_max":0,"o":""},"㎿":{"ha":1389,"x_min":0,"x_max":0,"o":""},"㎐":{"ha":1389,"x_min":0,"x_max":0,"o":""},"㎑":{"ha":1389,"x_min":0,"x_max":0,"o":""},"㎒":{"ha":1389,"x_min":0,"x_max":0,"o":""},"㎓":{"ha":1389,"x_min":0,"x_max":0,"o":""},"㎔":{"ha":1389,"x_min":0,"x_max":0,"o":""},"Ω":{"ha":1013,"x_min":81,"x_max":931,"o":"m 96 99 l 292 99 q 140 241 200 143 q 81 490 81 339 q 110 692 81 603 q 194 843 139 781 q 327 939 249 906 q 506 972 406 972 q 684 939 606 972 q 817 843 763 906 q 901 692 872 781 q 931 490 931 603 q 872 241 931 339 q 721 99 813 143 l 917 99 l 917 0 l 575 0 l 575 104 q 745 231 682 139 q 808 488 808 322 q 732 767 808 668 q 506 865 656 865 q 281 767 357 865 q 204 488 204 668 q 267 231 204 322 q 444 104 331 139 l 444 0 l 96 0 l 96 99 z "},"㏀":{"ha":1389,"x_min":0,"x_max":0,"o":""},"㏁":{"ha":1389,"x_min":0,"x_max":0,"o":""},"㎊":{"ha":1389,"x_min":0,"x_max":0,"o":""},"㎋":{"ha":1389,"x_min":0,"x_max":0,"o":""},"㎌":{"ha":1389,"x_min":0,"x_max":0,"o":""},"㏖":{"ha":1389,"x_min":0,"x_max":0,"o":""},"㏅":{"ha":1389,"x_min":0,"x_max":0,"o":""},"㎭":{"ha":1389,"x_min":0,"x_max":0,"o":""},"㎮":{"ha":1389,"x_min":0,"x_max":0,"o":""},"㎯":{"ha":1389,"x_min":0,"x_max":0,"o":""},"㏛":{"ha":1389,"x_min":0,"x_max":0,"o":""},"㎩":{"ha":1389,"x_min":0,"x_max":0,"o":""},"㎪":{"ha":1389,"x_min":0,"x_max":0,"o":""},"㎫":{"ha":1389,"x_min":0,"x_max":0,"o":""},"㎬":{"ha":1389,"x_min":0,"x_max":0,"o":""},"㏝":{"ha":1389,"x_min":0,"x_max":0,"o":""},"㏐":{"ha":1389,"x_min":0,"x_max":0,"o":""},"㏓":{"ha":1389,"x_min":0,"x_max":0,"o":""},"㏃":{"ha":1389,"x_min":0,"x_max":0,"o":""},"㏉":{"ha":1389,"x_min":0,"x_max":0,"o":""},"㏜":{"ha":1389,"x_min":0,"x_max":0,"o":""},"㏆":{"ha":1389,"x_min":0,"x_max":0,"o":""},"Æ":{"ha":1401,"x_min":19,"x_max":1349,"o":"m 19 0 l 615 972 l 1324 972 l 1324 861 l 853 861 l 853 546 l 1296 546 l 1296 435 l 853 435 l 853 111 l 1349 111 l 1349 0 l 731 0 l 731 263 l 318 263 l 160 0 l 19 0 m 731 861 l 678 861 l 382 369 l 731 369 l 731 861 z "},"Ð":{"ha":1021,"x_min":28,"x_max":947,"o":"m 154 0 l 154 457 l 28 457 l 28 558 l 154 558 l 154 972 l 486 972 q 828 847 708 972 q 947 489 947 721 q 826 129 947 258 q 485 0 704 0 l 154 0 m 279 108 l 476 108 q 729 206 642 108 q 817 489 817 303 q 731 769 817 674 q 478 864 646 864 l 279 864 l 279 558 l 535 558 l 535 457 l 279 457 l 279 108 z "},"ª":{"ha":603,"x_min":60,"x_max":506,"o":"m 243 428 q 108 469 157 428 q 60 581 60 511 q 115 708 60 667 q 293 754 169 749 l 415 758 l 415 781 q 384 867 415 840 q 285 894 353 894 q 203 884 242 894 q 124 849 164 874 l 88 917 q 196 965 144 953 q 294 976 247 976 q 506 786 506 976 l 506 440 l 425 440 l 422 496 q 341 445 382 463 q 243 428 300 428 m 154 586 q 258 508 154 508 q 343 523 307 508 q 415 568 379 538 l 415 685 l 300 681 q 188 656 221 678 q 154 586 154 633 z "},"Ħ":{"ha":1008,"x_min":42,"x_max":967,"o":"m 42 825 l 122 825 l 122 972 l 246 972 l 246 825 l 763 825 l 763 972 l 886 972 l 886 825 l 967 825 l 967 714 l 886 714 l 886 0 l 763 0 l 763 436 l 246 436 l 246 0 l 122 0 l 122 714 l 42 714 l 42 825 m 246 547 l 763 547 l 763 714 l 246 714 l 246 547 z "},"Ĳ":{"ha":924,"x_min":121,"x_max":807,"o":"m 121 278 l 121 972 l 246 972 l 246 278 l 121 278 m 121 60 l 163 163 q 281 106 225 122 q 413 90 338 90 q 682 342 682 90 l 682 972 l 807 972 l 807 343 q 707 73 807 167 q 421 -21 607 -21 q 258 -1 331 -21 q 121 60 186 19 z "},"Ŀ":{"ha":756,"x_min":122,"x_max":729,"o":"m 122 972 l 246 972 l 246 110 l 729 110 l 729 0 l 122 0 l 122 972 m 514 476 q 454 498 476 476 q 432 557 432 519 q 454 614 432 592 q 514 636 476 636 q 572 614 550 636 q 594 557 594 592 q 572 498 594 519 q 514 476 550 476 z "},"Ł":{"ha":756,"x_min":64,"x_max":729,"o":"m 64 506 l 122 525 l 122 972 l 246 972 l 246 568 l 471 644 l 471 542 l 246 465 l 246 110 l 729 110 l 729 0 l 122 0 l 122 422 l 64 403 l 64 506 z "},"Ø":{"ha":1058,"x_min":74,"x_max":985,"o":"m 194 -60 l 113 0 l 197 115 q 106 274 138 181 q 74 485 74 368 q 129 756 74 642 q 287 931 185 869 q 529 993 389 993 q 785 922 676 993 l 864 1032 l 946 972 l 863 856 q 953 696 921 790 q 985 485 985 601 q 929 217 985 331 q 772 41 874 103 q 529 -21 669 -21 q 275 50 382 -21 l 194 -60 m 204 485 q 272 214 204 314 l 719 828 q 529 882 643 882 q 288 779 372 882 q 204 485 204 676 m 529 90 q 770 192 686 90 q 854 485 854 294 q 786 757 854 657 l 339 144 q 529 90 415 90 z "}}}
